<svg width="300" height="289" viewBox="0 0 300 289" fill="none" xmlns="http://www.w3.org/2000/svg">
<path d="M254.732 141.196C196.19 107.385 101.585 107.386 43.4233 141.197C-14.7417 175.011 -14.4335 229.829 44.1087 263.641C102.654 297.454 197.26 297.453 255.425 263.639C313.586 229.828 313.277 175.01 254.732 141.196Z" fill="#F5F5F5"/>
<path d="M275.875 200.671C280.194 198.177 287.172 198.177 291.463 200.671C295.753 203.165 295.731 207.209 291.412 209.703C287.093 212.197 280.115 212.197 275.824 209.703C271.534 207.209 271.556 203.165 275.875 200.671Z" fill="#E0E0E0"/>
<path d="M153.063 204.297L145.075 193.435C143.444 191.217 140.929 189.821 138.185 189.61L126.412 188.705L107.699 177.332L114.693 173.291C115.115 173.047 115.113 172.438 114.689 172.197L111.779 170.542C110.612 169.879 109.18 169.884 108.018 170.556L39.4715 210.198C39.0518 210.44 39.0518 211.047 39.4715 211.289L42.3076 212.928C43.4778 213.603 44.9194 213.603 46.0889 212.928L75.849 195.734L94.2976 206.321L96.7101 213.108C98.2291 217.38 102.271 220.233 106.804 220.233H124.019L135.699 226.979L163.924 210.571L153.063 204.297Z" fill="#E0E0E0"/>
<path d="M258.089 194.279C239.43 183.503 209.276 183.503 190.739 194.28C174.358 203.803 172.538 218.549 185.205 229.288C174.985 228.654 164.394 230.603 156.589 235.14C142.889 243.104 142.961 256.016 156.75 263.979C170.539 271.944 192.822 271.944 206.522 263.979C217.421 257.643 219.593 248.177 213.084 240.561C228.792 242.833 246.079 240.417 258.31 233.306C276.848 222.529 276.75 205.056 258.089 194.279Z" fill="#E0E0E0"/>
<path d="M41.5036 224.022C36.5896 221.183 28.648 221.183 23.7655 224.022C18.8831 226.86 18.9089 231.462 23.8229 234.3C28.7376 237.139 36.6786 237.139 41.561 234.3C46.4434 231.462 46.4177 226.86 41.5036 224.022Z" fill="#E0E0E0"/>
<path d="M89.3282 1.97031L92.7768 0L92.9934 75.4198L92.9844 75.425L65.1823 91.3055L65.1713 87.3552L64.9663 15.8856L89.3282 1.97031Z" fill="#F0F0F0"/>
<path opacity="0.1" d="M89.5338 73.4392L89.3287 1.97031L92.7773 0L92.9939 75.4198L92.9849 75.425L89.5215 73.4463L89.5338 73.4392Z" fill="black"/>
<path opacity="0.2" d="M65.1713 87.3552L89.5209 73.4463L92.9843 75.425L65.1822 91.3054L65.1713 87.3552Z" fill="black"/>
<path d="M51.2828 23.6992L54.7314 21.7295L54.948 97.1493L54.939 97.1545L27.1369 113.034L27.1259 109.084L26.9209 37.6151L51.2828 23.6992Z" fill="#F0F0F0"/>
<path opacity="0.1" d="M51.4883 95.1687L51.2833 23.6992L54.7319 21.7295L54.9485 97.1493L54.9395 97.1545L51.4761 95.1758L51.4883 95.1687Z" fill="black"/>
<path opacity="0.2" d="M27.1257 109.084L51.4754 95.1758L54.9388 97.1545L27.1367 113.034L27.1257 109.084Z" fill="black"/>
<path d="M169.711 44.2982C169.499 44.0718 169.291 43.8409 169.085 43.6055C169.039 43.5533 168.995 43.4998 168.95 43.4469C168.611 43.0554 168.281 42.6536 167.96 42.2408C167.925 42.1957 167.891 42.1493 167.856 42.1041C167.6 41.772 167.352 41.434 167.109 41.0903C167.073 41.0399 167.036 40.9903 167.001 40.9393C166.767 40.6053 166.541 40.2654 166.319 39.9216C166.267 39.8391 166.214 39.7559 166.161 39.6727C165.983 39.3895 165.808 39.1038 165.637 38.8149C165.601 38.7536 165.564 38.6936 165.528 38.6324C165.336 38.3015 165.15 37.9668 164.97 37.6295C164.925 37.5456 164.882 37.4611 164.838 37.3773C164.697 37.1097 164.561 36.8407 164.428 36.5698C164.384 36.4795 164.339 36.3899 164.296 36.299C164.132 35.9558 163.974 35.6114 163.823 35.2645C163.801 35.2148 163.781 35.1639 163.76 35.1142C163.626 34.8027 163.499 34.4892 163.376 34.1752C163.339 34.081 163.303 33.9875 163.267 33.8933C163.126 33.5205 162.99 33.1458 162.865 32.7711C162.855 32.7408 162.846 32.7098 162.836 32.6795C162.708 32.2932 162.592 31.9056 162.482 31.5186C162.461 31.4445 162.439 31.3696 162.419 31.2955C162.296 30.8453 162.186 30.3958 162.089 29.9475C162.067 29.8489 162.046 29.7508 162.026 29.6528C161.989 29.4774 161.957 29.3026 161.924 29.1272C161.904 29.015 161.883 28.9027 161.864 28.7912C161.862 28.7808 161.861 28.7699 161.859 28.7596C161.828 28.5777 161.802 28.3971 161.777 28.2159C161.761 28.1082 161.745 28.0005 161.732 27.8927C161.683 27.5045 161.645 27.1195 161.618 26.7364C161.612 26.6545 161.608 26.5732 161.603 26.4919C161.58 26.0992 161.565 25.7077 161.566 25.3214C161.567 25.055 161.573 24.7931 161.586 24.5371C161.59 24.4397 161.6 24.3462 161.607 24.2501C161.617 24.0934 161.625 23.9347 161.64 23.7819C161.65 23.6832 161.664 23.589 161.675 23.4916C161.692 23.3465 161.706 23.1995 161.727 23.0576C161.742 22.9551 161.762 22.857 161.779 22.7564C161.801 22.6255 161.821 22.4926 161.847 22.3649C161.868 22.263 161.893 22.1656 161.915 22.065C161.942 21.9444 161.968 21.8212 161.998 21.7032C162.024 21.6039 162.055 21.5091 162.083 21.4117C162.116 21.2988 162.146 21.184 162.182 21.0744C162.213 20.9783 162.248 20.8867 162.282 20.7932C162.319 20.6881 162.354 20.5804 162.394 20.4785C162.43 20.3869 162.47 20.3005 162.508 20.2115C162.551 20.1121 162.592 20.0109 162.636 19.9154C162.677 19.8296 162.721 19.749 162.763 19.6652C162.811 19.5717 162.857 19.4756 162.907 19.3853C162.951 19.3053 163 19.2299 163.046 19.1525C163.099 19.0647 163.15 18.9745 163.205 18.89C163.254 18.8145 163.307 18.7442 163.358 18.6713C163.414 18.5901 163.47 18.5069 163.529 18.4288C163.583 18.3579 163.641 18.2927 163.696 18.2244C163.757 18.1502 163.816 18.0735 163.879 18.0025C163.937 17.9374 163.999 17.8768 164.059 17.8142C164.124 17.7465 164.187 17.6768 164.254 17.6123C164.318 17.5517 164.384 17.4962 164.448 17.4388C164.517 17.3782 164.583 17.3157 164.653 17.2583C164.72 17.2034 164.791 17.1538 164.86 17.1015C164.932 17.0474 165.002 16.9906 165.076 16.9397C165.147 16.8906 165.221 16.8474 165.293 16.8016C165.945 16.3889 166.667 16.0941 167.449 15.9277C165.998 17.5614 165.145 20.0457 165.136 23.2453C165.135 23.6316 165.151 24.0231 165.174 24.4159C165.178 24.4971 165.183 24.5784 165.189 24.6603C165.216 25.0434 165.253 25.4284 165.302 25.816C165.316 25.9237 165.332 26.0321 165.347 26.1404C165.373 26.321 165.399 26.5016 165.429 26.6828C165.449 26.8054 165.472 26.9279 165.494 27.0504C165.526 27.2259 165.559 27.4013 165.595 27.5767C165.615 27.6748 165.637 27.7734 165.659 27.8715C165.756 28.3197 165.865 28.7692 165.989 29.2188C166.009 29.2936 166.031 29.369 166.052 29.4438C166.162 29.8302 166.279 30.2165 166.406 30.6022C166.416 30.6325 166.425 30.6634 166.435 30.6937C166.56 31.0685 166.696 31.4425 166.837 31.8153C166.873 31.9095 166.909 32.0036 166.946 32.0978C167.069 32.4119 167.196 32.7253 167.33 33.0368C167.351 33.0865 167.371 33.1368 167.393 33.1865C167.544 33.5334 167.702 33.8785 167.867 34.2216C167.91 34.3119 167.954 34.4015 167.998 34.4912C168.131 34.7633 168.268 35.0336 168.41 35.3025C168.453 35.3851 168.495 35.4683 168.54 35.5508C168.72 35.8881 168.906 36.2229 169.098 36.5537C169.134 36.6156 169.172 36.6763 169.208 36.7382C169.378 37.0271 169.553 37.3128 169.732 37.5959C169.784 37.6785 169.836 37.761 169.889 37.843C170.11 38.1874 170.337 38.5279 170.571 38.8626C170.606 38.9129 170.643 38.9619 170.678 39.0116C170.921 39.3566 171.171 39.6952 171.427 40.028C171.462 40.0725 171.495 40.1183 171.53 40.1628C171.851 40.5762 172.182 40.978 172.521 41.3702C172.566 41.4224 172.611 41.4759 172.656 41.5275C172.863 41.7642 173.073 41.9977 173.286 42.226C173.299 42.2395 173.311 42.2537 173.324 42.2673C173.55 42.5085 173.779 42.7426 174.012 42.9735C174.061 43.0219 174.111 43.0683 174.16 43.1167C174.462 43.4121 174.769 43.6984 175.08 43.9744C175.109 44.0002 175.137 44.0267 175.166 44.0518C175.489 44.335 175.817 44.6046 176.149 44.8658C176.213 44.9154 176.276 44.9657 176.34 45.0147C176.666 45.2663 176.997 45.5075 177.332 45.7358C177.391 45.7764 177.451 45.8151 177.511 45.8551C177.862 46.0892 178.215 46.3143 178.573 46.5207C178.86 46.6864 179.144 46.8367 179.427 46.9799C179.509 47.0212 179.59 47.0599 179.671 47.0992C179.887 47.2037 180.101 47.3011 180.313 47.392C180.388 47.4243 180.465 47.4591 180.541 47.49C180.74 47.5719 180.938 47.6461 181.135 47.7164C181.184 47.7338 181.234 47.7545 181.283 47.7712C181.528 47.8551 181.77 47.9292 182.01 47.9957C182.152 48.035 182.293 48.0679 182.433 48.1008C182.497 48.1163 182.562 48.1343 182.627 48.1479C182.832 48.1917 183.036 48.2304 183.236 48.2607C183.542 48.3078 183.841 48.3343 184.137 48.351C184.197 48.3543 184.257 48.3588 184.316 48.3607C184.581 48.3704 184.841 48.3691 185.097 48.3543C185.141 48.3517 185.184 48.3459 185.229 48.3427C185.435 48.3272 185.638 48.3027 185.838 48.2711C185.901 48.2614 185.963 48.2517 186.024 48.2401C186.091 48.2279 186.154 48.2085 186.22 48.195C185.729 48.7496 185.169 49.2075 184.549 49.5616C184.547 49.5629 184.546 49.5635 184.544 49.5648C184.521 49.5777 184.497 49.588 184.475 49.6003C184.461 49.6067 184.447 49.6132 184.434 49.6203C184.272 49.7086 184.106 49.7893 183.936 49.8634C183.932 49.8654 183.929 49.8667 183.925 49.8686C183.868 49.8937 183.811 49.9176 183.752 49.9408C183.575 50.0118 183.394 50.0756 183.21 50.1324C183.175 50.1427 183.143 50.1549 183.108 50.1653C182.895 50.2265 182.676 50.2749 182.453 50.3162C182.449 50.3168 182.444 50.3181 182.439 50.3194C182.382 50.3297 182.323 50.3381 182.265 50.3471C182.069 50.3781 181.871 50.4013 181.668 50.4168C181.616 50.4207 181.565 50.4265 181.512 50.4297C181.261 50.4439 181.005 50.4452 180.745 50.4361C180.741 50.4361 180.737 50.4361 180.733 50.4361C180.679 50.4342 180.622 50.4297 180.568 50.4265C180.567 50.4265 180.566 50.4265 180.566 50.4265C180.424 50.4187 180.281 50.4078 180.137 50.3942C179.976 50.3775 179.815 50.3594 179.651 50.3336C179.548 50.3175 179.443 50.2955 179.339 50.2756C179.24 50.2568 179.142 50.2414 179.042 50.2194C178.982 50.2059 178.922 50.1898 178.862 50.1756C178.844 50.1711 178.826 50.1666 178.808 50.1627C178.682 50.1324 178.557 50.1034 178.43 50.0679C178.193 50.0027 177.954 49.9292 177.712 49.8467C177.663 49.8299 177.613 49.8093 177.564 49.7918C177.367 49.7215 177.169 49.6474 176.969 49.5655C176.968 49.5648 176.966 49.5642 176.963 49.5629C176.891 49.5332 176.817 49.5003 176.745 49.4687C176.744 49.4681 176.743 49.4674 176.743 49.4674C176.53 49.3765 176.316 49.2785 176.1 49.174C176.053 49.1514 176.006 49.1282 175.96 49.105C175.925 49.0876 175.891 49.0714 175.856 49.054C175.574 48.9115 175.289 48.7612 175.002 48.5955C174.645 48.3891 174.291 48.164 173.941 47.9299C173.924 47.9189 173.908 47.9086 173.893 47.8983C173.849 47.8693 173.805 47.8409 173.762 47.8112C173.427 47.5829 173.097 47.3423 172.77 47.0902C172.728 47.0579 172.687 47.0257 172.646 46.9928C172.624 46.9754 172.602 46.9586 172.58 46.9412C172.248 46.68 171.92 46.4104 171.597 46.1273C171.579 46.1118 171.562 46.0957 171.544 46.0795C171.533 46.0699 171.522 46.0595 171.511 46.0492C171.2 45.7738 170.894 45.4875 170.593 45.1927C170.543 45.1444 170.493 45.0973 170.443 45.0483C170.211 44.818 169.981 44.5839 169.756 44.3434C169.739 44.3305 169.725 44.3143 169.711 44.2982Z" fill="#EBEBEB"/>
<path d="M185.997 36.9419L185.994 37.7713L188.334 39.1218L188.337 38.2924L185.997 36.9419Z" fill="white"/>
<path d="M167.072 19.4492L166.711 19.9561L168.736 22.4734L169.097 21.9632L167.072 19.4492Z" fill="white"/>
<path d="M190.315 39.8526C190.291 48.4084 184.235 51.8569 176.792 47.5584C169.349 43.2592 163.331 32.8382 163.356 24.2823C163.38 15.7226 169.436 12.2741 176.879 16.5727C184.323 20.8719 190.34 31.2929 190.315 39.8526ZM170.746 31.5857C170.804 31.7753 170.936 31.9449 171.075 32.0255C171.123 32.0533 171.172 32.0707 171.218 32.0746L176.943 32.5234C177.032 32.5421 177.112 32.5151 177.156 32.4389L180.904 26.0888C180.991 25.9347 180.921 25.6445 180.744 25.4374C180.692 25.3787 180.638 25.3336 180.585 25.3026C180.453 25.2265 180.326 25.2369 180.262 25.3452L176.576 31.5967L170.936 31.151C170.753 31.1394 170.669 31.3322 170.746 31.5857ZM181.752 25.9792L182.929 24.3243L182.307 23.551L181.129 25.2059L181.752 25.9792ZM182.241 46.8612L182.866 46.809L181.702 43.8009L181.077 43.8532L182.241 46.8612ZM167.034 33.3857L169.066 33.2109L168.709 32.2861L166.677 32.4609L167.034 33.3857ZM186.599 44.6858L186.96 44.1756L184.935 41.6584L184.574 42.1686L186.599 44.6858ZM167.073 19.4491L166.712 19.9554L168.737 22.4726L169.098 21.9625L167.073 19.4491ZM184.963 31.845L186.995 31.6702L186.638 30.7485L184.606 30.9195L184.963 31.845ZM171.428 17.2673L170.806 17.3214L171.97 20.3295L172.592 20.2753L171.428 17.2673ZM171.362 40.5782L172.54 38.9232L171.92 38.1519L170.742 39.8068L171.362 40.5782ZM167.674 27.1891L167.676 26.3597L165.334 25.0073L165.331 25.8367L167.674 27.1891ZM188.337 38.2925L185.998 36.942L185.996 37.7714L188.335 39.1219L188.337 38.2925ZM176.44 45.0786L177.158 45.4933L177.166 42.8013L176.448 42.3866L176.44 45.0786ZM177.233 19.0518L176.515 18.6371L176.507 21.3291L177.225 21.7438L177.233 19.0518Z" fill="#E0E0E0"/>
<path d="M176.514 18.6372L176.507 21.3292L177.225 21.7446L177.233 19.0519L176.514 18.6372Z" fill="white"/>
<path d="M182.306 23.5508L181.128 25.2057L181.751 25.979L182.93 24.3241L182.306 23.5508Z" fill="white"/>
<path d="M186.635 30.7485L184.603 30.9194L184.96 31.8449L186.993 31.6702L186.635 30.7485Z" fill="white"/>
<path d="M184.934 41.6577L184.573 42.1679L186.598 44.6857L186.96 44.1749L184.934 41.6577Z" fill="white"/>
<path d="M181.701 43.8018L181.076 43.854L182.24 46.8614L182.866 46.8098L181.701 43.8018Z" fill="white"/>
<path d="M176.445 42.3867L176.438 45.0787L177.157 45.4941L177.164 42.8014L176.445 42.3867Z" fill="white"/>
<path d="M171.917 38.1519L170.739 39.8068L171.36 40.5781L172.538 38.9232L171.917 38.1519Z" fill="white"/>
<path d="M168.707 32.2861L166.674 32.4609L167.031 33.3858L169.064 33.2116L168.707 32.2861Z" fill="white"/>
<path d="M165.333 25.0073L165.331 25.8367L167.673 27.1892L167.676 26.3598L165.333 25.0073Z" fill="white"/>
<path d="M171.426 17.2676L170.804 17.3218L171.968 20.3298L172.591 20.2756L171.426 17.2676Z" fill="white"/>
<path d="M176.838 31.6538C176.79 31.6261 176.741 31.6093 176.694 31.6061L176.575 31.597L170.935 31.1514C170.754 31.1398 170.669 31.3326 170.746 31.5861C170.804 31.7757 170.936 31.9453 171.076 32.0259C171.124 32.0537 171.173 32.0711 171.218 32.0749L176.943 32.5232L176.978 32.5258C177.159 32.5412 177.244 32.3477 177.168 32.0911C177.106 31.9021 176.976 31.7331 176.838 31.6538Z" fill="white"/>
<path d="M180.581 25.3027C180.45 25.2266 180.323 25.2369 180.258 25.3453L176.573 31.5967L176.692 31.6058C176.739 31.609 176.788 31.6258 176.836 31.6535C176.973 31.7328 177.104 31.9018 177.164 32.0908C177.24 32.3475 177.156 32.5409 176.974 32.5255L176.939 32.5229C177.028 32.5416 177.108 32.5145 177.153 32.439L180.9 26.0889C180.988 25.9348 180.918 25.6446 180.74 25.4375C180.69 25.3788 180.635 25.333 180.581 25.3027Z" fill="#F5F5F5"/>
<path d="M186.062 50.4004C186.134 50.3456 186.208 50.2934 186.279 50.236C186.356 50.1728 186.429 50.1038 186.504 50.0373C186.573 49.9761 186.644 49.9167 186.71 49.8529C186.783 49.7832 186.852 49.7078 186.921 49.6342C186.986 49.5665 187.053 49.5014 187.116 49.4304C187.184 49.3543 187.247 49.2718 187.313 49.1918C187.374 49.1176 187.436 49.0467 187.495 48.9699C187.558 48.8868 187.617 48.7984 187.677 48.712C187.734 48.632 187.792 48.5546 187.846 48.4721C187.904 48.3818 187.959 48.2863 188.015 48.1928C188.066 48.1077 188.119 48.0251 188.167 47.9367C188.221 47.84 188.271 47.7368 188.321 47.6362C188.367 47.5453 188.416 47.4576 188.459 47.364C188.508 47.2596 188.552 47.1499 188.598 47.0422C188.639 46.9468 188.682 46.8539 188.721 46.7552C188.764 46.643 188.803 46.5256 188.844 46.4102C188.88 46.3102 188.918 46.2128 188.951 46.1103C188.989 45.9916 189.022 45.8678 189.057 45.7459C189.087 45.6407 189.12 45.5382 189.148 45.4305C189.18 45.3054 189.207 45.1751 189.236 45.0468C189.261 44.9365 189.289 44.8288 189.312 44.7159C189.339 44.5798 189.361 44.4379 189.384 44.2986C189.403 44.1877 189.425 44.08 189.441 43.9671C189.465 43.8104 189.481 43.6472 189.499 43.4866C189.511 43.3854 189.526 43.288 189.535 43.1854C189.553 43.0061 189.563 42.821 189.575 42.6366C189.581 42.5469 189.59 42.4605 189.594 42.3696C189.607 42.0923 189.615 41.8098 189.615 41.5215C189.617 41.1036 189.6 40.6798 189.575 40.2542C189.573 40.2271 189.572 40.2006 189.57 40.1735C189.54 39.6989 189.497 39.2216 189.436 38.7405C189.429 38.6876 189.421 38.6347 189.414 38.5818C189.379 38.3226 189.341 38.0633 189.298 37.8027C189.276 37.6712 189.252 37.539 189.229 37.4074V37.4067C189.194 37.2165 189.158 37.0262 189.119 36.8353C189.113 36.8037 189.105 36.7715 189.098 36.7399C188.877 35.6809 188.59 34.6154 188.24 33.5538C188.24 33.5532 188.239 33.5525 188.239 33.5513C187.781 32.1653 187.216 30.7877 186.563 29.4423C186.549 29.4133 186.534 29.3843 186.52 29.3559C186.151 28.6013 185.756 27.8564 185.333 27.1276C185.293 27.0599 185.252 26.9928 185.212 26.9257C185.021 26.6007 184.823 26.2782 184.622 25.9596C184.574 25.8835 184.527 25.8081 184.478 25.7326C183.928 24.8774 183.343 24.0486 182.727 23.2541C182.72 23.245 182.712 23.2354 182.705 23.2263C182.098 22.4453 181.462 21.6965 180.8 20.9884C180.8 20.9884 180.8 20.9884 180.799 20.9877C180.797 20.9858 180.796 20.9845 180.794 20.9826C180.541 20.7117 180.284 20.4479 180.023 20.1899C179.982 20.1493 179.94 20.1093 179.898 20.0687C179.56 19.7372 179.216 19.4147 178.867 19.1058L178.866 19.1051C178.853 19.0935 178.84 19.0819 178.827 19.0703C178.462 18.7478 178.09 18.4402 177.713 18.1442C177.646 18.0906 177.577 18.0371 177.509 17.9842C177.509 17.9842 177.509 17.9842 177.508 17.9842C177.155 17.7121 176.798 17.4522 176.436 17.2051C176.421 17.1955 176.407 17.1858 176.392 17.1761C176.163 17.02 175.932 16.8691 175.7 16.724C175.499 16.5976 175.298 16.4744 175.095 16.357C174.785 16.1777 174.477 16.0152 174.172 15.8611C174.164 15.8566 174.155 15.8527 174.146 15.8488C173.2 15.3729 172.278 15.011 171.389 14.766C171.386 14.7653 171.383 14.764 171.38 14.7634C171.295 14.7395 171.211 14.7208 171.126 14.7002C170.993 14.6666 170.859 14.6305 170.728 14.6021C170.723 14.6009 170.719 14.5996 170.714 14.5989C170.621 14.5789 170.529 14.5654 170.436 14.5473C170.313 14.5241 170.189 14.4977 170.067 14.4783C170.062 14.4777 170.059 14.4764 170.054 14.4757C170.047 14.4744 170.04 14.4738 170.032 14.4732C169.941 14.459 169.85 14.4512 169.76 14.4403C169.6 14.4203 169.44 14.4022 169.282 14.39C169.269 14.3893 169.258 14.388 169.246 14.3874C169.196 14.3835 169.148 14.3822 169.098 14.3796C168.744 14.359 168.397 14.3558 168.058 14.3751C168.054 14.3751 168.048 14.3751 168.044 14.3751C167.996 14.3777 167.949 14.3842 167.901 14.388C167.898 14.388 167.894 14.3893 167.891 14.3893C167.672 14.4061 167.456 14.4312 167.244 14.4648C167.243 14.4648 167.242 14.4648 167.242 14.4648C167.239 14.4654 167.235 14.4661 167.232 14.4667C166.925 14.5157 166.624 14.5783 166.333 14.6615C166.326 14.6634 166.32 14.6641 166.313 14.666C166.302 14.6692 166.292 14.6737 166.281 14.677C166.262 14.6828 166.244 14.6905 166.226 14.6963C166.025 14.7569 165.829 14.8266 165.637 14.904C165.633 14.9059 165.629 14.9066 165.624 14.9085C165.594 14.9207 165.565 14.9336 165.535 14.9465C165.266 15.0594 165.004 15.1839 164.753 15.329C164.744 15.3335 164.735 15.338 164.727 15.3425L168.298 13.2665C168.324 13.251 168.351 13.2355 168.378 13.2207C168.408 13.2033 168.442 13.191 168.472 13.1742C168.647 13.0794 168.826 12.9917 169.009 12.9117C169.043 12.8969 169.075 12.8769 169.109 12.8627C169.137 12.8511 169.167 12.8434 169.195 12.8324C169.409 12.746 169.627 12.6673 169.851 12.6009C169.861 12.5983 169.869 12.5938 169.879 12.5912C169.881 12.5906 169.883 12.5906 169.884 12.5899C170.121 12.5216 170.364 12.468 170.612 12.4222C170.641 12.4171 170.668 12.4074 170.697 12.4029C170.735 12.3964 170.776 12.3951 170.814 12.3893C171.03 12.3552 171.249 12.3294 171.472 12.3126C171.507 12.31 171.541 12.3023 171.577 12.3003C171.589 12.2997 171.602 12.3003 171.615 12.3003C171.891 12.2842 172.173 12.2829 172.459 12.2932C172.487 12.2939 172.514 12.2913 172.541 12.2926C172.632 12.2965 172.725 12.3061 172.816 12.3126C172.881 12.3171 172.946 12.321 173.011 12.3268C173.207 12.3448 173.404 12.3681 173.603 12.3984C173.61 12.3997 173.617 12.4003 173.625 12.4009C173.626 12.4009 173.627 12.4009 173.628 12.4009C173.845 12.4345 174.064 12.4758 174.285 12.5235C174.354 12.5383 174.425 12.5577 174.494 12.5744C174.632 12.6067 174.77 12.6376 174.91 12.6757C174.924 12.6796 174.937 12.6847 174.951 12.6879C175.21 12.7595 175.472 12.8395 175.737 12.9304C175.79 12.9485 175.844 12.9711 175.898 12.9904C176.111 13.0659 176.325 13.1465 176.541 13.2349C176.569 13.2465 176.597 13.2555 176.626 13.2671C176.679 13.289 176.733 13.3174 176.786 13.34C177.016 13.4387 177.247 13.5438 177.48 13.6573C177.568 13.6999 177.655 13.7418 177.744 13.7863C178.049 13.9411 178.357 14.1036 178.667 14.2829C179.054 14.506 179.435 14.7492 179.814 15.0027C179.879 15.0459 179.944 15.0878 180.009 15.1316C180.37 15.3787 180.727 15.6386 181.081 15.9107C181.15 15.9636 181.217 16.0178 181.286 16.0713C181.645 16.3538 182 16.6453 182.349 16.9517C182.379 16.9781 182.409 17.0065 182.439 17.0329C182.776 17.3315 183.108 17.6418 183.435 17.9617C183.468 17.9939 183.502 18.0223 183.535 18.0545C183.556 18.0745 183.575 18.0965 183.596 18.1164C183.847 18.3654 184.095 18.6189 184.339 18.8794C184.351 18.8923 184.364 18.9065 184.376 18.9194C184.608 19.1677 184.836 19.4212 185.062 19.6785C185.083 19.703 185.106 19.7262 185.127 19.7501C185.154 19.7817 185.179 19.8159 185.207 19.8475C185.573 20.2718 185.932 20.7059 186.279 21.1528C186.289 21.1657 186.3 21.1774 186.309 21.1903C186.336 21.2244 186.36 21.2612 186.387 21.2954C186.663 21.6553 186.933 22.0216 187.196 22.3937C187.224 22.4318 187.252 22.4672 187.279 22.5053C187.291 22.5234 187.303 22.5414 187.315 22.5595C187.567 22.9206 187.812 23.2876 188.051 23.6591C188.074 23.6946 188.099 23.7288 188.122 23.7642C188.156 23.8178 188.187 23.8732 188.221 23.9274C188.414 24.2325 188.602 24.5401 188.785 24.851C188.814 24.9 188.846 24.9477 188.874 24.9967C188.885 25.0154 188.895 25.0348 188.906 25.0535C189.113 25.4108 189.314 25.7726 189.509 26.137C189.525 26.1666 189.542 26.195 189.557 26.224C189.589 26.284 189.618 26.3453 189.65 26.4059C189.802 26.6961 189.949 26.9877 190.093 27.2818C190.123 27.343 190.156 27.403 190.185 27.4636C190.203 27.5004 190.219 27.5378 190.236 27.5752C190.414 27.9467 190.586 28.3201 190.749 28.6961C190.754 28.7071 190.76 28.718 190.764 28.729C190.781 28.7677 190.795 28.807 190.812 28.8457C190.958 29.1863 191.098 29.5287 191.232 29.8718C191.254 29.9267 191.278 29.9815 191.299 30.037C191.317 30.0834 191.332 30.1305 191.35 30.1769C191.503 30.5806 191.65 30.985 191.785 31.3907C191.787 31.3984 191.791 31.4055 191.793 31.4133C191.801 31.4365 191.807 31.4597 191.815 31.4836C191.953 31.9028 192.08 32.322 192.199 32.7419C192.214 32.7947 192.232 32.847 192.247 32.8992C192.255 32.9282 192.26 32.9573 192.268 32.9863C192.401 33.4726 192.519 33.9589 192.625 34.4439C192.634 34.4871 192.648 34.5303 192.657 34.5729C192.67 34.6361 192.68 34.6993 192.693 34.7625C192.733 34.9534 192.769 35.1436 192.804 35.3339C192.827 35.4661 192.852 35.5983 192.874 35.7299C192.907 35.9266 192.935 36.1227 192.963 36.3187C192.976 36.4103 192.992 36.5032 193.005 36.5948C193.008 36.6193 193.009 36.6425 193.012 36.667C193.065 37.0868 193.105 37.5041 193.134 37.9188C193.141 38.0065 193.145 38.0942 193.15 38.182C193.176 38.6076 193.192 39.0307 193.191 39.4493C193.178 44.0439 191.557 47.2776 188.941 48.7977L185.37 50.8738C185.447 50.8287 185.521 50.7771 185.597 50.7294C185.673 50.681 185.751 50.6352 185.825 50.5836C185.904 50.5236 185.982 50.4611 186.062 50.4004Z" fill="#EBEBEB"/>
<path d="M160.473 24.6896C160.447 33.9374 166.95 45.2059 174.998 49.854C179.166 52.2616 182.927 52.4158 185.591 50.7254C185.667 50.677 185.746 50.6312 185.82 50.5796C185.902 50.5228 185.98 50.4603 186.06 50.4003C186.132 50.3455 186.206 50.2932 186.277 50.2358C186.355 50.1726 186.428 50.1036 186.502 50.0372C186.571 49.9759 186.642 49.9166 186.709 49.8527C186.781 49.7831 186.85 49.7076 186.92 49.6341C186.985 49.5664 187.051 49.5013 187.114 49.4303C187.182 49.3542 187.246 49.2717 187.312 49.1917C187.372 49.1175 187.435 49.0466 187.493 48.9698C187.557 48.8866 187.615 48.7983 187.676 48.7118C187.732 48.6319 187.79 48.5545 187.844 48.4719C187.903 48.3816 187.957 48.2862 188.013 48.1927C188.064 48.1075 188.117 48.025 188.166 47.9366C188.219 47.8399 188.269 47.7367 188.32 47.6361C188.366 47.5451 188.414 47.4574 188.458 47.3639C188.507 47.2594 188.551 47.1498 188.596 47.0421C188.637 46.9466 188.68 46.8538 188.719 46.7551C188.763 46.6429 188.801 46.5255 188.843 46.41C188.878 46.3101 188.916 46.2127 188.949 46.1101C188.987 45.9915 189.02 45.8676 189.055 45.7457C189.086 45.6406 189.119 45.5381 189.146 45.4304C189.179 45.3052 189.206 45.175 189.235 45.0466C189.26 44.9363 189.288 44.8286 189.31 44.7158C189.337 44.5797 189.359 44.4378 189.382 44.2985C189.401 44.1876 189.423 44.0798 189.44 43.967C189.463 43.8103 189.479 43.6471 189.498 43.4865C189.509 43.3852 189.524 43.2879 189.534 43.1853C189.551 43.006 189.562 42.8209 189.573 42.6365C189.579 42.5468 189.588 42.4604 189.593 42.3695C189.605 42.0921 189.613 41.8096 189.614 41.5214C189.615 41.1034 189.598 40.6797 189.573 40.254C189.571 40.2269 189.57 40.2005 189.568 40.1734C189.538 39.6987 189.495 39.2215 189.434 38.7403C189.427 38.6875 189.419 38.6346 189.412 38.5811C189.378 38.3218 189.34 38.0625 189.297 37.802C189.275 37.6704 189.25 37.5382 189.226 37.406C189.192 37.2157 189.155 37.0254 189.117 36.8345C189.11 36.8029 189.103 36.7707 189.096 36.7391C188.875 35.6801 188.588 34.6146 188.237 33.5531C188.237 33.5531 188.237 33.5518 188.237 33.5505C187.778 32.1645 187.214 30.7869 186.56 29.4415C186.546 29.4125 186.532 29.3835 186.518 29.3545C186.148 28.5999 185.753 27.855 185.33 27.1262C185.291 27.0585 185.25 26.9914 185.209 26.9237C185.018 26.5986 184.82 26.2768 184.619 25.9582C184.571 25.8827 184.524 25.8066 184.475 25.7312C183.925 24.876 183.34 24.0472 182.724 23.2526C182.717 23.2436 182.71 23.2339 182.702 23.2249C182.095 22.4439 181.459 21.6951 180.797 20.987C180.795 20.985 180.793 20.9831 180.791 20.9812C180.538 20.7103 180.281 20.4465 180.02 20.1885C179.979 20.1472 179.937 20.1079 179.895 20.0673C179.557 19.7358 179.213 19.4133 178.864 19.1044C178.851 19.0928 178.838 19.0805 178.824 19.0689C178.459 18.7464 178.087 18.4388 177.71 18.1428C177.642 18.0892 177.574 18.035 177.505 17.9822C177.152 17.71 176.795 17.4501 176.433 17.2031C176.418 17.1934 176.404 17.1837 176.389 17.174C176.16 17.018 175.929 16.8671 175.697 16.7219C175.496 16.5968 175.295 16.4723 175.092 16.355C174.782 16.1757 174.475 16.0131 174.169 15.859C174.161 15.8545 174.152 15.8506 174.143 15.8461C173.197 15.3701 172.275 15.0083 171.386 14.7632C171.298 14.7387 171.211 14.7194 171.123 14.6975C170.99 14.6639 170.856 14.6278 170.725 14.5994C170.627 14.5781 170.531 14.5633 170.434 14.5446C170.311 14.5214 170.187 14.4949 170.065 14.4756C169.961 14.4595 169.86 14.4504 169.758 14.4375C169.597 14.4176 169.437 14.3995 169.279 14.3872C169.218 14.3827 169.157 14.3801 169.096 14.3763C168.742 14.3556 168.394 14.3524 168.056 14.3718C168 14.375 167.945 14.3814 167.889 14.386C167.67 14.4027 167.454 14.4279 167.241 14.4614C167.237 14.4621 167.233 14.4627 167.229 14.4633C166.922 14.5124 166.621 14.5749 166.33 14.6581C166.294 14.6684 166.259 14.682 166.223 14.6929C166.022 14.7536 165.826 14.8232 165.634 14.9006C165.6 14.9142 165.567 14.929 165.532 14.9432C165.263 15.056 165.001 15.1805 164.75 15.3256C162.119 16.84 160.486 20.0789 160.473 24.6896ZM169.755 44.3456C169.74 44.3301 169.726 44.314 169.711 44.2985C169.5 44.0721 169.292 43.8412 169.086 43.6058C169.04 43.5536 168.996 43.5 168.951 43.4472C168.612 43.0557 168.281 42.6539 167.96 42.2411C167.926 42.196 167.891 42.1495 167.857 42.1044C167.601 41.7722 167.352 41.4343 167.109 41.0899C167.073 41.0396 167.036 40.9899 167.001 40.939C166.768 40.6049 166.541 40.265 166.32 39.9206C166.267 39.838 166.214 39.7548 166.162 39.6716C165.983 39.3885 165.808 39.1028 165.637 38.8139C165.601 38.7526 165.565 38.6926 165.528 38.6314C165.336 38.3005 165.15 37.9658 164.97 37.6285C164.925 37.5446 164.882 37.4601 164.837 37.3763C164.697 37.1086 164.561 36.8391 164.428 36.5688C164.383 36.4785 164.339 36.3889 164.296 36.2979C164.132 35.9548 163.973 35.6104 163.823 35.2635C163.801 35.2138 163.781 35.1628 163.759 35.1132C163.626 34.8017 163.498 34.4882 163.376 34.1741C163.339 34.08 163.303 33.9865 163.267 33.8923C163.126 33.5189 162.99 33.1455 162.865 32.7701C162.854 32.7398 162.845 32.7088 162.836 32.6785C162.708 32.2922 162.591 31.9046 162.482 31.5176C162.46 31.4434 162.438 31.3693 162.418 31.2951C162.295 30.8449 162.186 30.3954 162.088 29.9472C162.066 29.8485 162.044 29.7505 162.024 29.6524C161.988 29.477 161.955 29.3022 161.923 29.1268C161.903 29.0146 161.882 28.9024 161.863 28.7908C161.831 28.5986 161.803 28.407 161.776 28.2155C161.76 28.1078 161.744 28.0001 161.73 27.8924C161.681 27.5041 161.644 27.1191 161.617 26.736C161.611 26.6541 161.607 26.5728 161.602 26.4916C161.579 26.0988 161.563 25.7073 161.565 25.321C161.565 25.0546 161.572 24.7928 161.585 24.5367C161.589 24.4394 161.599 24.3458 161.605 24.2497C161.616 24.093 161.624 23.9344 161.639 23.7815C161.649 23.6828 161.663 23.5887 161.674 23.4913C161.69 23.3462 161.705 23.1991 161.726 23.0572C161.741 22.9547 161.761 22.8567 161.778 22.756C161.8 22.6251 161.82 22.4923 161.846 22.3646C161.866 22.2627 161.892 22.1653 161.914 22.0647C161.941 21.9441 161.967 21.8209 161.997 21.7029C162.023 21.6035 162.053 21.5087 162.082 21.4113C162.115 21.2985 162.145 21.1837 162.18 21.074C162.211 20.9779 162.247 20.8863 162.28 20.7928C162.318 20.6877 162.353 20.58 162.393 20.4781C162.429 20.3865 162.469 20.3001 162.507 20.2111C162.55 20.1118 162.591 20.0105 162.635 19.9151C162.676 19.8293 162.719 19.7487 162.762 19.6648C162.81 19.5713 162.855 19.4752 162.906 19.3849C162.95 19.3049 162.999 19.2295 163.045 19.1521C163.098 19.0644 163.149 18.9741 163.204 18.8896C163.253 18.8141 163.305 18.7438 163.356 18.671C163.413 18.5897 163.469 18.5065 163.528 18.4285C163.581 18.3575 163.639 18.2917 163.695 18.224C163.756 18.1498 163.815 18.0731 163.878 18.0022C163.936 17.937 163.998 17.8764 164.058 17.8138C164.123 17.7461 164.186 17.6765 164.253 17.612C164.316 17.5513 164.383 17.4959 164.447 17.4385C164.516 17.3778 164.582 17.3153 164.652 17.2579C164.719 17.2031 164.79 17.1534 164.859 17.1012C164.931 17.047 165.001 16.9902 165.075 16.9393C165.146 16.8903 165.22 16.8471 165.292 16.8013C165.944 16.3885 166.666 16.0938 167.448 15.9274C169.623 15.4637 172.254 15.9745 175.088 17.6113C182.531 21.9105 188.547 32.3315 188.524 40.8912C188.515 44.0831 187.665 46.5635 186.219 48.1965C185.727 48.7512 185.167 49.2091 184.547 49.5632C184.545 49.5645 184.544 49.5651 184.542 49.5664C184.519 49.5793 184.495 49.5896 184.473 49.6019C184.295 49.7005 184.111 49.7889 183.924 49.8708C183.866 49.896 183.809 49.9198 183.75 49.943C183.573 50.014 183.392 50.0785 183.208 50.1346C183.174 50.1449 183.141 50.1572 183.107 50.1675C182.889 50.23 182.665 50.2803 182.437 50.3216C182.38 50.3319 182.321 50.3403 182.263 50.3493C182.067 50.3803 181.869 50.4035 181.666 50.419C181.614 50.4229 181.563 50.4287 181.51 50.4319C181.256 50.4461 180.996 50.448 180.732 50.4384C180.677 50.4364 180.621 50.4319 180.566 50.4287C180.423 50.4209 180.28 50.4113 180.135 50.3964C179.975 50.3797 179.813 50.3616 179.649 50.3358C179.546 50.3197 179.441 50.2971 179.337 50.2778C179.238 50.2591 179.14 50.2436 179.04 50.2217C178.963 50.2049 178.884 50.1836 178.806 50.1643C178.68 50.1339 178.555 50.1049 178.428 50.0694C177.949 49.9372 177.459 49.7683 176.961 49.5645C176.888 49.5348 176.815 49.5019 176.743 49.4703C176.483 49.3587 176.221 49.2375 175.957 49.1065C175.922 49.0891 175.888 49.073 175.853 49.0556C175.571 48.9131 175.286 48.7628 174.999 48.597C174.642 48.3907 174.288 48.1656 173.938 47.9315C173.921 47.9205 173.905 47.9102 173.89 47.8999C173.468 47.6167 173.052 47.3142 172.643 46.995C172.621 46.9776 172.599 46.9608 172.577 46.9434C172.227 46.668 171.882 46.3817 171.541 46.0818C171.53 46.0721 171.519 46.0618 171.508 46.0514C171.197 45.7761 170.891 45.4897 170.59 45.195C170.54 45.1466 170.49 45.0995 170.44 45.0505C170.21 44.8202 169.98 44.5861 169.755 44.3456Z" fill="white"/>
<path d="M262.972 73.8231L262.93 88.8883L261.104 89.9493L261.152 72.7725L262.972 73.8231Z" fill="#F0F0F0"/>
<path d="M282.634 100.269L282.628 102.381L261.104 89.9496L262.929 88.8887L282.634 100.269Z" fill="#F5F5F5"/>
<path d="M258.892 91.2114L284.827 106.19L284.89 83.9461L258.955 68.9673L258.892 91.2114ZM261.104 89.9493L261.154 72.7725L262.973 73.8231L282.678 85.2038L282.635 100.269L282.63 102.381L261.104 89.9493Z" fill="#E0E0E0"/>
<path d="M258.954 68.9667L260.78 67.9058L286.715 82.8852L284.89 83.9462L258.954 68.9667Z" fill="#F5F5F5"/>
<path d="M286.715 82.8853L286.652 105.129L284.826 106.19L284.889 83.9462L286.715 82.8853Z" fill="#F0F0F0"/>
<path d="M269.234 79.543L263.86 83.7757L263.848 87.9105L281.721 98.2335L281.733 94.0987L278.327 87.3307L275.268 89.706L276.349 93.0675L274.78 90.0827L269.234 79.543Z" fill="#E0E0E0"/>
<path d="M275.104 81.6273C274.262 81.1417 273.578 81.5318 273.576 82.4986C273.573 83.4654 274.253 84.6437 275.094 85.1293C275.935 85.615 276.62 85.2248 276.623 84.258C276.625 83.2913 275.945 82.1129 275.104 81.6273Z" fill="#E0E0E0"/>
<path d="M263.743 43.2952L263.7 58.3605L261.875 59.4214L261.923 42.2446L263.743 43.2952Z" fill="#F0F0F0"/>
<path d="M283.404 69.7415L283.399 71.8531L261.875 59.4218L263.7 58.3608L283.404 69.7415Z" fill="#F5F5F5"/>
<path d="M259.661 60.6831L285.596 75.6619L285.659 53.4178L259.724 38.439L259.661 60.6831ZM261.874 59.4216L261.923 42.2441L263.742 43.2948L283.447 54.6754L283.404 69.7407L283.398 71.8522L261.874 59.4216Z" fill="#E0E0E0"/>
<path d="M259.723 38.4389L261.548 37.3779L287.483 52.3574L285.658 53.4183L259.723 38.4389Z" fill="#F5F5F5"/>
<path d="M287.485 52.3574L287.423 74.6009L285.597 75.6619L285.659 53.4184L287.485 52.3574Z" fill="#F0F0F0"/>
<path d="M270.004 49.0146L264.63 53.2474L264.618 57.3822L282.491 67.7051L282.503 63.5704L279.097 56.8024L276.038 59.1777L277.12 62.5391L275.55 59.5543L270.004 49.0146Z" fill="#E0E0E0"/>
<path d="M275.876 51.0995C275.035 50.6138 274.351 51.004 274.348 51.9708C274.345 52.9376 275.025 54.1159 275.866 54.6015C276.707 55.0872 277.391 54.697 277.394 53.7302C277.397 52.7628 276.718 51.5851 275.876 51.0995Z" fill="#E0E0E0"/>
<path d="M209.073 25.9445L247.672 48.2751C248.355 48.6666 248.897 49.2335 249.271 49.8959C249.626 50.5273 249.828 51.2464 249.828 51.9964V90.824C249.828 93.7037 246.568 96.1532 243.349 94.3132L227.204 84.7416L226.858 85.3007C226.844 85.3246 226.821 85.3349 226.801 85.3517L226.805 85.3594C226.792 85.3678 226.776 85.3775 226.763 85.3865C226.759 85.3884 226.756 85.3917 226.752 85.3936C226.123 85.8096 225.018 86.4029 224.769 86.5313L224.775 86.5152C224.661 86.5474 224.529 86.5003 224.483 86.3713L223.077 82.3837L204.754 72.0349C203.418 71.2706 202.593 69.8491 202.593 68.3097V29.4324C202.592 26.3373 207.149 24.8398 209.073 25.9445Z" fill="#F85605"/>
<path opacity="0.2" d="M226.86 85.3016C226.846 85.3254 226.823 85.3357 226.804 85.3525L226.807 85.3602C226.794 85.3686 226.778 85.3783 226.765 85.3873C226.761 85.3893 226.758 85.3925 226.754 85.3944C226.125 85.8104 225.019 86.4038 224.771 86.5321L224.777 86.516C224.83 86.5005 224.881 86.4734 224.915 86.4186L226.277 84.2122L226.008 84.0581L227.206 84.743L226.86 85.3016Z" fill="white"/>
<path opacity="0.4" d="M245.004 52.3202C244.726 51.7688 244.342 51.2735 243.856 50.8807L243.854 50.8781C243.691 50.7472 243.518 50.6279 243.333 50.5221L204.734 28.1915C203.781 27.6446 202.593 28.3328 202.593 29.4324C202.593 26.3373 207.149 24.8398 209.074 25.9445L247.673 48.2751C248.356 48.6666 248.898 49.2335 249.271 49.8958L245.004 52.3202Z" fill="white"/>
<path opacity="0.2" d="M245.487 93.0717V54.2441C245.487 54.0725 245.475 53.9035 245.453 53.7371C245.387 53.2386 245.227 52.7626 245.004 52.3208L249.27 49.8965C249.625 50.5279 249.827 51.247 249.827 51.9971V90.8247C249.827 93.7043 246.568 96.1538 243.348 94.3138C244.301 94.8582 245.487 94.1693 245.487 93.0717Z" fill="white"/>
<path d="M212.046 44.138L234.447 57.0763L233.103 72.4369C233.022 73.374 232.303 73.7088 231.446 73.2134L214.281 63.2993C213.958 63.113 213.653 62.8305 213.397 62.497L213.429 62.9317C213.568 64.7898 214.842 66.871 216.395 67.7682L217.148 68.2029C217.406 68.2583 217.674 68.3622 217.955 68.5247C218.239 68.6885 218.507 68.8955 218.761 69.1348L226.827 73.7932C227.084 73.8487 227.353 73.9525 227.634 74.1151C227.915 74.2769 228.187 74.4859 228.44 74.7252L230.148 75.7119C230.513 75.9222 230.811 76.4349 230.809 76.8574C230.808 77.2798 230.508 77.4468 230.144 77.2366L230.012 77.1605C230.203 77.6964 230.312 78.2414 230.31 78.7529C230.306 80.4594 229.101 81.1462 227.616 80.2891C226.134 79.4333 224.935 77.3578 224.939 75.6513C224.94 75.1399 225.053 74.7226 225.245 74.4072L220.334 71.5708C220.527 72.1086 220.633 72.6517 220.632 73.1631C220.627 74.8696 219.422 75.5565 217.937 74.6994C216.456 73.8435 215.256 71.7681 215.261 70.0616C215.262 69.516 215.389 69.08 215.606 68.7575C213.733 67.2845 212.284 64.6757 212.108 62.3106L210.586 41.6795C210.526 40.8533 209.957 39.9266 209.267 39.528L206.491 37.9253C206.124 37.7131 205.829 37.2023 205.83 36.7799C205.832 36.3574 206.128 36.1885 206.496 36.4006L209.271 38.0033C210.651 38.8005 211.786 40.6495 211.909 42.3032L212.046 44.138ZM223.77 66.0088L223.805 53.7051C223.807 53.1318 223.405 52.4385 222.909 52.1521C222.413 51.8658 222.008 52.0928 222.007 52.6661L221.972 64.9698C221.97 65.5399 222.372 66.2364 222.868 66.5228C223.364 66.8091 223.769 66.5789 223.77 66.0088ZM227.657 68.2532L227.691 55.9496C227.693 55.3762 227.291 54.6829 226.795 54.3965C226.299 54.1102 225.895 54.3372 225.893 54.9105L225.858 67.2142C225.857 67.7843 226.259 68.4808 226.755 68.7672C227.25 69.0542 227.655 68.8233 227.657 68.2532ZM231.543 70.4982L231.578 58.1946C231.58 57.6213 231.177 56.9279 230.682 56.6416C230.186 56.3552 229.781 56.5822 229.78 57.1556L229.745 69.4592C229.744 70.0293 230.145 70.7259 230.641 71.0122C231.137 71.2986 231.542 71.0683 231.543 70.4982ZM219.884 63.7643L219.919 51.4607C219.921 50.8874 219.518 50.1941 219.023 49.9077C218.527 49.6214 218.122 49.8484 218.121 50.4217L218.086 62.7253C218.084 63.2955 218.486 63.992 218.982 64.2784C219.478 64.5647 219.882 64.3338 219.884 63.7643ZM215.998 61.5193L216.032 49.2157C216.034 48.6423 215.632 47.949 215.136 47.6627C214.64 47.3763 214.235 47.6033 214.234 48.1767L214.199 60.4803C214.198 61.0504 214.6 61.747 215.096 62.0333C215.591 62.3203 215.996 62.0894 215.998 61.5193ZM217.95 70.455C217.394 70.1338 216.941 70.3918 216.939 71.0309C216.938 71.6694 217.388 72.4485 217.943 72.7697C218.501 73.0922 218.951 72.8329 218.952 72.1938C218.955 71.5546 218.509 70.7775 217.95 70.455ZM227.629 76.0447C227.073 75.7236 226.621 75.9815 226.619 76.6207C226.617 77.2598 227.067 78.0383 227.622 78.3594C228.178 78.6806 228.631 78.4226 228.632 77.7835C228.634 77.145 228.185 76.3659 227.629 76.0447Z" fill="white"/>
<path d="M240.866 57.4037C241.116 57.5475 241.365 57.8016 241.553 58.1305C241.934 58.7865 241.932 59.4965 241.549 59.7107L235.855 62.9599C235.665 63.0682 235.415 63.0334 235.166 62.8896C234.918 62.7458 234.669 62.4929 234.477 62.164L231.687 57.3263C231.306 56.6659 231.308 55.9603 231.691 55.7417C231.882 55.6333 232.131 55.6681 232.38 55.8126C232.63 55.9564 232.879 56.2099 233.07 56.5382L235.174 60.1847L240.174 57.334C240.367 57.225 240.617 57.2599 240.866 57.4037Z" fill="white"/>
<path d="M236.637 51.4426C240.431 53.6341 243.497 58.9465 243.485 63.3044C243.472 67.6668 240.386 69.4217 236.592 67.2302C232.8 65.0406 229.735 59.7327 229.747 55.3703C229.759 51.0124 232.846 49.253 236.637 51.4426ZM235.856 62.9606L241.549 59.7114C241.933 59.4966 241.935 58.7872 241.554 58.1313C241.365 57.8024 241.117 57.5482 240.867 57.4044C240.618 57.2606 240.368 57.2258 240.175 57.3354L235.176 60.1861L233.071 56.5396C232.88 56.2113 232.631 55.9585 232.381 55.814C232.132 55.6702 231.882 55.6347 231.693 55.743C231.309 55.9617 231.307 56.6673 231.688 57.3277L234.478 62.1654C234.67 62.4943 234.919 62.7471 235.168 62.891C235.417 63.0341 235.666 63.069 235.856 62.9606Z" fill="#F85605"/>
<path opacity="0.3" d="M236.637 51.4426C240.431 53.6341 243.497 58.9465 243.485 63.3044C243.472 67.6668 240.386 69.4217 236.592 67.2302C232.8 65.0406 229.735 59.7327 229.747 55.3703C229.759 51.0124 232.846 49.253 236.637 51.4426ZM235.856 62.9606L241.549 59.7114C241.933 59.4966 241.935 58.7872 241.554 58.1313C241.365 57.8024 241.117 57.5482 240.867 57.4044C240.618 57.2606 240.368 57.2258 240.175 57.3354L235.176 60.1861L233.071 56.5396C232.88 56.2113 232.631 55.9585 232.381 55.814C232.132 55.6702 231.882 55.6347 231.693 55.743C231.309 55.9617 231.307 56.6673 231.688 57.3277L234.478 62.1654C234.67 62.4943 234.919 62.7471 235.168 62.891C235.417 63.0341 235.666 63.069 235.856 62.9606Z" fill="white"/>
<path d="M112.885 32.7361L112.89 32.7316C112.436 31.1373 109.201 28.1067 105.981 28.1699C105.865 28.1693 105.286 28.228 105.077 28.3473L42.5362 63.9411C41.4731 64.5461 40.6523 65.4555 40.1321 66.5177C39.7375 67.3232 39.5118 68.2145 39.5118 69.1426V204.471C39.5118 207.918 43.4852 211.208 47.2162 209.625C47.2259 209.621 47.2317 209.612 47.2414 209.608C47.3219 209.579 47.4032 209.555 47.4812 209.511L110.025 173.858C111.892 172.794 113.045 170.808 113.045 168.658V33.3882C113.044 33.1476 112.981 32.9315 112.885 32.7361Z" fill="#455A64"/>
<path d="M48.236 83.4475C48.236 82.3718 48.8137 81.3786 49.7479 80.8465L107.817 47.7976C108.815 47.23 110.053 47.9504 110.053 49.0978V158.22C110.053 159.293 109.474 160.289 108.542 160.822L50.4712 193.924C49.4745 194.492 48.2354 193.772 48.2354 192.624L48.236 83.4475Z" fill="#F85605"/>
<path opacity="0.2" d="M48.236 83.4475C48.236 82.3718 48.8137 81.3786 49.7479 80.8465L107.817 47.7976C108.815 47.23 110.053 47.9504 110.053 49.0978V158.22C110.053 159.293 109.474 160.289 108.542 160.822L50.4712 193.924C49.4745 194.492 48.2354 193.772 48.2354 192.624L48.236 83.4475Z" fill="black"/>
<path opacity="0.1" d="M48.236 83.4475C48.236 82.3718 48.8137 81.3786 49.7479 80.8465L107.817 47.7976C108.815 47.23 110.053 47.9504 110.053 49.0978V158.22C110.053 159.293 109.474 160.289 108.542 160.822L50.4712 193.924C49.4745 194.492 48.2354 193.772 48.2354 192.624L48.236 83.4475Z" fill="white"/>
<path opacity="0.3" d="M39.5118 69.1433V204.471C39.5118 207.919 43.4852 211.209 47.2162 209.626C47.2259 209.622 47.2317 209.612 47.2414 209.608C46.2962 209.951 45.2453 209.27 45.2453 208.211V72.884C45.2453 71.6851 45.6141 70.5441 46.2556 69.5793L40.1327 66.519C39.7375 67.3246 39.5118 68.2152 39.5118 69.1433Z" fill="black"/>
<path opacity="0.1" d="M105.98 28.1704C105.863 28.1698 105.285 28.2285 105.076 28.3478L42.5349 63.9416C41.4717 64.5466 40.651 65.456 40.1307 66.5182L46.2536 69.5785C46.7629 68.8116 47.4399 68.1531 48.2677 67.6817L110.808 32.0872C111.596 31.6389 112.525 32.0008 112.884 32.7353L112.888 32.7308C112.435 31.1378 109.199 28.1066 105.98 28.1704Z" fill="white"/>
<path d="M86.8529 54.4353C87.2919 54.1818 87.6562 54.3779 87.6575 54.8829C87.6588 55.3879 87.2971 56.0147 86.858 56.2682L74.5878 63.3549C74.1487 63.6083 73.7941 63.3955 73.7929 62.8905C73.7916 62.3855 74.1436 61.7754 74.5826 61.5219L86.8529 54.4353Z" fill="#263238"/>
<path d="M71.4327 63.3423C71.8719 63.0888 72.2266 63.2907 72.2279 63.7957C72.2292 64.3006 71.877 64.9217 71.4378 65.1752C70.9986 65.4287 70.6342 65.2216 70.6329 64.7166C70.6316 64.2117 70.9935 63.5964 71.4327 63.3423Z" fill="#263238"/>
<path d="M79.2872 53.4043C80.1646 52.8974 80.8732 53.3011 80.8757 54.3098C80.8783 55.3185 80.1749 56.5594 79.2975 57.0663C78.42 57.5732 77.6928 57.1585 77.6902 56.1498C77.6876 55.1411 78.4097 53.9112 79.2872 53.4043Z" fill="#263238"/>
<path d="M79.2908 180.804C81.0779 179.772 82.5202 180.594 82.526 182.648C82.5318 184.703 81.0992 187.23 79.3114 188.262C77.5242 189.295 76.0427 188.45 76.0369 186.396C76.0317 184.342 77.5036 181.837 79.2908 180.804Z" fill="#263238"/>
<path d="M109.865 46.0884L130.982 63.6251L123.285 68.0726L102.169 50.5372L109.865 46.0884Z" fill="#F85605"/>
<path d="M94.475 54.9858L115.589 72.5206L107.892 76.9681L86.7803 59.4347L94.475 54.9858Z" fill="#F85605"/>
<path d="M86.7791 59.4346L107.89 76.968L100.192 81.4162L79.0837 63.884L86.7791 59.4346Z" fill="white"/>
<path d="M102.17 50.5371L123.286 68.0725L115.589 72.5207L94.4749 54.9859L102.17 50.5371Z" fill="white"/>
<path d="M63.6955 72.7827L84.7996 90.3123L77.1017 94.7598L56.0001 77.2315L63.6955 72.7827Z" fill="#F85605"/>
<path d="M79.0827 63.8838L100.191 81.416L92.4941 85.8635L71.3873 68.3326L79.0827 63.8838Z" fill="#F85605"/>
<path d="M48.1533 81.7673L55.9989 77.2314L77.1005 94.7597L69.2362 99.304L48.1533 81.7673Z" fill="white"/>
<path d="M71.3894 68.333L92.4961 85.8639L84.7989 90.3121L63.6947 72.7825L71.3894 68.333Z" fill="white"/>
<path d="M130.982 63.625L123.284 68.0725C123.284 70.3582 125.758 71.7868 127.737 70.6433C129.745 69.483 130.982 67.3392 130.982 65.0194V63.625Z" fill="#F85605"/>
<path d="M123.285 68.0723L115.588 72.5198C115.588 74.8055 118.062 76.234 120.04 75.0906C122.049 73.9303 123.285 71.7865 123.285 69.4666V68.0723Z" fill="#E0E0E0"/>
<path d="M115.587 72.5205L107.889 76.968C107.889 79.2537 110.363 80.6823 112.342 79.5388C114.35 78.3785 115.587 76.2347 115.587 73.9149V72.5205Z" fill="#F85605"/>
<path d="M107.89 76.9683L100.193 81.4158C100.193 83.7015 102.667 85.13 104.645 83.9866C106.654 82.8263 107.89 80.6825 107.89 78.3626V76.9683Z" fill="#E0E0E0"/>
<path d="M100.192 81.4155L92.4945 85.8631C92.4945 88.1488 94.9683 89.5773 96.9469 88.4338C98.9552 87.2736 100.192 85.1298 100.192 82.8099V81.4155Z" fill="#F85605"/>
<path d="M92.4952 85.8638L84.798 90.3113C84.798 92.597 87.2717 94.0255 89.2504 92.8821C91.2587 91.7218 92.4952 89.578 92.4952 87.2581V85.8638Z" fill="#E0E0E0"/>
<path d="M84.7988 90.3115L77.1016 94.7591C77.1016 97.0448 79.5753 98.4733 81.554 97.3298C83.5616 96.1696 84.7988 94.0258 84.7988 91.7059V90.3115Z" fill="#F85605"/>
<path opacity="0.2" d="M130.982 63.625L123.284 68.0725C123.284 70.3582 125.758 71.7868 127.737 70.6433C129.745 69.483 130.982 67.3392 130.982 65.0194V63.625Z" fill="black"/>
<path opacity="0.2" d="M115.587 72.5205L107.889 76.968C107.889 79.2537 110.363 80.6823 112.342 79.5388C114.35 78.3785 115.587 76.2347 115.587 73.9149V72.5205Z" fill="black"/>
<path opacity="0.2" d="M100.192 81.4155L92.4945 85.8631C92.4945 88.1488 94.9683 89.5773 96.9469 88.4338C98.9552 87.2736 100.192 85.1298 100.192 82.8099V81.4155Z" fill="black"/>
<path opacity="0.2" d="M84.7988 90.3115L77.1016 94.7591C77.1016 97.0448 79.5753 98.4733 81.554 97.3298C83.5616 96.1696 84.7988 94.0258 84.7988 91.7059V90.3115Z" fill="black"/>
<path d="M77.1 94.7593L69.2351 99.3036C69.2351 101.589 71.7089 103.018 73.6875 101.874C75.799 100.654 77.0994 98.4 77.0994 95.9608V94.7593H77.1Z" fill="#E0E0E0"/>
<path d="M86.0753 117.465C84.0792 117.683 81.7815 118.322 79.5378 119.483C77.2942 120.634 75.1138 122.305 73.3395 124.348C71.5653 126.392 70.2178 128.786 69.3926 131.17C68.5583 133.555 68.2482 135.92 68.3114 137.928C68.7775 135.971 69.4667 133.791 70.4989 131.622C71.5253 129.452 72.8902 127.3 74.5426 125.394C76.1976 123.489 78.1375 121.836 80.1407 120.515C82.1425 119.189 84.2043 118.201 86.0753 117.465Z" fill="#F85605"/>
<path d="M80.0532 151.227C78.9204 151.205 77.6438 151.027 76.375 150.587C75.1075 150.152 73.8529 149.46 72.7975 148.535C71.744 147.609 70.8943 146.455 70.2979 145.255C69.6964 144.054 69.3534 142.811 69.1832 141.69C69.0523 142.814 69.1774 144.174 69.679 145.521C70.1729 146.866 71.0419 148.19 72.205 149.211C73.3681 150.231 74.7936 150.92 76.1913 151.235C77.5916 151.558 78.9558 151.504 80.0532 151.227Z" fill="#F85605"/>
<path d="M90.0487 130.481C90.1564 132.038 90.1732 133.809 89.972 135.665C89.7754 137.52 89.364 139.456 88.7354 141.322C88.1004 143.186 87.2507 144.974 86.2797 146.567C85.312 148.163 84.2224 149.559 83.1915 150.729C84.4906 149.872 85.8581 148.641 87.0437 147.091C88.2326 145.547 89.2345 143.691 89.905 141.719C90.571 139.745 90.9023 137.663 90.8972 135.713C90.8972 133.761 90.5594 131.952 90.0487 130.481Z" fill="#F85605"/>
<path d="M69.8343 123.365C68.4617 124.664 67.1007 126.447 66.075 128.591C65.0434 130.728 64.3523 133.218 64.175 135.758C63.9977 138.298 64.3368 140.86 65.0615 143.119C65.7797 145.385 66.8796 147.341 68.0588 148.817C67.3077 147.08 66.5966 145.05 66.1491 142.834C65.6965 140.622 65.5063 138.231 65.6701 135.862C65.8371 133.494 66.3567 131.152 67.1123 129.024C67.8641 126.892 68.8492 124.98 69.8343 123.365Z" fill="#F85605"/>
<path d="M94.4621 124.124C94.3435 122.602 93.7639 120.83 92.635 119.24C91.519 117.651 89.8588 116.252 87.906 115.459C85.9525 114.667 83.7875 114.514 81.8798 114.877C79.9631 115.231 78.3132 116.099 77.1682 117.109C78.5408 116.435 80.2022 115.914 82.0004 115.778C83.7927 115.636 85.7107 115.88 87.4502 116.583C89.1877 117.29 90.733 118.452 91.9206 119.803C93.1166 121.153 93.9457 122.684 94.4621 124.124Z" fill="#F85605"/>
<path d="M122.109 103.933C126.346 103.501 130.201 106.41 130.949 110.604L133.944 127.385L152.706 140.507L148.513 145.608L130.664 136.231C128.542 135.116 126.96 133.19 126.279 130.891L120.529 111.486L122.109 103.933Z" fill="#FFA8A7"/>
<path d="M129.075 121.93C130.729 121.067 132.066 119.635 132.864 117.951L131.18 110.262C130.294 106.219 126.518 103.483 122.401 103.903L122.112 103.932L120.531 111.485L123.026 122.628C125.041 123.121 127.234 122.891 129.075 121.93Z" fill="#455A64"/>
<path d="M129.075 121.93C127.234 122.891 125.04 123.122 123.026 122.628L123.641 125.373C125.972 125.892 131.932 125.719 133.487 120.794L132.864 117.952C132.065 119.636 130.729 121.067 129.075 121.93Z" fill="#455A64"/>
<path opacity="0.2" d="M129.075 121.93C130.729 121.067 132.066 119.635 132.864 117.951L131.18 110.262C130.294 106.219 126.518 103.483 122.401 103.903L122.112 103.932L120.531 111.485L123.026 122.628C125.041 123.121 127.234 122.891 129.075 121.93Z" fill="white"/>
<path opacity="0.5" d="M129.075 121.93C127.234 122.891 125.04 123.122 123.026 122.628L123.641 125.373C125.972 125.892 131.932 125.719 133.487 120.794L132.864 117.952C132.065 119.636 130.729 121.067 129.075 121.93Z" fill="white"/>
<path d="M126.262 111.128C126.262 111.128 125.518 105.423 122.109 103.933C122.109 103.933 113.966 106.374 107.204 108.941C103.908 110.191 101.872 111.03 99.3688 112.275C97.8318 113.607 93.4309 117.559 91.3601 118.626C90.3543 119.144 89.2615 119.44 88.1404 119.592C88.1352 119.593 88.1307 119.593 88.1255 119.594C86.8812 119.765 85.5319 120.243 84.1212 121.057C77.9171 124.641 72.9083 133.323 72.9283 140.451C72.9412 145.123 75.1203 147.953 78.3626 148.35C78.362 148.356 78.362 148.362 78.362 148.367C78.4039 148.367 78.4529 148.367 78.4954 148.366C78.9873 148.416 79.4999 148.414 80.0356 148.35C85.6763 148.299 94.7229 148.256 98.2798 147.237C114.888 142.379 127.938 130.381 126.262 111.128Z" fill="#455A64"/>
<path d="M110.444 108.787L112.881 104.375L122.655 110.969C121.367 112.702 120.077 114.435 118.788 116.168C117.109 116.887 115.204 117.134 113.54 116.379C111.877 115.623 110.557 114.143 109.995 112.404C109.604 111.196 109.85 109.976 110.444 108.787Z" fill="#FFA8A7"/>
<path opacity="0.2" d="M113.797 104.993C113.797 110.302 118.02 112.797 120.599 113.736L122.656 110.969L113.797 104.993Z" fill="black"/>
<path d="M109.376 99.6896C109.012 97.5665 108.649 95.3872 109.062 93.2724C109.474 91.1583 110.837 89.0906 112.9 88.4734C113.643 86.6888 115.43 85.2441 117.268 84.6482C119.106 84.0516 121.069 83.9975 123.001 83.9536C125.137 83.9046 127.294 83.8646 129.384 84.3103C131.473 84.7559 133.517 85.7382 134.849 87.4092C136.384 89.335 136.803 91.9787 136.435 94.414C136.067 96.8499 134.989 99.1195 133.786 101.269C129.683 101.563 125.505 102.029 121.402 102.322C119.309 102.472 117.201 102.622 115.117 102.376C113.034 102.131 111.006 101.012 109.376 99.6896Z" fill="#263238"/>
<path d="M134.48 89.8554C135.535 96.1275 134.831 102.687 132.468 108.592C131.919 109.965 131.208 111.387 129.924 112.12C128.578 112.888 126.913 112.728 125.381 112.497C122.913 112.125 120.427 111.617 118.206 110.477C115.986 109.339 114.034 107.491 113.24 105.124C111.607 105.515 109.901 104.761 108.892 103.419C107.882 102.076 107.519 100.346 107.482 98.6666C107.459 97.5915 107.679 96.3222 108.645 95.8489C109.543 95.4084 110.621 95.9024 111.398 96.5325C112.67 97.5625 113.618 98.9865 114.078 100.557C114.789 97.9378 115.894 95.4109 116.604 92.7918C116.883 91.7625 117.228 90.639 118.127 90.0643C119.226 89.3607 120.658 89.7644 121.925 90.0785C125.789 91.0343 130.68 91.0389 134.48 89.8554Z" fill="#FFA8A7"/>
<path d="M126.848 97.8047L129.91 102.96L126.259 103.646L126.848 97.8047Z" fill="#F28F8F"/>
<path d="M122.739 105.423C123.664 105.872 124.588 106.322 125.513 106.772C125.11 107.402 124.093 107.677 123.41 107.371C122.728 107.064 122.537 106.143 122.739 105.423Z" fill="#F28F8F"/>
<path opacity="0.3" d="M122.739 105.423C123.664 105.872 124.588 106.322 125.513 106.772C125.11 107.402 124.093 107.677 123.41 107.371C122.728 107.064 122.537 106.143 122.739 105.423Z" fill="black"/>
<path d="M124.376 107.461C124.043 107.52 123.699 107.498 123.412 107.37C122.876 107.129 122.648 106.511 122.67 105.907C123.064 105.909 123.459 106.038 123.764 106.288C124.115 106.575 124.331 107.009 124.376 107.461Z" fill="#F28F8F"/>
<path d="M121.561 98.0097C121.503 98.5863 121.923 99.1003 122.499 99.1583C123.076 99.2164 123.59 98.7965 123.648 98.2199C123.706 97.6433 123.286 97.1293 122.71 97.0713C122.134 97.0132 121.619 97.4331 121.561 98.0097Z" fill="#263238"/>
<path d="M130.353 98.5551C130.295 99.1317 130.715 99.6457 131.291 99.7037C131.868 99.7618 132.382 99.3419 132.44 98.7653C132.498 98.1888 132.078 97.6747 131.502 97.6167C130.926 97.5586 130.411 97.9785 130.353 98.5551Z" fill="#263238"/>
<path d="M131.786 94.5042C132.504 95.1149 133.221 95.7257 133.939 96.3371C134.222 95.8115 134.074 95.0769 133.652 94.6544C133.229 94.2314 132.313 94.221 131.786 94.5042Z" fill="#263238"/>
<path d="M123.213 94.3613C122.388 94.8166 121.563 95.272 120.739 95.728C120.566 95.1559 120.858 94.4658 121.356 94.1362C121.854 93.806 122.754 93.9789 123.213 94.3613Z" fill="#263238"/>
<path d="M136.44 91.9771C127.701 93.4179 118.085 93.425 109.344 91.9971C109.765 81.0214 114.696 77.4355 123.206 77.4355C131.715 77.4355 136.505 81.9553 136.44 91.9771Z" fill="#455A64"/>
<path d="M136.441 91.9771C136.468 87.774 135.631 84.5512 134.034 82.2113L130.475 81.2136C128.806 80.746 127.054 80.6519 125.345 80.9389L121.948 81.509C119.573 81.9076 117.745 83.8276 117.466 86.2209L116.691 92.8368C123.29 93.3031 130.096 93.0232 136.441 91.9771Z" fill="#455A64"/>
<path opacity="0.29" d="M136.441 91.9771C136.468 87.774 135.631 84.5512 134.034 82.2113L130.475 81.2136C128.806 80.746 127.054 80.6519 125.345 80.9389L121.948 81.509C119.573 81.9076 117.745 83.8276 117.466 86.2209L116.691 92.8368C123.29 93.3031 130.096 93.0232 136.441 91.9771Z" fill="white"/>
<path d="M137.509 82.7441H135.935C135.427 82.7441 134.921 82.768 134.418 82.8048C129.819 83.1401 125.443 84.9847 121.99 88.083L116.691 92.8369C123.29 93.3032 130.096 93.0233 136.441 91.9772L139.89 87.8153C141.563 85.7973 140.128 82.7441 137.509 82.7441Z" fill="#455A64"/>
<path opacity="0.2" d="M137.509 82.7441H135.935C135.427 82.7441 134.921 82.768 134.418 82.8048C129.819 83.1401 125.443 84.9847 121.99 88.083L116.691 92.8369C123.29 93.3032 130.096 93.0233 136.441 91.9772L139.89 87.8153C141.563 85.7973 140.128 82.7441 137.509 82.7441Z" fill="black"/>
<path d="M164.759 141.356L140.725 155.328L116.534 141.356L140.568 127.384L164.759 141.356Z" fill="#F85605"/>
<g opacity="0.3">
<path d="M164.759 141.356L140.725 155.328L116.534 141.356L140.568 127.384L164.759 141.356Z" fill="white"/>
</g>
<path d="M164.757 141.356L164.687 165.815L140.653 179.787L140.722 155.328L164.757 141.356Z" fill="#F85605"/>
<g opacity="0.1">
<path d="M164.757 141.356L164.687 165.815L140.653 179.787L140.722 155.328L164.757 141.356Z" fill="white"/>
</g>
<path d="M140.724 155.328L140.655 179.787L116.464 165.815L116.533 141.356L140.724 155.328Z" fill="#F85605"/>
<path d="M144.913 139.566L153.047 134.592L148.895 132.193L140.725 137.067L144.913 139.566Z" fill="#E0E0E0"/>
<path d="M144.913 139.566L140.725 137.067L132.427 132.117L128.29 134.522L136.537 139.566L140.725 142.128L151.792 148.895L156.228 146.316L144.913 139.566Z" fill="white"/>
<path d="M136.536 139.566L125.172 146.346L129.623 148.917L140.724 142.128L136.536 139.566Z" fill="#E0E0E0"/>
<path d="M156.228 146.316L151.792 148.895L151.826 148.917L151.895 173.253L156.381 170.645L156.312 146.366L156.228 146.316Z" fill="#E0E0E0"/>
<path d="M129.623 148.917L125.172 146.346L125.137 146.366L125.068 170.785L129.554 173.375L129.623 148.917Z" fill="white"/>
<path opacity="0.2" d="M129.623 148.917L125.172 146.346L125.137 146.366L125.068 170.785L129.554 173.375L129.623 148.917Z" fill="black"/>
<path d="M140.715 146.958L135.683 150.035L140.715 152.942L145.732 150.026L140.715 146.958Z" fill="white"/>
<path d="M93.1339 146.112C93.1339 146.112 95.0075 118.795 95.3982 117.108C96.9042 110.613 106.318 111.076 107.213 117.684C107.578 120.378 103.278 146.557 103.278 146.557L118.856 163.042L122.011 165.938L124.819 165.368L131.229 165.974C131.572 166.006 131.854 166.259 131.925 166.596C132.011 167.011 131.753 167.42 131.341 167.521L127.11 168.554L130.164 170.644C130.593 170.937 131.077 171.139 131.587 171.235L136.38 172.14C136.818 172.223 137.126 172.619 137.098 173.063C137.076 173.411 136.852 173.714 136.525 173.836L133.953 174.797C130.582 176.057 126.829 175.79 123.67 174.065L118.086 171.015C117.277 170.573 116.513 170.055 115.803 169.467L95.9114 152.992C93.8799 151.317 92.8348 148.727 93.1339 146.112Z" fill="#FFA8A7"/>
<path d="M106.96 135.643L108.951 120.827C109.531 116.514 106.45 112.568 102.126 112.087C97.8671 111.613 94.031 114.686 93.5636 118.948L91.9028 134.085C94.0704 135.323 96.481 136.137 98.9599 136.435C101.642 136.757 104.39 136.475 106.96 135.643Z" fill="#455A64"/>
<path opacity="0.2" d="M106.96 135.643L108.951 120.827C109.531 116.514 106.45 112.568 102.126 112.087C97.8671 111.613 94.031 114.686 93.5636 118.948L91.9028 134.085C94.0704 135.323 96.481 136.137 98.9599 136.435C101.642 136.757 104.39 136.475 106.96 135.643Z" fill="white"/>
<path d="M98.9602 136.434C96.4819 136.137 94.0706 135.323 91.9031 134.085L91.5201 137.574C98.2168 142.721 106.434 139.548 106.434 139.548L106.959 135.643C104.39 136.474 101.642 136.757 98.9602 136.434Z" fill="#455A64"/>
<path opacity="0.5" d="M98.9602 136.434C96.4819 136.137 94.0706 135.323 91.9031 134.085L91.5201 137.574C98.2168 142.721 106.434 139.548 106.434 139.548L106.959 135.643C104.39 136.474 101.642 136.757 98.9602 136.434Z" fill="white"/>
<path d="M273.182 186.319L283.638 186.624L294.093 186.319C294.544 193.383 293.165 200.581 291.264 204.097L291.256 204.095C290.916 204.867 290.232 205.599 289.187 206.202C286.102 207.984 281.116 207.984 278.051 206.202C276.989 205.584 276.305 204.832 275.983 204.041C274.098 200.506 272.734 193.348 273.182 186.319Z" fill="white"/>
<path d="M276.268 182.035C272.172 184.402 272.15 188.237 276.22 190.603C280.29 192.969 286.91 192.969 291.006 190.603C295.102 188.237 295.124 184.401 291.054 182.035C286.984 179.67 280.365 179.67 276.268 182.035Z" fill="#EBEBEB"/>
<path d="M277.889 182.977C274.693 184.823 274.676 187.816 277.851 189.661C281.026 191.507 286.19 191.507 289.387 189.661C292.582 187.816 292.599 184.823 289.424 182.977C286.249 181.131 281.084 181.131 277.889 182.977Z" fill="#E0E0E0"/>
<g opacity="0.15">
<path d="M277.889 182.977C274.693 184.823 274.676 187.816 277.851 189.661C281.026 191.507 286.19 191.507 289.387 189.661C292.582 187.816 292.599 184.823 289.424 182.977C286.249 181.131 281.084 181.131 277.889 182.977Z" fill="black"/>
</g>
<path d="M288.971 164.915C290.672 162.8 292.647 160.906 294.206 158.685C295.27 157.17 296.159 155.315 295.712 153.518C295.297 151.851 293.74 150.612 292.051 150.296C290.363 149.98 288.596 150.485 287.138 151.392C285.679 152.299 284.494 153.584 283.424 154.928C277.574 162.272 274.724 171.939 275.655 181.284C275.761 182.355 275.941 183.482 276.625 184.313C277.359 185.204 278.644 185.597 279.751 185.268C282.599 184.423 282.221 180.574 282.687 178.309C283.325 175.207 284.433 172.201 285.958 169.424C286.829 167.837 287.837 166.326 288.971 164.915Z" fill="#F85605"/>
<path opacity="0.2" d="M288.971 164.915C290.672 162.8 292.647 160.906 294.206 158.685C295.27 157.17 296.159 155.315 295.712 153.518C295.297 151.851 293.74 150.612 292.051 150.296C290.363 149.98 288.596 150.485 287.138 151.392C285.679 152.299 284.494 153.584 283.424 154.928C277.574 162.272 274.724 171.939 275.655 181.284C275.761 182.355 275.941 183.482 276.625 184.313C277.359 185.204 278.644 185.597 279.751 185.268C282.599 184.423 282.221 180.574 282.687 178.309C283.325 175.207 284.433 172.201 285.958 169.424C286.829 167.837 287.837 166.326 288.971 164.915Z" fill="white"/>
<path d="M279.573 182.399C279.683 182.377 279.768 182.283 279.774 182.166C279.973 177.592 281.459 161.98 292.214 153.123C292.321 153.036 292.336 152.878 292.249 152.772C292.161 152.666 292.004 152.651 291.898 152.738C280.984 161.727 279.478 177.518 279.276 182.144C279.27 182.281 279.377 182.398 279.515 182.404C279.534 182.404 279.553 182.403 279.573 182.399Z" fill="#F0F0F0"/>
<path d="M278.002 182.895C278.328 184.689 279.869 186.912 281.495 187.739C283.106 188.559 284.976 188.778 286.779 188.624C288.615 188.466 290.398 187.939 292.143 187.351C293.005 187.061 293.964 186.669 294.056 185.6C294.105 185.036 293.852 184.49 293.446 184.096C293.276 183.93 293.089 183.769 292.89 183.616C292.484 183.306 292.675 182.661 293.184 182.626C293.697 182.59 294.207 182.533 294.713 182.437C295.88 182.214 297.029 181.769 297.923 180.984C298.593 180.395 299.101 179.627 299.405 178.788C299.665 178.069 299.737 177.168 299.193 176.631C298.881 176.323 298.433 176.207 298.005 176.114C297.622 176.031 297.239 175.961 296.854 175.901C296.344 175.821 296.259 175.124 296.736 174.925L298.358 174.249C298.809 174.061 299.277 173.86 299.589 173.484C300.085 172.885 300.05 172.013 299.901 171.249C299.703 170.233 299.352 169.253 299.113 168.247C298.874 167.24 298.749 166.177 299.006 165.175C295.977 164.868 292.866 165.012 289.92 165.782C289.04 166.011 288.15 166.3 287.44 166.868C286.429 167.677 286.166 168.892 286.273 170.209C286.293 170.458 285.95 170.553 285.831 170.332L284.794 168.42C284.482 167.844 283.776 167.627 283.183 167.905C282.288 168.325 281.49 168.997 280.813 169.769C280.082 170.602 279.709 171.7 279.798 172.804C279.92 174.297 280.18 175.81 280.554 177.259C280.652 177.639 280.227 177.925 279.909 177.695L279.86 177.66C279.577 177.455 279.229 177.332 278.882 177.375C277.966 177.489 277.732 178.417 277.671 179.208C277.584 180.354 277.786 181.703 278.002 182.895Z" fill="#F85605"/>
<path opacity="0.2" d="M278.002 182.895C278.328 184.689 279.869 186.912 281.495 187.739C283.106 188.559 284.976 188.778 286.779 188.624C288.615 188.466 290.398 187.939 292.143 187.351C293.005 187.061 293.964 186.669 294.056 185.6C294.105 185.036 293.852 184.49 293.446 184.096C293.276 183.93 293.089 183.769 292.89 183.616C292.484 183.306 292.675 182.661 293.184 182.626C293.697 182.59 294.207 182.533 294.713 182.437C295.88 182.214 297.029 181.769 297.923 180.984C298.593 180.395 299.101 179.627 299.405 178.788C299.665 178.069 299.737 177.168 299.193 176.631C298.881 176.323 298.433 176.207 298.005 176.114C297.622 176.031 297.239 175.961 296.854 175.901C296.344 175.821 296.259 175.124 296.736 174.925L298.358 174.249C298.809 174.061 299.277 173.86 299.589 173.484C300.085 172.885 300.05 172.013 299.901 171.249C299.703 170.233 299.352 169.253 299.113 168.247C298.874 167.24 298.749 166.177 299.006 165.175C295.977 164.868 292.866 165.012 289.92 165.782C289.04 166.011 288.15 166.3 287.44 166.868C286.429 167.677 286.166 168.892 286.273 170.209C286.293 170.458 285.95 170.553 285.831 170.332L284.794 168.42C284.482 167.844 283.776 167.627 283.183 167.905C282.288 168.325 281.49 168.997 280.813 169.769C280.082 170.602 279.709 171.7 279.798 172.804C279.92 174.297 280.18 175.81 280.554 177.259C280.652 177.639 280.227 177.925 279.909 177.695L279.86 177.66C279.577 177.455 279.229 177.332 278.882 177.375C277.966 177.489 277.732 178.417 277.671 179.208C277.584 180.354 277.786 181.703 278.002 182.895Z" fill="black"/>
<path opacity="0.2" d="M278.002 182.895C278.328 184.689 279.869 186.912 281.495 187.739C283.106 188.559 284.976 188.778 286.779 188.624C288.615 188.466 290.398 187.939 292.143 187.351C293.005 187.061 293.964 186.669 294.056 185.6C294.105 185.036 293.852 184.49 293.446 184.096C293.276 183.93 293.089 183.769 292.89 183.616C292.484 183.306 292.675 182.661 293.184 182.626C293.697 182.59 294.207 182.533 294.713 182.437C295.88 182.214 297.029 181.769 297.923 180.984C298.593 180.395 299.101 179.627 299.405 178.788C299.665 178.069 299.737 177.168 299.193 176.631C298.881 176.323 298.433 176.207 298.005 176.114C297.622 176.031 297.239 175.961 296.854 175.901C296.344 175.821 296.259 175.124 296.736 174.925L298.358 174.249C298.809 174.061 299.277 173.86 299.589 173.484C300.085 172.885 300.05 172.013 299.901 171.249C299.703 170.233 299.352 169.253 299.113 168.247C298.874 167.24 298.749 166.177 299.006 165.175C295.977 164.868 292.866 165.012 289.92 165.782C289.04 166.011 288.15 166.3 287.44 166.868C286.429 167.677 286.166 168.892 286.273 170.209C286.293 170.458 285.95 170.553 285.831 170.332L284.794 168.42C284.482 167.844 283.776 167.627 283.183 167.905C282.288 168.325 281.49 168.997 280.813 169.769C280.082 170.602 279.709 171.7 279.798 172.804C279.92 174.297 280.18 175.81 280.554 177.259C280.652 177.639 280.227 177.925 279.909 177.695L279.86 177.66C279.577 177.455 279.229 177.332 278.882 177.375C277.966 177.489 277.732 178.417 277.671 179.208C277.584 180.354 277.786 181.703 278.002 182.895Z" fill="white"/>
<path d="M282.821 187.489C282.834 187.425 283.461 184.384 285.264 180.405C285.264 180.333 285.295 180.267 285.35 180.218C285.407 180.095 285.462 179.972 285.521 179.848C285.003 175.089 283.119 171.769 283.101 171.736C283.032 171.617 283.073 171.465 283.192 171.396C283.312 171.329 283.464 171.368 283.533 171.488C283.551 171.519 285.284 174.573 285.919 179.028C287.988 174.878 291.287 170.024 296.381 166.478C296.495 166.4 296.65 166.427 296.728 166.54C296.807 166.652 296.778 166.808 296.666 166.886C291.412 170.545 288.096 175.615 286.081 179.823C290.187 177.824 294.548 178.614 294.742 178.651C294.877 178.676 294.966 178.807 294.94 178.942C294.921 179.046 294.84 179.121 294.744 179.14C294.713 179.146 294.681 179.147 294.649 179.141C294.601 179.132 289.846 178.267 285.734 180.567C283.945 184.506 283.322 187.522 283.31 187.585C283.289 187.688 283.209 187.763 283.113 187.782C283.082 187.788 283.049 187.788 283.017 187.782C282.882 187.755 282.795 187.624 282.821 187.489Z" fill="#F0F0F0"/>
<path d="M44.5577 207.69L32.6594 208.037L20.7618 207.69C20.2493 215.728 21.8179 223.919 23.9809 227.92L23.9893 227.919C24.3768 228.796 25.1549 229.629 26.3444 230.316C29.8549 232.344 35.5284 232.344 39.0163 230.316C40.2258 229.613 41.0034 228.757 41.3702 227.856C43.5158 223.834 45.0677 215.688 44.5577 207.69Z" fill="white"/>
<path d="M41.0453 202.815C45.7073 205.507 45.7318 209.872 41.1008 212.565C36.4691 215.258 28.9363 215.258 24.2743 212.565C19.613 209.873 19.5885 205.508 24.2202 202.815C28.8512 200.123 36.384 200.123 41.0453 202.815Z" fill="#EBEBEB"/>
<path d="M39.2017 203.887C42.8385 205.988 42.8579 209.393 39.2449 211.493C35.6313 213.594 29.7547 213.594 26.1178 211.493C22.481 209.393 22.4616 205.988 26.0753 203.887C29.6883 201.786 35.5655 201.786 39.2017 203.887Z" fill="#E0E0E0"/>
<g opacity="0.15">
<path d="M39.2017 203.887C42.8385 205.988 42.8579 209.393 39.2449 211.493C35.6313 213.594 29.7547 213.594 26.1178 211.493C22.481 209.393 22.4616 205.988 26.0753 203.887C29.6883 201.786 35.5655 201.786 39.2017 203.887Z" fill="black"/>
</g>
<path d="M52.2225 156.901C25.41 165.684 25.1669 183.628 31.2118 196.406C32.7359 198.992 37.3495 200.381 41.3654 184.489L34.3225 185.392L42.5298 181.231L44.6612 174.857L37.8182 175.365L46.5038 171.711C49.7048 162.027 52.2225 156.901 52.2225 156.901Z" fill="#F85605"/>
<path opacity="0.2" d="M52.2225 156.901C25.41 165.684 25.1669 183.628 31.2118 196.406C32.7359 198.992 37.3495 200.381 41.3654 184.489L34.3225 185.392L42.5298 181.231L44.6612 174.857L37.8182 175.365L46.5038 171.711C49.7048 162.027 52.2225 156.901 52.2225 156.901Z" fill="black"/>
<path opacity="0.2" d="M52.2225 156.901C25.41 165.684 25.1669 183.628 31.2118 196.406C32.7359 198.992 37.3495 200.381 41.3654 184.489L34.3225 185.392L42.5298 181.231L44.6612 174.857L37.8182 175.365L46.5038 171.711C49.7048 162.027 52.2225 156.901 52.2225 156.901Z" fill="white"/>
<path d="M44.6381 161.389C30.4988 172.124 29.2223 184.432 33.2163 197.281C31.8037 185.967 30.2764 174.527 44.6381 161.389Z" fill="white"/>
<path d="M6.80676 175.13C33.2363 178.853 36.4431 195.524 32.9358 208.428C31.9456 211.091 27.88 213.151 21.5005 199.018L28.2094 198.688L19.8752 196.177L16.8308 190.595L23.2883 189.931L14.5917 187.971C10.0033 179.485 6.80676 175.13 6.80676 175.13Z" fill="#F85605"/>
<path opacity="0.2" d="M6.80676 175.13C33.2363 178.853 36.4431 195.524 32.9358 208.428C31.9456 211.091 27.88 213.151 21.5005 199.018L28.2094 198.688L19.8752 196.177L16.8308 190.595L23.2883 189.931L14.5917 187.971C10.0033 179.485 6.80676 175.13 6.80676 175.13Z" fill="white"/>
<path opacity="0.1" d="M6.80676 175.13C33.2363 178.853 36.4431 195.524 32.9358 208.428C31.9456 211.091 27.88 213.151 21.5005 199.018L28.2094 198.688L19.8752 196.177L16.8308 190.595L23.2883 189.931L14.5917 187.971C10.0033 179.485 6.80676 175.13 6.80676 175.13Z" fill="black"/>
<path d="M14.6145 178.048C29.5655 185.696 32.7987 196.947 31.2127 209.577C30.6499 198.805 30.1715 187.897 14.6145 178.048Z" fill="white"/>
<path d="M59.957 181.377C35.7188 181.774 30.9641 196.44 32.6809 208.465C33.2754 210.975 36.7098 213.288 44.0402 201.263L38.0302 200.215L45.8235 198.885L49.1915 194.194L43.4458 192.872L51.5028 192.08C56.589 184.945 59.957 181.377 59.957 181.377Z" fill="#F85605"/>
<path d="M52.5924 183.133C38.261 188.352 34.0884 198.13 34.1045 209.692C35.8176 200.046 37.4687 190.269 52.5924 183.133Z" fill="white"/>
<path opacity="0.2" d="M59.957 181.377C35.7188 181.774 30.9641 196.44 32.6809 208.465C33.2754 210.975 36.7098 213.288 44.0402 201.263L38.0302 200.215L45.8235 198.885L49.1915 194.194L43.4458 192.872L51.5028 192.08C56.589 184.945 59.957 181.377 59.957 181.377Z" fill="white"/>
<path d="M199.751 157.148C193.387 161.568 186.221 164.626 180.906 170.553C170.98 181.623 170.749 199.433 178.545 212.094C186.34 224.756 200.839 232.363 215.602 234.104C231.092 235.93 247.345 231.649 259.497 221.869C271.649 212.089 279.38 196.809 279.374 181.207C279.369 165.605 271.38 150.07 258.316 141.547C246.398 133.772 229.272 131.554 217.315 140.451C211.268 144.949 207.238 151.588 201.208 156.099C200.728 156.458 200.242 156.806 199.751 157.148Z" fill="#F85605"/>
<path opacity="0.2" d="M199.751 157.148C193.387 161.568 186.221 164.626 180.906 170.553C170.98 181.623 170.749 199.433 178.545 212.094C186.34 224.756 200.839 232.363 215.602 234.104C231.092 235.93 247.345 231.649 259.497 221.869C271.649 212.089 279.38 196.809 279.374 181.207C279.369 165.605 271.38 150.07 258.316 141.547C246.398 133.772 229.272 131.554 217.315 140.451C211.268 144.949 207.238 151.588 201.208 156.099C200.728 156.458 200.242 156.806 199.751 157.148Z" fill="black"/>
<path opacity="0.1" d="M199.751 157.148C193.387 161.568 186.221 164.626 180.906 170.553C170.98 181.623 170.749 199.433 178.545 212.094C186.34 224.756 200.839 232.363 215.602 234.104C231.092 235.93 247.345 231.649 259.497 221.869C271.649 212.089 279.38 196.809 279.374 181.207C279.369 165.605 271.38 150.07 258.316 141.547C246.398 133.772 229.272 131.554 217.315 140.451C211.268 144.949 207.238 151.588 201.208 156.099C200.728 156.458 200.242 156.806 199.751 157.148Z" fill="white"/>
<path opacity="0.1" d="M202.343 222.007C202.357 221.901 202.372 221.796 202.387 221.69C203.399 214.597 208.926 209.081 215.96 207.73C222.086 206.554 228.007 204.298 233.346 201.069C237.145 198.77 240.735 195.953 244.996 194.708C248.929 193.558 253.826 193.736 257.554 195.437C253.972 191.675 247.832 190.019 242.924 191.721C246.321 186.52 249.309 180.917 250.48 174.816C251.651 168.715 250.819 162.02 247.141 157.014C244.018 152.763 238.935 150.017 233.669 149.735C228.403 149.453 223.056 151.642 219.498 155.535C215.856 159.52 213.802 165.129 211.411 169.97C209.692 173.447 207.916 177.005 205.084 179.654C200.81 183.653 194.665 185.094 190.235 188.919C185.212 193.256 183.046 200.19 183.023 206.828C183.008 211.307 183.851 215.716 184.967 220.069C190.054 225.02 196.348 228.757 203.135 231.182C202.111 228.295 201.923 225.067 202.343 222.007Z" fill="black"/>
<path d="M271.058 179.068C270.798 165.791 264.489 152.87 254.183 144.503C247.879 139.384 240.213 136.085 232.227 134.858C230.745 135.004 229.278 135.25 227.836 135.594C237.103 136.137 246.185 139.556 253.426 145.435C263.461 153.583 269.604 166.164 269.858 179.091C270.142 193.611 263.042 208.411 250.864 218.681C241.32 226.73 228.643 232.067 214.709 233.987C215.006 234.027 215.304 234.068 215.601 234.103C216.853 234.251 218.111 234.355 219.371 234.423C231.751 232.02 242.963 226.915 251.638 219.598C264.09 209.098 271.349 193.946 271.058 179.068Z" fill="white"/>
<path d="M196.722 232.685L198.317 235.846C200.571 233.761 200.979 232.077 200.979 232.077C200.25 229.495 199.399 226.87 198.977 225.594C198.76 227.372 197.547 228.903 197.036 230.637C196.839 231.307 196.753 231.991 196.722 232.685Z" fill="#37474F"/>
<path d="M196.798 235.923L198.317 235.846L196.722 232.685C196.675 233.753 196.763 234.841 196.798 235.923Z" fill="#263238"/>
<path d="M197.955 221.858C197.421 221.05 196.756 220.34 196.069 219.655C196.503 220.98 196.395 222.503 196.04 223.879C195.566 225.712 194.706 227.431 194.278 229.275C193.755 231.52 193.875 233.933 192.924 236.033C192 238.076 190.057 239.626 187.861 240.074C187.047 240.24 186.143 240.246 185.453 239.785C185.141 239.576 184.908 239.245 184.791 238.888C184.308 239.883 183.74 240.833 183.061 241.71C182.309 242.682 181.376 243.749 181.58 244.961C181.749 245.963 182.703 246.689 183.698 246.896C184.693 247.103 185.724 246.893 186.71 246.647C188.827 246.12 190.931 245.41 192.739 244.187C194.545 242.964 196.043 241.176 196.564 239.057C196.814 238.036 196.833 236.983 196.799 235.923C196.765 234.841 196.677 233.753 196.723 232.685C196.753 231.992 196.84 231.306 197.037 230.637C197.549 228.903 198.762 227.372 198.979 225.595C198.99 225.499 199.012 225.406 199.017 225.31C199.088 224.087 198.629 222.881 197.955 221.858Z" fill="#455A64"/>
<path opacity="0.1" d="M197.955 221.858C197.421 221.05 196.756 220.34 196.069 219.655C196.503 220.98 196.395 222.503 196.04 223.879C195.566 225.712 194.706 227.431 194.278 229.275C193.755 231.52 193.875 233.933 192.924 236.033C192 238.076 190.057 239.626 187.861 240.074C187.047 240.24 186.143 240.246 185.453 239.785C185.141 239.576 184.908 239.245 184.791 238.888C184.308 239.883 183.74 240.833 183.061 241.71C182.309 242.682 181.376 243.749 181.58 244.961C181.749 245.963 182.703 246.689 183.698 246.896C184.693 247.103 185.724 246.893 186.71 246.647C188.827 246.12 190.931 245.41 192.739 244.187C194.545 242.964 196.043 241.176 196.564 239.057C196.814 238.036 196.833 236.983 196.799 235.923C196.765 234.841 196.677 233.753 196.723 232.685C196.753 231.992 196.84 231.306 197.037 230.637C197.549 228.903 198.762 227.372 198.979 225.595C198.99 225.499 199.012 225.406 199.017 225.31C199.088 224.087 198.629 222.881 197.955 221.858Z" fill="black"/>
<path d="M187.86 240.074C190.056 239.625 191.999 238.076 192.923 236.032C193.874 233.933 193.755 231.52 194.277 229.275C194.705 227.431 195.565 225.711 196.039 223.878C196.395 222.502 196.502 220.98 196.068 219.655C195.887 219.474 195.704 219.294 195.521 219.116C192.802 220.525 189.709 221.686 187.233 223.489C187.202 226.663 187.171 229.855 186.628 232.982C186.275 235.017 185.687 237.033 184.789 238.886C184.908 239.244 185.139 239.575 185.451 239.783C186.143 240.245 187.046 240.239 187.86 240.074Z" fill="#AB6160"/>
<path d="M178.625 231.699C178.175 234.326 176.165 239.673 176.165 239.673C176.165 239.673 185.588 240.056 185.796 239.622L188.566 235.339L178.625 231.699Z" fill="#C48281"/>
<path d="M206.834 169.217L182.798 182.613C178.331 185.103 175.952 190.167 176.885 195.197L181.55 220.329L177.724 232.488C181.025 236.916 188.603 237.141 188.603 237.141C192.83 228.66 195.931 225.057 198.332 217.953C200.732 210.847 202.333 205.944 202.333 205.944L222.295 200.487C231.627 197.935 238.508 189.97 239.591 180.354C239.932 177.335 239.947 175.273 239.947 175.273L206.834 169.217Z" fill="#455A64"/>
<path opacity="0.2" d="M205.202 177.134C205.197 179.791 206.168 182.439 207.89 184.462L192.743 193.92C190.255 195.478 188.411 197.882 187.553 200.692L181.55 220.328L186.964 198.459C187.587 195.944 189.17 193.772 191.373 192.409L205.22 183.888C203.62 179.886 205.202 177.134 205.202 177.134Z" fill="black"/>
<path d="M181.276 251.861L181.499 255.395C184.391 254.364 185.429 252.976 185.429 252.976C185.773 250.316 186.023 247.568 186.137 246.229C185.239 247.778 183.521 248.708 182.369 250.102C181.925 250.638 181.576 251.234 181.276 251.861Z" fill="#37474F"/>
<path d="M180.071 254.868L181.498 255.395L181.275 251.861C180.812 252.824 180.465 253.86 180.071 254.868Z" fill="#263238"/>
<path d="M186.663 242.391C186.49 241.437 186.158 240.524 185.795 239.624C185.674 241.013 184.976 242.37 184.108 243.496C182.952 244.995 181.486 246.237 180.367 247.764C179.005 249.623 178.165 251.888 176.466 253.445C174.813 254.959 172.418 255.621 170.222 255.169C169.409 255.001 168.576 254.651 168.122 253.955C167.917 253.641 167.834 253.245 167.866 252.87C167.031 253.596 166.135 254.246 165.166 254.786C164.093 255.383 162.816 255.997 162.527 257.192C162.288 258.18 162.88 259.223 163.713 259.804C164.547 260.386 165.577 260.598 166.58 260.76C168.734 261.107 170.948 261.282 173.09 260.869C175.232 260.455 177.312 259.4 178.623 257.656C179.255 256.816 179.686 255.855 180.071 254.868C180.465 253.859 180.811 252.824 181.274 251.861C181.574 251.234 181.923 250.639 182.367 250.101C183.52 248.708 185.237 247.777 186.135 246.228C186.184 246.145 186.24 246.068 186.283 245.981C186.829 244.885 186.882 243.596 186.663 242.391Z" fill="#455A64"/>
<path d="M170.222 255.168C172.418 255.62 174.813 254.959 176.466 253.444C178.165 251.888 179.004 249.622 180.367 247.763C181.485 246.236 182.951 244.994 184.108 243.495C184.976 242.369 185.673 241.012 185.795 239.623C185.698 239.385 185.602 239.149 185.504 238.913C182.449 239.139 179.149 238.989 176.164 239.673C174.888 242.58 173.605 245.501 171.876 248.164C170.752 249.896 169.419 251.518 167.865 252.869C167.833 253.245 167.916 253.64 168.122 253.955C168.576 254.65 169.409 255.001 170.222 255.168Z" fill="#C48281"/>
<path d="M231.472 133.701C235.393 124.728 235.639 114.213 232.141 105.067C231.021 102.137 229.434 99.2317 226.834 97.4762C223.511 95.2318 219.206 95.2653 215.198 95.3808C213.07 95.442 210.898 95.5111 208.899 96.2463C206.901 96.9815 205.261 98.5604 204.738 100.625C202.119 100.137 199.472 102.211 198.766 104.781C198.059 107.351 198.985 110.158 200.613 112.267C202.242 114.377 204.5 115.9 206.775 117.288C205.401 118.009 204.381 119.677 203.9 121.152C203.418 122.628 203.536 124.289 204.22 125.682C201.803 125.62 199.34 127.395 198.59 129.694C197.84 131.994 198.476 134.617 199.949 136.534C201.423 138.451 203.647 139.703 205.987 140.313C208.326 140.922 210.785 140.931 213.192 140.7C215.681 143.112 220.242 143.061 223.366 141.561C226.489 140.062 230.083 136.877 231.472 133.701Z" fill="#263238"/>
<path d="M209.195 127.647L208.583 127.653C204.487 127.699 199.306 130.487 196.774 137.637L186.935 156.699L198.167 161.681L204.311 143.688L209.195 127.647Z" fill="#C48281"/>
<path d="M201.307 140.297C200.522 142.548 200.473 144.978 200.35 147.358C200.227 149.739 199.951 152.614 198.86 154.734C197.67 153.91 196.211 153.483 194.764 153.536C193.318 153.589 191.893 154.12 190.765 155.028C189.954 155.682 189.352 156.58 188.944 157.59L198.167 161.68L204.311 143.688L207.331 133.767C204.57 135.035 202.31 137.42 201.307 140.297Z" fill="#AB6160"/>
<path d="M198.274 158.241C197.447 156.116 195.443 154.495 193.193 154.132C190.943 153.768 188.392 154.944 186.938 156.7C185.713 158.181 185.905 160.183 186.678 161.943C187.89 164.703 191.268 166.305 194.171 165.494C197.073 164.683 199.366 161.051 198.274 158.241Z" fill="#C48281"/>
<path d="M210.23 127.298C205.893 127.986 203.206 138.955 201.799 143.117C200.343 147.419 202.322 150.541 204.526 153.142C205.334 154.095 205.703 155.345 205.541 156.585L200.982 173.528C213.427 182.772 234.292 178.291 239.948 175.273C239.948 167.536 238 161.726 236.29 158.118C234.641 154.636 233.668 150.872 233.535 147.021L233.321 140.8L234.824 130.071L224.016 127.499L214.494 127.074C214.494 127.074 211.642 127.074 210.23 127.298Z" fill="#F85605"/>
<path opacity="0.4" d="M210.23 127.298C205.893 127.986 203.206 138.955 201.799 143.117C200.343 147.419 202.322 150.541 204.526 153.142C205.334 154.095 205.703 155.345 205.541 156.585L200.982 173.528C213.427 182.772 234.292 178.291 239.948 175.273C239.948 167.536 238 161.726 236.29 158.118C234.641 154.636 233.668 150.872 233.535 147.021L233.321 140.8L234.824 130.071L224.016 127.499L214.494 127.074C214.494 127.074 211.642 127.074 210.23 127.298Z" fill="black"/>
<path d="M210.136 176.245C210.136 176.241 210.135 176.236 210.135 176.232C210.135 176.231 210.134 176.23 210.134 176.229C210.133 176.221 210.132 176.214 210.131 176.207C210.128 176.194 210.125 176.182 210.122 176.169C210.118 176.157 210.115 176.145 210.11 176.132C210.106 176.12 210.101 176.107 210.097 176.095C210.091 176.083 210.086 176.071 210.08 176.058C210.075 176.045 210.069 176.033 210.062 176.02C210.057 176.008 210.049 175.995 210.042 175.982C210.042 175.981 210.042 175.98 210.041 175.979L202.689 162.287C202.682 162.275 202.675 162.262 202.667 162.249C202.66 162.236 202.651 162.222 202.644 162.208C202.635 162.195 202.626 162.18 202.618 162.166C202.609 162.152 202.599 162.138 202.59 162.124C202.58 162.109 202.57 162.095 202.56 162.08C202.549 162.065 202.539 162.05 202.528 162.035C202.517 162.02 202.506 162.006 202.495 161.991C202.484 161.977 202.473 161.962 202.462 161.948C202.451 161.935 202.441 161.921 202.43 161.908C202.42 161.895 202.41 161.883 202.399 161.871C202.391 161.861 202.382 161.85 202.373 161.839C202.364 161.829 202.355 161.819 202.346 161.808C202.339 161.799 202.332 161.791 202.324 161.782C202.318 161.775 202.312 161.768 202.305 161.761C202.299 161.753 202.292 161.746 202.285 161.739C202.279 161.731 202.272 161.724 202.265 161.716C202.26 161.71 202.255 161.704 202.249 161.699C202.244 161.693 202.239 161.688 202.234 161.683C202.229 161.677 202.224 161.672 202.219 161.666C202.214 161.661 202.209 161.655 202.204 161.65C202.199 161.644 202.194 161.639 202.188 161.634C202.184 161.629 202.179 161.624 202.174 161.619C202.17 161.615 202.165 161.61 202.161 161.605C202.156 161.601 202.152 161.595 202.147 161.592C202.143 161.587 202.138 161.583 202.134 161.577C202.129 161.573 202.125 161.568 202.12 161.564C202.116 161.559 202.111 161.555 202.107 161.55C202.102 161.546 202.097 161.541 202.092 161.536C202.087 161.531 202.082 161.526 202.077 161.521C202.072 161.516 202.067 161.511 202.061 161.506C202.056 161.501 202.051 161.497 202.046 161.492C202.041 161.486 202.036 161.482 202.03 161.477C202.025 161.472 202.02 161.466 202.015 161.462C202.007 161.454 201.999 161.446 201.99 161.439C201.981 161.43 201.972 161.421 201.963 161.413C201.953 161.405 201.944 161.396 201.935 161.387C201.9 161.355 201.865 161.323 201.829 161.292C201.821 161.285 201.813 161.278 201.805 161.272C201.798 161.265 201.79 161.258 201.782 161.252C201.775 161.245 201.767 161.238 201.759 161.232C201.751 161.225 201.744 161.219 201.736 161.212C201.731 161.208 201.726 161.204 201.72 161.199C201.715 161.195 201.71 161.191 201.705 161.187C201.7 161.182 201.695 161.178 201.69 161.174C201.685 161.17 201.68 161.166 201.675 161.162C201.669 161.158 201.664 161.154 201.659 161.15C201.654 161.146 201.649 161.141 201.644 161.138C201.638 161.134 201.634 161.129 201.629 161.125C201.624 161.121 201.619 161.118 201.614 161.114C201.609 161.11 201.604 161.106 201.599 161.102C201.594 161.098 201.589 161.094 201.584 161.09C201.579 161.087 201.574 161.083 201.57 161.079C201.564 161.075 201.559 161.071 201.555 161.067C201.55 161.063 201.544 161.059 201.539 161.055C201.533 161.05 201.526 161.046 201.52 161.041C201.515 161.037 201.508 161.032 201.502 161.028C201.497 161.023 201.49 161.019 201.484 161.014C201.479 161.01 201.472 161.005 201.466 161.001C201.459 160.996 201.453 160.992 201.447 160.987C201.439 160.981 201.43 160.975 201.422 160.969C201.413 160.963 201.405 160.957 201.397 160.951C201.388 160.945 201.38 160.94 201.372 160.934C201.363 160.927 201.353 160.921 201.344 160.915C201.332 160.907 201.32 160.899 201.308 160.891C201.296 160.883 201.284 160.876 201.272 160.868C201.259 160.859 201.245 160.851 201.232 160.841C201.217 160.832 201.202 160.823 201.187 160.814C201.172 160.804 201.157 160.795 201.141 160.786C201.125 160.776 201.109 160.767 201.093 160.758C201.084 160.752 201.074 160.747 201.065 160.742L192.612 155.985C192.605 155.981 192.599 155.977 192.592 155.974C192.576 155.965 192.56 155.956 192.543 155.948C192.527 155.939 192.512 155.931 192.496 155.923C192.48 155.915 192.465 155.908 192.449 155.901C192.434 155.893 192.418 155.886 192.404 155.879C192.389 155.873 192.374 155.866 192.359 155.86C192.344 155.853 192.329 155.848 192.314 155.842C192.299 155.836 192.284 155.831 192.27 155.826C192.255 155.821 192.239 155.815 192.224 155.811C192.208 155.806 192.193 155.802 192.178 155.798C192.167 155.795 192.157 155.794 192.147 155.792C192.146 155.792 192.145 155.791 192.144 155.791C192.14 155.79 192.135 155.789 192.131 155.788C192.113 155.785 192.097 155.783 192.081 155.781C192.059 155.779 192.039 155.779 192.021 155.78C191.964 155.783 191.921 155.801 191.894 155.832L190.885 156.987C190.891 156.98 190.912 156.987 190.919 156.981C190.836 157.043 190.83 157.18 190.951 157.404L198.303 171.095C198.568 171.588 199.288 172.276 199.924 172.633L208.376 177.389C208.812 177.635 209.073 177.64 209.111 177.462C209.105 177.488 209.109 177.522 209.094 177.54L210.102 176.385C210.115 176.37 210.125 176.352 210.131 176.332C210.135 176.318 210.137 176.302 210.138 176.285C210.138 176.274 210.138 176.26 210.136 176.245ZM191.077 156.955C191.102 156.956 191.108 156.94 191.136 156.945C191.137 156.945 191.138 156.946 191.139 156.946C191.146 156.947 191.161 156.956 191.168 156.958C191.131 156.949 191.109 156.957 191.077 156.955ZM209.122 177.407C209.117 177.335 209.093 177.246 209.033 177.133C209.086 177.233 209.116 177.316 209.126 177.384C209.126 177.384 209.126 177.386 209.126 177.386C209.128 177.396 209.121 177.399 209.122 177.407Z" fill="#455A64"/>
<path opacity="0.15" d="M210.135 176.245C210.134 176.241 210.133 176.236 210.133 176.233C210.133 176.231 210.132 176.23 210.132 176.229C210.131 176.222 210.13 176.215 210.129 176.207C210.126 176.195 210.123 176.182 210.12 176.169C210.117 176.157 210.113 176.145 210.108 176.132C210.104 176.12 210.099 176.107 210.095 176.095C210.09 176.083 210.084 176.071 210.079 176.058C210.073 176.046 210.067 176.033 210.061 176.02C210.055 176.008 210.048 175.995 210.041 175.982L210.039 175.979L202.687 162.288L201.679 163.442L209.031 177.134C209.084 177.233 209.114 177.316 209.124 177.384V177.386C209.133 177.454 209.122 177.505 209.092 177.54L210.1 176.385C210.113 176.371 210.122 176.353 210.128 176.332C210.132 176.318 210.135 176.302 210.135 176.285C210.137 176.274 210.136 176.26 210.135 176.245Z" fill="white"/>
<path opacity="0.2" d="M202.664 162.25C202.656 162.236 202.648 162.223 202.64 162.209C202.632 162.195 202.623 162.181 202.614 162.167C202.605 162.153 202.596 162.138 202.587 162.124C202.577 162.11 202.567 162.095 202.556 162.08C202.546 162.065 202.535 162.051 202.525 162.036C202.514 162.021 202.503 162.006 202.491 161.991C202.48 161.977 202.469 161.963 202.458 161.949C202.448 161.935 202.437 161.922 202.426 161.908C202.416 161.896 202.406 161.884 202.396 161.871C202.387 161.861 202.378 161.851 202.369 161.84C202.36 161.829 202.352 161.819 202.343 161.808C202.336 161.8 202.328 161.791 202.321 161.783C202.314 161.775 202.308 161.768 202.302 161.761C202.295 161.754 202.288 161.746 202.282 161.739C202.275 161.731 202.268 161.724 202.262 161.717C202.256 161.711 202.251 161.705 202.245 161.699C202.24 161.694 202.235 161.688 202.231 161.683C202.226 161.677 202.22 161.672 202.216 161.667C202.211 161.662 202.206 161.656 202.2 161.651C202.195 161.645 202.19 161.64 202.185 161.635C202.18 161.629 202.175 161.625 202.171 161.62C202.166 161.615 202.162 161.611 202.157 161.606C202.153 161.601 202.148 161.596 202.144 161.592C202.139 161.588 202.135 161.583 202.13 161.578C202.126 161.573 202.121 161.569 202.117 161.564C202.112 161.56 202.108 161.555 202.103 161.551C202.098 161.546 202.093 161.541 202.089 161.537C202.084 161.531 202.079 161.527 202.073 161.522C202.068 161.517 202.063 161.511 202.058 161.507C202.053 161.502 202.048 161.497 202.042 161.492C202.037 161.487 202.032 161.482 202.027 161.477C202.022 161.473 202.017 161.467 202.011 161.462C202.003 161.455 201.995 161.447 201.987 161.439C201.978 161.43 201.969 161.422 201.959 161.413C201.95 161.405 201.941 161.396 201.932 161.388C201.897 161.355 201.861 161.324 201.825 161.292C201.817 161.286 201.81 161.279 201.802 161.272C201.794 161.266 201.786 161.259 201.779 161.252C201.771 161.246 201.763 161.239 201.756 161.232C201.748 161.226 201.74 161.219 201.732 161.213C201.727 161.208 201.722 161.204 201.717 161.2C201.712 161.195 201.707 161.192 201.701 161.187C201.696 161.183 201.691 161.179 201.687 161.175C201.681 161.17 201.676 161.166 201.671 161.163C201.666 161.159 201.661 161.154 201.656 161.15C201.65 161.146 201.645 161.142 201.64 161.138C201.635 161.134 201.63 161.13 201.625 161.126C201.62 161.122 201.616 161.118 201.61 161.114C201.605 161.11 201.6 161.106 201.596 161.103C201.59 161.099 201.586 161.095 201.581 161.091C201.576 161.087 201.57 161.083 201.566 161.079C201.561 161.075 201.556 161.072 201.551 161.068C201.546 161.063 201.54 161.059 201.535 161.055C201.529 161.051 201.523 161.046 201.517 161.042C201.511 161.037 201.505 161.033 201.499 161.028C201.493 161.024 201.487 161.019 201.481 161.015C201.475 161.01 201.469 161.006 201.462 161.001C201.456 160.997 201.45 160.992 201.443 160.988C201.435 160.982 201.427 160.975 201.418 160.97C201.41 160.963 201.402 160.957 201.393 160.952C201.385 160.946 201.376 160.94 201.368 160.934C201.359 160.928 201.349 160.921 201.34 160.916C201.328 160.907 201.316 160.899 201.304 160.892C201.293 160.884 201.28 160.876 201.269 160.868C201.255 160.859 201.242 160.851 201.228 160.842C201.213 160.833 201.198 160.823 201.184 160.814C201.168 160.805 201.153 160.796 201.138 160.787C201.122 160.777 201.106 160.767 201.09 160.758C201.08 160.753 201.071 160.747 201.061 160.742L192.609 155.986C192.602 155.982 192.595 155.978 192.589 155.975C192.572 155.966 192.556 155.957 192.54 155.948C192.524 155.94 192.508 155.931 192.492 155.924C192.477 155.916 192.461 155.908 192.446 155.901C192.43 155.893 192.415 155.887 192.4 155.88C192.385 155.873 192.37 155.866 192.356 155.86C192.34 155.854 192.325 155.848 192.31 155.842C192.296 155.837 192.281 155.831 192.267 155.826C192.251 155.821 192.236 155.816 192.221 155.811C192.205 155.806 192.189 155.802 192.174 155.799C192.163 155.796 192.154 155.794 192.143 155.792L192.141 155.791C192.136 155.791 192.132 155.789 192.127 155.789C192.11 155.786 192.093 155.783 192.077 155.782C192.056 155.78 192.036 155.779 192.018 155.78C191.96 155.784 191.918 155.801 191.89 155.833L190.882 156.987C190.926 156.936 191.012 156.922 191.133 156.947L191.135 156.947C191.256 156.972 191.413 157.036 191.6 157.141L200.052 161.897C200.208 161.985 200.371 162.094 200.532 162.216L200.533 162.217C200.693 162.339 200.852 162.474 200.998 162.614L200.999 162.614C201.146 162.754 201.281 162.898 201.397 163.039L201.398 163.041C201.514 163.181 201.61 163.318 201.677 163.443L202.685 162.289C202.678 162.275 202.671 162.263 202.664 162.25Z" fill="white"/>
<path d="M239.004 133.659C237.807 131.601 236.234 130.02 233.86 129.841C233.86 129.841 229.966 131.851 229.966 140.985L230.221 163.833L230.225 163.835C229.665 164.062 229.108 164.299 228.55 164.531C223.927 166.452 218.798 168.161 213.858 168.972C211.377 166.878 207.838 165.791 204.592 165.827L205.839 168.149C203.477 169.662 198.141 166.935 198.141 166.935C197.749 170.265 199.906 173.723 202.766 175.472C205.626 177.221 232.929 174.653 238.72 170.902C242.526 168.436 241.627 144.88 241.627 144.88C241.892 140.961 240.979 137.053 239.004 133.659Z" fill="#C48281"/>
<path d="M192.371 160.041C192.292 160.762 191.978 162.051 192.06 162.773C192.305 164.934 193.177 167.056 194.694 168.614C195.019 168.949 195.385 169.263 195.826 169.414C196.267 169.565 196.8 169.522 197.142 169.205C197.505 168.867 197.571 168.324 197.601 167.83C197.644 167.089 197.655 166.338 197.479 165.617C197.303 164.897 196.921 164.204 196.313 163.781C195.87 163.472 195.338 163.324 194.834 163.129C194.331 162.932 193.914 162.599 193.516 162.174L192.371 160.041Z" fill="#C48281"/>
<path d="M214.495 122.829V131.459C213.649 132.258 212.841 133.173 212.762 134.313C212.686 135.401 213.355 136.465 214.302 137.006C215.248 137.546 216.422 137.604 217.472 137.313C218.523 137.022 219.461 136.41 220.276 135.686C222.495 133.716 224.017 130.418 224.017 127.498V118.758L214.495 122.829Z" fill="#C48281"/>
<path d="M223.647 118.758C222.748 123.508 220.898 127.62 214.493 129.098V122.829L223.647 118.758Z" fill="#AB6160"/>
<path d="M221.414 113.752C221.34 114.327 221.284 115.477 221.401 116.044C221.518 116.612 221.786 117.16 222.222 117.541C222.657 117.922 223.219 118.074 223.78 117.933C223.419 116.454 224.39 114.778 225.853 114.356C227.315 113.934 229.029 114.836 229.511 116.28C229.856 117.316 229.599 118.489 229.014 119.41C228.428 120.333 227.546 121.03 226.608 121.59C225.49 122.051 224.194 121.557 223.551 120.532C220.801 124.329 215.856 127.295 211.101 127.093C209.809 127.038 208.498 126.718 207.445 125.969C205.596 124.654 205.378 122.566 205.066 120.509C204.671 117.904 204.491 115.247 204.805 112.624C205.238 108.997 206.697 105.391 209.397 102.933C211.342 110.7 218.642 113.288 221.414 113.752Z" fill="#C48281"/>
<path d="M211.508 113.265L208.428 117.399L211.488 118.313L211.508 113.265Z" fill="#AB6160"/>
<path d="M214.339 120.148C213.507 120.449 212.676 120.751 211.845 121.052C212.134 121.627 212.978 121.953 213.59 121.753C214.201 121.552 214.447 120.783 214.339 120.148Z" fill="#AB6160"/>
<path opacity="0.3" d="M214.339 120.148C213.507 120.449 212.676 120.751 211.845 121.052C212.134 121.627 212.978 121.953 213.59 121.753C214.201 121.552 214.447 120.783 214.339 120.148Z" fill="black"/>
<path d="M212.758 121.744C213.038 121.825 213.334 121.837 213.59 121.753C214.07 121.595 214.322 121.087 214.356 120.569C214.019 120.536 213.67 120.61 213.387 120.796C213.06 121.01 212.837 121.363 212.758 121.744Z" fill="#AB6160"/>
<path d="M216.013 113.914C216.011 114.412 215.605 114.815 215.107 114.812C214.609 114.81 214.207 114.404 214.209 113.907C214.211 113.409 214.617 113.006 215.114 113.009C215.613 113.011 216.015 113.416 216.013 113.914Z" fill="#263238"/>
<path d="M208.445 113.591C208.443 114.088 208.038 114.491 207.54 114.489C207.042 114.487 206.639 114.081 206.641 113.583C206.643 113.086 207.049 112.683 207.547 112.685C208.045 112.688 208.448 113.093 208.445 113.591Z" fill="#263238"/>
<path d="M207.583 109.998C206.915 110.456 206.246 110.914 205.578 111.372C205.382 110.897 205.576 110.282 205.975 109.959C206.374 109.635 207.158 109.709 207.583 109.998Z" fill="#263238"/>
<path d="M215.302 109.923C215.967 110.386 216.631 110.85 217.296 111.313C217.495 110.84 217.307 110.223 216.912 109.896C216.514 109.57 215.729 109.636 215.302 109.923Z" fill="#263238"/>
</svg>
