<svg width="27" height="29" viewBox="0 0 27 29" fill="none" xmlns="http://www.w3.org/2000/svg">
<g clip-path="url(#clip0_599_3115)">
<path d="M13.6646 12.1272V17.549H21.0187C20.6957 19.2927 19.7267 20.7691 18.2733 21.7618L22.7081 25.2873C25.2919 22.8438 26.7826 19.2546 26.7826 14.991C26.7826 13.9983 26.6957 13.0436 26.5342 12.1273L13.6646 12.1272Z" fill="#4285F4"/>
<path d="M6.00654 17.3374L5.00633 18.1218L1.46588 20.9473C3.71433 25.5163 8.32271 28.6728 13.6643 28.6728C17.3537 28.6728 20.4468 27.4255 22.7078 25.2873L18.273 21.7618C17.0556 22.6018 15.5028 23.111 13.6643 23.111C10.1115 23.111 7.09296 20.6546 6.01213 17.3455L6.00654 17.3374Z" fill="#34A853"/>
<path d="M1.46592 8.39811C0.534292 10.2817 0.000183105 12.4072 0.000183105 14.6726C0.000183105 16.938 0.534292 19.0635 1.46592 20.9471C1.46592 20.9597 6.01261 17.3325 6.01261 17.3325C5.73932 16.4925 5.57778 15.6017 5.57778 14.6725C5.57778 13.7432 5.73932 12.8524 6.01261 12.0124L1.46592 8.39811Z" fill="#FBBC05"/>
<path d="M13.6646 6.24718C15.6771 6.24718 17.4659 6.95989 18.8944 8.33447L22.8075 4.3254C20.4348 2.05997 17.3541 0.672607 13.6646 0.672607C8.323 0.672607 3.71434 3.81626 1.46588 8.39811L6.01243 12.0127C7.09312 8.70354 10.1118 6.24718 13.6646 6.24718Z" fill="#EA4335"/>
</g>
<defs>
<clipPath id="clip0_599_3115">
<rect width="26.7826" height="28" fill="white" transform="translate(0 0.672607)"/>
</clipPath>
</defs>
</svg>
