<svg width="266" height="263" viewBox="0 0 266 263" fill="none" xmlns="http://www.w3.org/2000/svg">
<path d="M38.9546 240.447C-12.9849 210.376 -12.9849 161.621 38.9546 131.551C90.894 101.48 175.105 101.48 227.045 131.551C278.985 161.621 278.985 210.376 227.045 240.447C175.105 270.518 90.894 270.518 38.9546 240.447Z" fill="#F5F5F5"/>
<path d="M80.5185 241.896C103.055 241.896 121.325 231.319 121.325 218.271C121.325 205.223 103.055 194.646 80.5185 194.646C57.9819 194.646 39.7124 205.223 39.7124 218.271C39.7124 231.319 57.9819 241.896 80.5185 241.896Z" fill="#E0E0E0"/>
<path d="M174.845 207.243C203.144 191.939 219.928 168.084 212.334 153.963C204.739 139.842 175.642 140.801 147.343 156.106C119.043 171.41 102.259 195.264 109.854 209.386C117.448 223.507 146.546 222.547 174.845 207.243Z" fill="#E0E0E0"/>
<path d="M202.994 173.69C208.653 166.925 217.517 162.517 227.484 159.917C237.324 157.35 239.089 151.278 232.566 149.308C225.171 147.075 215.945 151.179 209.995 156.887C199.627 166.835 198.327 174.449 198.327 174.449L202.994 173.69Z" fill="#F85605"/>
<path opacity="0.15" d="M202.994 173.69C208.653 166.925 217.517 162.517 227.484 159.917C237.324 157.35 239.089 151.278 232.566 149.308C225.171 147.075 215.945 151.179 209.995 156.887C199.627 166.835 198.327 174.449 198.327 174.449L202.994 173.69Z" fill="black"/>
<path d="M200.078 173.294C200.035 173.294 199.993 173.284 199.952 173.265C199.809 173.195 199.75 173.023 199.82 172.88C208.218 155.6 226.804 151.349 231.322 151.669C231.48 151.681 231.598 151.819 231.587 151.978C231.575 152.136 231.429 152.255 231.279 152.244C226.868 151.905 208.606 156.119 200.336 173.132C200.286 173.235 200.184 173.294 200.078 173.294Z" fill="white"/>
<path d="M198.324 175.487C198.324 176.709 199.644 177.45 200.697 176.835C205.958 173.762 213.634 172.066 226.056 175.609C232.659 177.494 235.91 176.233 237.303 173.536C238.85 170.541 235.572 167.646 231.843 166.28C219.131 161.622 207.657 164.802 198.323 174.095L198.324 175.487Z" fill="#F85605"/>
<path d="M199.048 175.735C198.969 175.735 198.891 175.702 198.834 175.638C198.729 175.52 198.739 175.338 198.857 175.232C209.832 165.395 226.837 167.309 233.273 171.146C233.409 171.228 233.454 171.404 233.373 171.542C233.291 171.678 233.115 171.722 232.979 171.642C226.673 167.883 210.006 166.012 199.24 175.661C199.185 175.71 199.117 175.735 199.048 175.735Z" fill="white"/>
<path d="M75.5021 198.425C70.6779 191.039 62.395 185.613 52.8029 181.852C43.3332 178.138 42.2958 171.9 49.0053 170.716C56.6109 169.372 65.2902 174.54 70.5262 180.911C79.6518 192.016 80.0465 199.731 80.0465 199.731L75.5021 198.425Z" fill="#F85605"/>
<path opacity="0.15" d="M75.5021 198.425C70.6779 191.039 62.395 185.613 52.8029 181.852C43.3332 178.138 42.2958 171.9 49.0053 170.716C56.6109 169.372 65.2902 174.54 70.5262 180.911C79.6518 192.016 80.0465 199.731 80.0465 199.731L75.5021 198.425Z" fill="black"/>
<path d="M78.4403 198.378C78.4828 198.383 78.5259 198.378 78.5684 198.363C78.7189 198.311 78.7976 198.147 78.7453 197.997C72.4385 179.844 54.4831 173.424 49.9588 173.207C49.8003 173.2 49.6664 173.323 49.659 173.482C49.6521 173.641 49.7836 173.776 49.9335 173.783C54.3545 173.968 71.9933 180.313 78.203 198.187C78.2404 198.294 78.3351 198.366 78.4403 198.378Z" fill="white"/>
<path d="M80.0917 199.38C79.8803 201.161 77.8709 202.086 76.3848 201.087C71.5159 197.815 64.2601 195.693 52.3754 197.603C45.5958 198.693 42.5163 197.057 41.4501 194.214C40.2662 191.056 43.8616 188.57 47.7259 187.654C60.8973 184.532 71.9162 189.047 80.0917 199.38Z" fill="#F85605"/>
<path d="M79.1789 200.922C79.2576 200.932 79.3392 200.909 79.403 200.852C79.5219 200.747 79.5328 200.565 79.4277 200.445C69.6868 189.379 52.5753 189.269 45.7332 192.318C45.5884 192.382 45.5229 192.553 45.5872 192.698C45.6522 192.843 45.8216 192.908 45.9664 192.844C52.6696 189.857 69.441 189.971 78.9968 200.827C79.0462 200.882 79.1112 200.914 79.1789 200.922Z" fill="white"/>
<path d="M208.152 66.8094L208.154 66.8053L208.063 66.7587C208.06 66.757 208.057 66.7552 208.053 66.7535L186.156 54.1128C186.149 54.1094 186.142 54.1059 186.135 54.1019L186.007 54.0362L186.005 54.042C175.776 48.8674 162.126 50.4193 147.445 59.9384C117.952 79.0629 95.4773 123.083 97.2472 158.259C98.1295 175.792 104.871 187.815 115.061 193.1L115.059 193.104L115.149 193.15C115.153 193.153 115.157 193.154 115.161 193.156L137.062 205.799C137.066 205.801 137.069 205.802 137.072 205.804L137.18 205.859L137.182 205.855C147.414 211.046 161.075 209.498 175.768 199.971C205.261 180.845 227.736 136.827 225.966 101.651C225.084 84.1171 218.342 72.094 208.152 66.8094Z" fill="#C7C7C7"/>
<path d="M136.319 205.399L115.169 193.154C115.153 193.155 115.153 193.155 115.153 193.155L115.055 193.095C104.87 187.797 98.1316 175.774 97.251 158.265C96.4612 142.578 100.504 125.14 107.818 108.946L107.966 108.591L129.723 121.585C122.393 137.78 118.366 155.217 119.156 170.905C120.018 188.061 126.493 199.938 136.319 205.399Z" fill="#CFCFCF"/>
<path d="M175.767 199.97C205.26 180.845 227.734 136.826 225.964 101.65C224.195 66.4746 198.851 53.4624 169.357 72.5875C139.863 91.7121 117.389 135.731 119.159 170.907C120.929 206.083 146.273 219.094 175.767 199.97Z" fill="#B0B0B0"/>
<path d="M200.742 64.0806L163.778 140.429L155.821 131.782C153.367 129.108 149.868 127.575 146.223 127.575C142.925 127.575 139.771 128.807 137.341 131.048C132.051 135.95 131.721 144.261 136.607 149.576L157.566 172.343C159.886 174.864 163.047 176.353 166.465 176.539C166.706 176.551 166.948 176.558 167.19 176.558C167.815 176.558 168.449 176.513 169.085 176.422C173.373 175.784 177.056 173.074 178.936 169.177L221.33 81.6135C217.002 71.9055 209.76 65.868 200.742 64.0806Z" fill="#C7C7C7"/>
<path d="M230.766 38.9296C230.535 38.7965 230.298 38.6704 230.055 38.5523C224.411 35.8161 217.602 38.1761 214.878 43.8185L167.84 140.974L165.168 138.07C164.372 137.204 163.471 136.492 162.501 135.935C161.098 135.128 155.136 131.666 154.171 131.108C149.991 128.688 144.536 129.144 140.782 132.605C136.189 136.861 135.903 144.077 140.145 148.691L161.104 171.459C161.901 172.326 162.814 173.049 163.81 173.618C165.178 174.398 171.12 177.852 172.092 178.418C173.624 179.31 175.356 179.833 177.173 179.931C177.922 179.972 178.674 179.941 179.446 179.831C183.167 179.276 186.369 176.923 188 173.541L243.648 58.6026C246.261 53.1935 244.222 46.7142 239.116 43.7649C238.883 43.6295 232.252 39.7873 230.766 38.9296Z" fill="#F85605"/>
<path opacity="0.15" d="M230.766 38.9296C230.535 38.7965 230.298 38.6704 230.055 38.5523C224.411 35.8161 217.602 38.1761 214.878 43.8185L167.84 140.974L165.168 138.07C164.372 137.204 163.471 136.492 162.501 135.935C161.098 135.128 155.136 131.666 154.171 131.108C149.991 128.688 144.536 129.144 140.782 132.605C136.189 136.861 135.903 144.077 140.145 148.691L161.104 171.459C161.901 172.326 162.814 173.049 163.81 173.618C165.178 174.398 171.12 177.852 172.092 178.418C173.624 179.31 175.356 179.833 177.173 179.931C177.922 179.972 178.674 179.941 179.446 179.831C183.167 179.276 186.369 176.923 188 173.541L243.648 58.6026C246.261 53.1935 244.222 46.7142 239.116 43.7649C238.883 43.6295 232.252 39.7873 230.766 38.9296Z" fill="black"/>
<path opacity="0.15" d="M172.088 178.417C171.12 177.853 165.177 174.399 163.807 173.615C162.812 173.047 161.897 172.323 161.1 171.459L140.141 148.692C139.189 147.652 138.473 146.472 137.975 145.232L146.31 150.055C146.802 151.299 147.529 152.479 148.487 153.52L169.446 176.287C170.227 177.134 171.115 177.848 172.088 178.417Z" fill="black"/>
<path opacity="0.15" d="M225.855 45.1447C224.785 46.0998 223.886 47.2795 223.223 48.6476L174.843 148.58L167.845 140.974L214.883 43.8198C215.541 42.4465 216.451 41.272 217.521 40.3169L225.855 45.1447Z" fill="black"/>
<path d="M238.398 43.3829C232.754 40.6467 225.946 43.0067 223.222 48.6485L174.84 148.58L165.169 138.07C160.943 133.468 153.746 133.175 149.126 137.435C144.533 141.691 144.247 148.907 148.488 153.521L169.447 176.289C171.461 178.476 174.205 179.77 177.174 179.931C177.923 179.971 178.675 179.941 179.447 179.831C183.169 179.276 186.37 176.922 188.001 173.541L243.649 58.6025C246.38 52.9463 244.027 46.1196 238.398 43.3829Z" fill="#F85605"/>
<path d="M79.7074 54.6059C75.3261 54.6059 72.3253 55.75 69.2129 60.1953C66.3585 64.2725 58.5053 77.8665 58.5053 77.8665C58.5053 77.8665 52.7787 66.0496 52.1836 63.6918C51.5884 61.3347 51.6413 60.288 52.2071 59.2644C52.9039 58.0034 53.5255 56.8986 53.6576 55.2114C53.8793 52.3813 54.5727 49.9561 53.9385 49.8755C52.1841 49.7747 52.1181 52.0305 51.1972 53.3651C50.8687 53.841 49.7945 53.9107 49.432 53.171C49.0448 52.3818 49.2533 51.0875 49.0655 50.1543C49.1494 49.3473 49.2223 49.0863 49.3136 48.6134C49.8077 48.7286 50.5263 48.7424 51.3242 48.6698C52.0813 49.8634 52.6012 50.3651 53.6576 49.8807C53.7972 49.6572 53.2038 48.1272 52.5167 47.0241C52.4082 46.8495 52.2427 46.717 52.0451 46.6623C50.9836 46.3685 49.7801 46.2965 48.1493 46.5552C47.9568 46.5857 47.7586 46.6715 47.6501 46.8334C47.0417 47.7378 46.6775 48.6537 46.5293 49.1191C46.4512 49.3645 46.2249 49.3582 46.168 49.1456C45.6079 46.3639 45.5999 42.414 45.5999 40.5615C45.5999 39.1064 43.4762 38.8777 43.4021 40.9624C43.3262 43.0978 43.2711 47.0506 43.5457 49.357C43.5784 49.6082 43.2952 49.7286 43.1924 49.4532C42.8224 48.4648 41.9211 45.4889 41.5432 40.3512C41.4415 38.971 39.2126 38.7429 39.2293 40.6853C39.2747 46.0079 40.5051 50.9152 40.5051 50.9152C40.5701 51.1589 40.35 51.372 40.1817 51.0961C39.4407 49.8807 38.2752 46.8616 37.6852 44.7844C37.2124 43.1179 34.9905 43.5408 35.3788 45.6191C36.0756 49.3467 37.1791 54.0633 38.8226 57.4303C40.5804 61.0317 42.1015 62.833 42.9724 65.6619C43.8432 68.4914 47.4599 84.5117 51.3248 90.756C54.3527 95.6483 57.8171 95.1984 61.543 92.6177C65.2688 90.0371 78.5913 71.4229 78.5913 71.4229L79.7074 54.6059Z" fill="#EAC4C4"/>
<path d="M58.5073 77.8658C58.5073 77.8658 60.376 81.0432 60.6598 83.5807C60.6598 83.5807 61.5622 79.947 59.3426 76.4263L58.5073 77.8658Z" fill="#D39999"/>
<path d="M80.6388 54.6201C78.41 54.3903 75.6395 54.3131 72.5438 56.2642C69.4481 58.2152 68.3745 60.9393 66.8763 63.3166C65.3782 65.6945 60.1938 74.1243 60.1938 74.1243C60.1938 74.1243 62.0947 82.1261 69.6578 83.7747L80.9801 68.3691L80.6388 54.6201Z" fill="#455A64"/>
<path d="M90.7935 195.299C91.3461 195.229 92.1285 197.19 92.14 197.831C92.1509 198.471 91.511 199.847 90.6631 201.137C89.8158 202.426 88.6416 204.022 87.8799 206.106C87.2308 207.88 86.6317 209.044 84.8245 211.368C82.811 213.956 78.0926 218.284 70.9207 216.399C69.1703 215.94 68.2949 215.386 67.6613 214.748C67.1265 214.209 66.8726 213.335 67.1598 212.548L90.7935 195.299Z" fill="#263238"/>
<path d="M76.709 193.055C76.7033 193.075 76.6981 193.096 76.6935 193.116C76.5694 193.645 76.6745 194.196 76.7412 194.736C76.9755 196.626 76.7245 198.575 76.018 200.345C75.5429 201.533 74.8633 202.639 74.0223 203.602C73.1658 204.582 71.7642 205.619 70.671 206.319C67.0377 208.645 66.6476 210.198 67.1595 212.547C68.3744 215.284 76.6096 216.949 81.3436 212.873C83.1933 211.28 84.5973 209.881 85.8495 206.729C86.7302 204.512 87.389 203.257 88.2375 201.66C89.1549 199.934 90.8909 197.984 90.9414 196.203C90.969 195.225 90.0033 193.406 89.0647 191.906C88.2036 190.531 87.3167 189.222 86.5417 189.376L86.7554 190.153C86.1103 190.826 85.1728 191.077 84.607 191.866C83.9091 192.84 83.9343 194.149 83.5001 195.267C83.4581 195.374 83.3995 195.492 83.2893 195.525C83.1721 195.561 83.0445 195.479 82.9871 195.371C82.9296 195.263 82.9245 195.135 82.9205 195.012C82.9038 194.453 82.8866 193.894 82.8699 193.335C82.8601 193.016 82.84 192.667 82.6281 192.427C82.18 191.919 81.0748 191.979 80.4613 191.954C79.6197 191.919 78.8195 192.051 77.9866 192.103C77.6769 192.123 77.4449 192.104 77.1812 192.316C76.9526 192.502 76.7883 192.771 76.709 193.055Z" fill="#37474F"/>
<path d="M64.5387 159.565C66.4527 165.872 75.3951 187.707 75.9322 189.021C76.4699 190.335 77.7112 193.355 77.7112 193.355C77.7112 193.355 79.172 193.958 81.3434 193.507C81.5313 195.598 81.8461 198.878 81.9702 200.532C82.0115 202.45 82.1781 204.819 81.7668 206.715C81.4158 208.33 81.0103 210.023 80.7064 211.641C80.572 212.358 80.4375 213.074 80.3301 213.795C80.2158 214.557 80.1423 215.381 80.5099 216.058C80.6823 216.375 80.9413 216.637 81.2194 216.866C82.4584 217.889 84.126 218.323 85.7259 218.193C86.572 218.124 87.4239 217.896 88.1138 217.4C89.5034 216.401 89.9928 214.667 90.7 213.193C91.468 211.594 91.2187 211.419 91.2842 209.706C91.3301 208.508 91.661 205.466 92.1389 202.287C92.6169 199.109 94.674 187.933 95.6609 176.796C96.3439 169.086 95.6603 161.935 95.6603 161.935C103.508 140.557 107.002 127.848 108.027 120.747C109.07 113.534 108.57 110.968 108.438 106.816L70.2791 107.737C67.2116 127.516 61.9709 151.106 64.5387 159.565Z" fill="#EAC4C4"/>
<path d="M63.9437 143.778C64.7296 136.509 70.1517 108.564 70.1517 108.564H108.596C108.596 108.564 108.839 113.929 108.77 116.392C108.7 118.855 107.912 123.362 106.535 129.055C105.158 134.748 100.075 150.879 99.0928 153.26C98.1099 155.641 96.2067 162.518 96.2067 162.518C97.15 175.446 94.6983 187.047 92.8595 202.465C92.8595 202.465 92.3275 204.548 86.8789 204.135C81.5843 203.734 80.5158 201.778 80.5158 201.778L80.1614 188.473C80.1614 188.473 77.2662 189.364 75.5664 188.956C75.5664 188.956 64.1873 160.787 63.637 159.089C63.0884 157.391 63.1573 151.047 63.9437 143.778Z" fill="#F85605"/>
<path opacity="0.45" d="M63.9437 143.778C64.7296 136.509 70.1517 108.564 70.1517 108.564H108.596C108.596 108.564 108.839 113.929 108.77 116.392C108.7 118.855 107.912 123.362 106.535 129.055C105.158 134.748 100.075 150.879 99.0928 153.26C98.1099 155.641 96.2067 162.518 96.2067 162.518C97.15 175.446 94.6983 187.047 92.8595 202.465C92.8595 202.465 92.3275 204.548 86.8789 204.135C81.5843 203.734 80.5158 201.778 80.5158 201.778L80.1614 188.473C80.1614 188.473 77.2662 189.364 75.5664 188.956C75.5664 188.956 64.1873 160.787 63.637 159.089C63.0884 157.391 63.1573 151.047 63.9437 143.778Z" fill="black"/>
<path opacity="0.2" d="M80.2485 126.781C74.8051 121.859 73.5947 117.943 73.5947 117.943C77.652 122.745 83.1805 125.645 83.1805 125.645C83.1805 125.645 78.0116 153.02 78.3879 158.648C78.7636 164.277 80.1629 188.473 80.1629 188.473C80.1733 188.706 76.498 162.883 76.3934 160.819C76.1183 155.383 80.2485 126.781 80.2485 126.781Z" fill="black"/>
<path d="M92.2321 216.173C92.7681 216.326 92.7009 217.93 92.459 218.524C92.2172 219.118 91.2625 220.254 89.9751 221.106C88.6878 221.958 87.4901 223.151 86.3297 225.044C85.5048 226.389 83.4253 228.949 80.6134 230.639C77.8021 232.329 73.6466 232.92 70.5595 232.04C66.9532 231.013 66.6171 230.127 66.651 228.763L92.2321 216.173Z" fill="#263238"/>
<path d="M81.075 207.796C80.1295 212.426 78.4803 215.788 74.6562 218.637C71.6157 220.903 69.4064 222.054 66.9805 224.08C65.9471 224.943 65.8603 226.781 66.6525 228.763C68.2919 230.084 70.6242 230.839 73.7572 230.834C77.2584 230.829 78.6055 230.21 80.6149 228.83C81.7718 228.036 82.572 227.311 83.359 226.519C85.041 224.826 86.2134 222.737 87.4278 221.395C88.6422 220.053 91.2679 218.683 92.0147 217.064C92.4249 216.174 92.2508 214.117 91.9762 212.366C91.724 210.759 92.2152 207.937 91.442 207.773C91.4587 207.776 91.3369 208.922 91.3369 208.922C91.2737 209.183 91.1117 209.315 90.57 209.503C90.2081 209.629 89.4688 209.61 89.0914 209.547C88.6496 209.474 88.3969 209.481 88.1028 209.828C87.584 210.441 87.4462 211.303 86.7815 211.809C86.735 211.845 86.685 211.878 86.6276 211.891C86.5707 211.903 86.5047 211.89 86.4673 211.845C86.426 211.795 86.4311 211.721 86.438 211.656C86.5018 211.083 86.5661 210.508 86.6299 209.934C86.6494 209.761 86.6684 209.585 86.6442 209.412C86.5989 209.092 86.357 208.818 86.0893 208.655C85.6212 208.369 85.0726 208.16 84.5458 208.012C83.9869 207.856 83.4113 207.772 82.834 207.72C82.2538 207.666 81.6483 207.655 81.075 207.796Z" fill="#455A64"/>
<path d="M105.121 56.2645C105.121 56.2645 106.704 58.446 107.972 62.9334C107.972 62.9334 110.386 73.1932 110.386 85.3523C110.386 95.5275 109.017 112.021 109.017 112.021C97.237 117.942 78.2338 114.441 69.8711 108.666C70.2094 106.833 70.4967 97.2026 71.1538 90.8495C71.5996 79.9491 71.9661 74.2376 72.0431 69.3891C72.1964 59.6995 77.0057 54.6954 80.6385 54.6211L89.8634 54.7657L105.121 56.2645Z" fill="#F85605"/>
<path d="M108.027 109.029C106.276 110.475 102.836 113.253 102.207 114.653C101.487 116.255 101.039 118.667 100.571 119.599C100.103 120.53 100.821 120.965 101.83 120.64C102.839 120.315 103.447 119.45 104.226 117.354C105.005 115.259 107.177 113.618 107.177 113.618L108.027 109.029Z" fill="#D39999"/>
<path d="M101.629 127.888C102.047 128.698 103.027 128.702 103.934 128.776C105.224 128.88 105.953 128.789 107.19 128.404C108.427 128.019 109.58 127.284 110.321 126.218C111.207 124.945 111.432 123.341 111.937 121.873C112.998 118.789 116.146 116.569 116.659 113.302C116.871 111.951 116.873 110.363 117.255 109.525C117.479 109.032 122.655 100.097 124.5 96.2263C126.274 92.5062 127.601 90.7556 125.993 86.2827C124.385 81.8097 118.907 66.0803 115.032 60.6148C112.835 57.514 109.347 56.6309 105.119 56.2634C101.902 64.6673 105.646 73.3454 105.646 73.3454L114.155 89.8069C114.155 89.8069 110.847 101.143 108.779 107.447C108.205 109.198 107.044 110.28 105.739 112.221C105.173 113.064 103.869 114.54 103.406 115.444C102.81 116.608 102.825 117.354 102.546 118.985C102.1 121.584 101.43 127.501 101.629 127.888Z" fill="#EAC4C4"/>
<path d="M104.665 56.2197C106.887 56.309 110.081 56.6857 111.991 57.6529C113.902 58.6201 115.222 59.8154 117.421 64.2261C119.62 68.6374 122.822 77.2095 122.822 77.2095C122.822 77.2095 121.759 83.6773 111.559 85.3559L104.665 72.6093C104.665 72.6093 101.593 64.6679 104.665 56.2197Z" fill="#455A64"/>
<path d="M78.1697 35.6304C78.5023 36.1166 78.6873 36.7808 78.9498 37.3119C79.3191 38.0596 79.6891 38.8171 80.2388 39.4519C81.5606 40.979 83.4201 42.0982 85.1101 43.1789C86.1366 43.8356 87.3079 44.4531 88.5619 44.2728C89.8349 44.0896 91.2113 44.3667 92.5078 44.483C94.0145 44.6184 95.5207 44.7538 97.0275 44.8892L96.7724 49.6553C96.7724 49.6553 97.3325 48.3915 98.0983 46.8846C98.7566 45.589 101.501 39.0124 101.512 38.9876C102.872 35.729 104.488 31.3873 102.86 27.9639C102.476 27.1563 101.906 26.4034 101.092 25.9316C101.256 25.3032 101.308 24.866 101.242 24.3089C101.023 22.4668 100.088 21.4132 98.8416 20.4932C97.595 19.5733 96.0866 19.0802 94.5781 18.7323C92.5572 18.2663 90.4823 18.0358 88.4091 18.0439C86.3463 18.052 84.3811 18.3987 82.3568 18.7409C81.2418 18.9293 80.1165 19.0814 78.9842 19.094C78.5092 19.0992 77.9818 19.1309 77.524 19.0243C76.9306 18.8861 76.3361 18.594 75.7628 18.3867C75.6605 18.3498 75.5451 18.3135 75.448 18.3613C75.3492 18.4097 75.3067 18.5266 75.2779 18.6332C74.9149 19.9656 75.3716 21.6977 76.2166 22.7882C75.8713 22.7444 75.6042 22.6269 75.4692 22.5704C75.19 22.4535 74.9482 22.2928 74.6931 22.1332C74.2347 21.8464 73.9538 21.5128 73.6029 21.09C73.554 21.0313 73.4989 20.9685 73.4236 20.9552C73.3099 20.9351 73.2128 21.0347 73.1445 21.128C72.4896 22.0249 72.3259 23.2219 72.547 24.3118C72.7682 25.4011 73.3421 26.3925 74.0417 27.2554C73.2909 28.3741 73.2794 29.8948 73.8384 31.1212C74.0865 31.6656 74.4375 32.1575 74.8534 32.5855C75.3687 33.1155 75.9799 33.5486 76.5222 34.0417C77.0754 34.5458 77.7423 35.006 78.1697 35.6304Z" fill="#37474F"/>
<path d="M91.9385 27.6937C91.9511 28.9639 92.1297 29.851 92.2636 30.2421C92.5307 31.0232 92.9771 31.5388 93.5463 32.1361C94.13 32.7485 94.8538 33.2364 95.3254 33.9391C95.9688 34.8982 96.1899 36.1344 96.3255 37.2566C96.4076 37.9392 96.6167 38.6828 97.1992 39.0446C98.4279 39.8067 99.1644 38.3286 99.8198 37.6033C100.665 36.8193 103.172 35.8643 104.331 38.5354C105.533 41.3027 103.319 44.9669 101.301 45.5302C97.8242 46.5014 97.0694 44.1293 97.0694 44.1293L96.403 56.5718C94.4396 60.3005 89.8326 61.4837 86.8058 60.8904C84.1927 60.3783 82.7566 58.5424 85.214 55.8777L85.3467 52.0885C85.3467 52.0885 82.2126 52.4617 80.6983 52.176C78.1794 51.7008 76.9306 49.555 76.2516 46.782C75.1613 42.3286 74.6627 37.6477 76.0109 27.6211C76.6301 27.2789 79.1146 29.2208 82.8766 29.4811C86.6145 29.7404 90.0629 28.7334 91.9385 27.6937Z" fill="#EAC4C4"/>
<path d="M85.3447 52.0891C85.3447 52.0891 91.0323 51.1317 93.0423 50.1426C94.3876 49.4808 95.5158 48.2947 95.8611 47.5222C95.8611 47.5222 95.4365 49.1916 94.2061 50.6674C92.701 52.4727 85.2959 53.5966 85.2959 53.5966L85.3447 52.0891Z" fill="#D39999"/>
<path d="M88.2832 32.1249L90.9308 32.9371C91.137 32.1802 90.7114 31.3847 89.9807 31.16C89.2494 30.9353 88.4894 31.3674 88.2832 32.1249Z" fill="#263238"/>
<path d="M87.362 44.728L83.4644 46.0518C83.8096 47.171 84.9619 47.7816 86.0384 47.4164C87.1149 47.0512 87.7072 45.8473 87.362 44.728Z" fill="#D39999"/>
<path d="M87.0502 45.6848C85.9737 45.6848 85.0764 46.4308 84.8276 47.4331C85.2108 47.5518 85.6313 47.5558 86.0414 47.417C86.7974 47.1601 87.3064 46.4872 87.4276 45.7234C87.3041 45.7027 87.1794 45.6848 87.0502 45.6848Z" fill="#F28F8F"/>
<path d="M76.4644 32.5707L79.1534 32.2153C79.0735 31.482 78.4066 30.967 77.6638 31.0649C76.9217 31.1628 76.3846 31.8368 76.4644 32.5707Z" fill="#263238"/>
<path d="M93.0239 33.7217L101.908 36.7747C101.908 36.7747 100.516 36.6618 99.348 38.0777L93.0555 35.6808L93.0239 33.7217Z" fill="#263238"/>
<path d="M77.7858 37.1969C77.7662 37.8075 78.2252 38.3167 78.8117 38.334C79.3976 38.3513 79.8894 37.8709 79.9089 37.2597C79.929 36.6491 79.4694 36.1399 78.8835 36.122C78.297 36.1048 77.8059 36.5857 77.7858 37.1969Z" fill="#263238"/>
<path d="M87.9371 37.202C87.9176 37.8126 88.3766 38.3219 88.9631 38.3391C89.549 38.3564 90.0407 37.876 90.0603 37.2648C90.0804 36.6542 89.6208 36.1444 89.0349 36.1271C88.4484 36.1104 87.9572 36.5914 87.9371 37.202Z" fill="#263238"/>
<path d="M72.55 34.3681C72.589 34.9095 72.9337 35.413 73.1106 35.6238C73.2037 35.735 73.2898 35.8813 73.3358 36.0714C73.5432 36.928 73.7201 38.5513 74.1251 39.4631C74.5318 40.3739 75.3802 41.8186 77.7659 41.8733C78.23 41.8848 78.6408 41.8468 79.005 41.7685C79.0366 41.7627 79.0682 41.7546 79.0986 41.7483C79.4841 41.6584 79.8167 41.5213 80.1056 41.3508C80.1257 41.3387 80.1464 41.3261 80.1653 41.3134C80.1952 41.2961 80.2234 41.2783 80.2515 41.2587C80.2768 41.2425 80.3015 41.2247 80.3595 41.1838C80.394 41.1596 80.4267 41.1348 80.4595 41.1083C80.4974 41.0795 80.533 41.0501 80.5686 41.019C80.6042 40.9897 80.6387 40.9591 80.6732 40.9263C80.7415 40.8629 80.8053 40.7973 80.8679 40.7287C81.2206 40.3445 81.4751 39.894 81.6767 39.439C82.2017 38.2535 82.0656 36.5945 82.9296 36.4026C82.9617 36.3957 82.9974 36.39 83.033 36.3877C83.0686 36.3836 83.1059 36.3831 83.145 36.3831C84.3197 36.4003 84.1887 38.2074 84.8465 39.4971C85.5019 40.7892 86.5888 42.049 89.137 42.0847C89.2507 42.087 89.361 42.0847 89.4667 42.0818C89.5569 42.0778 89.6448 42.0732 89.7292 42.064C89.9481 42.0484 90.1532 42.0173 90.3428 41.977C90.4088 41.962 90.4731 41.9482 90.5358 41.9321C90.5984 41.9159 90.661 41.8969 90.7202 41.8796C90.7586 41.8693 90.7977 41.856 90.8368 41.8428C91.0964 41.7523 91.3239 41.6435 91.5267 41.5179C91.6071 41.4672 91.6824 41.4159 91.7582 41.3618C91.9035 41.2541 92.0322 41.14 92.1568 41.011C92.5388 40.6123 92.7698 40.1717 92.9289 39.8122C93.3247 38.9165 93.4281 37.2938 93.6245 36.4487C93.6774 36.2241 93.7463 36.068 93.8193 35.9597C93.9841 35.7148 94.3776 35.2897 94.3932 34.7477C94.4087 34.2056 94.0278 33.7333 93.6837 33.6831C93.4838 33.6543 93.2747 33.6261 93.0587 33.5996C91.0482 33.3554 88.4264 33.2477 86.8582 33.6745C84.8919 34.2137 84.21 34.8456 83.1134 34.83C82.088 34.8059 81.4222 34.1503 79.5599 33.5403C78.0738 33.0558 75.6232 33.0702 73.7517 33.2419C73.5512 33.2603 73.3576 33.2805 73.1721 33.303C72.8504 33.3393 72.5109 33.8266 72.55 34.3681ZM85.4853 35.6014C85.5892 35.4481 85.7845 35.2897 86.0448 35.1428C86.0769 35.1221 86.1103 35.1042 86.1459 35.0864C86.1643 35.0754 86.1826 35.0662 86.2016 35.057C86.2889 35.0115 86.3814 34.9671 86.479 34.9257C86.56 34.89 86.6462 34.8542 86.7353 34.8203C86.9932 34.72 87.2787 34.6307 87.5745 34.5553C87.6842 34.5276 87.7957 34.5006 87.9088 34.4775C88.1932 34.4159 88.4827 34.3709 88.7728 34.341C88.8423 34.3335 88.9101 34.3266 88.9744 34.3249C90.8678 34.1705 92.0494 34.6181 92.4791 35.0075C92.9243 35.4118 92.7232 37.1653 92.5429 38.0559C92.5383 38.0778 92.5337 38.0997 92.5291 38.1221C92.5245 38.144 92.5199 38.1676 92.5153 38.1912C92.4935 38.299 92.4676 38.4211 92.4343 38.5507C92.4153 38.6221 92.3947 38.6976 92.3728 38.7736C92.3711 38.7777 92.3711 38.7805 92.3694 38.7828C92.3349 38.9032 92.293 39.0271 92.243 39.155V39.1561C92.2269 39.1976 92.2091 39.2414 92.1913 39.2834C92.1821 39.3082 92.1706 39.3335 92.1574 39.3595C92.1459 39.3877 92.1333 39.4153 92.1184 39.4441C92.1023 39.4793 92.0845 39.5156 92.0661 39.5507C92.0465 39.5905 92.0253 39.6302 92.0023 39.6688C91.9793 39.7103 91.9546 39.7517 91.9265 39.7944C91.9018 39.8353 91.8736 39.8785 91.8438 39.9205C91.3739 40.602 90.5788 41.1763 89.1973 41.1723C87.8307 41.1694 86.9599 40.6982 86.4021 40.1037L86.4004 40.1031C85.8477 39.5104 85.6019 38.7978 85.4841 38.3041C85.2509 37.3047 85.1159 36.1434 85.4853 35.6014ZM74.3491 34.6722C74.4537 34.572 74.607 34.4694 74.8115 34.3784C74.8242 34.3721 74.8351 34.3675 74.8477 34.3623C74.9109 34.3335 74.9781 34.307 75.0522 34.2817C75.0919 34.2684 75.135 34.2534 75.1775 34.2413C75.2108 34.2315 75.247 34.22 75.2814 34.212C75.305 34.2039 75.3291 34.1993 75.3509 34.1935C75.3607 34.1901 75.3699 34.1883 75.3779 34.1872C75.4113 34.1785 75.4463 34.1711 75.4808 34.163C75.6152 34.133 75.7611 34.1094 75.9162 34.091C75.9926 34.0812 76.0713 34.0726 76.1523 34.0679C76.1982 34.0633 76.2459 34.061 76.2947 34.0576C76.3315 34.0553 76.3677 34.0541 76.4045 34.053C76.5016 34.0507 76.6027 34.0484 76.706 34.0501C76.7428 34.0507 76.7796 34.0507 76.8175 34.0518C76.8508 34.0524 76.8859 34.0535 76.9209 34.0547C77.1915 34.0651 77.4827 34.0921 77.7935 34.1371C79.1434 34.3329 80.5537 34.9602 80.9213 35.5167C81.289 36.0726 81.2068 37.2293 81.0305 38.22C80.9948 38.4159 80.9426 38.6434 80.8598 38.8836C80.8553 38.8998 80.8478 38.9171 80.842 38.9355C80.8346 38.9574 80.8271 38.9798 80.8179 39.0029C80.8122 39.0179 80.8076 39.0328 80.8013 39.0478C80.7909 39.0743 80.7806 39.1014 80.7679 39.1273C80.745 39.1832 80.7208 39.2368 80.695 39.2915C80.6737 39.3376 80.6496 39.3854 80.6249 39.4315C80.6157 39.4487 80.6065 39.4655 80.5973 39.481C80.5801 39.511 80.5617 39.5432 80.5416 39.5749C80.5261 39.6014 80.5094 39.6285 80.4911 39.6561C80.4893 39.6602 80.4865 39.6648 80.4836 39.6694C80.0137 40.3911 79.175 41.0133 77.6723 40.9568C77.1059 40.9384 76.6377 40.8111 76.2557 40.6158C74.9144 39.932 74.5714 38.4199 74.4117 37.7189C74.2112 36.8231 73.9487 35.0593 74.3491 34.6722Z" fill="#263238"/>
<path d="M83.4666 36.4451L83.2656 43.8501L79.1445 42.6571L82.9858 36.384C83.1639 36.3662 83.3219 36.3921 83.4666 36.4451Z" fill="#D39999"/>
<path d="M141.06 37.3874C152.814 37.3874 162.343 29.0179 162.343 18.6937C162.343 8.36945 152.814 0 141.06 0C129.305 0 119.776 8.36945 119.776 18.6937C119.776 29.0179 129.305 37.3874 141.06 37.3874Z" fill="#F85605"/>
<path d="M124.071 29.502C123.954 32.01 121.841 36.4905 118.017 38.1207C117.776 38.2232 117.804 38.5706 118.061 38.6241C120.149 39.0602 125.725 39.5873 129.837 34.1512L124.071 29.502Z" fill="#F85605"/>
<path d="M126.629 17.2104C126.674 16.3711 126.857 15.5807 127.178 14.8394C127.5 14.0974 127.955 13.4534 128.546 12.9068C129.136 12.3601 129.852 11.9258 130.697 11.6032C131.541 11.2806 132.516 11.1199 133.622 11.1199C134.712 11.1199 135.684 11.2806 136.536 11.6032C137.387 11.9258 138.108 12.3601 138.698 12.9068C139.288 13.4534 139.744 14.0974 140.066 14.8394C140.387 15.5807 140.57 16.3711 140.615 17.2104C140.645 17.8544 140.659 18.5289 140.659 19.2328C140.659 19.9379 140.645 20.5963 140.615 21.211C140.57 22.0503 140.387 22.8406 140.066 23.5819C139.744 24.3239 139.288 24.9719 138.698 25.5261C138.108 26.0808 137.387 26.5152 136.536 26.8302C135.684 27.1448 134.712 27.302 133.622 27.302C132.516 27.302 131.541 27.1448 130.697 26.8302C129.852 26.5152 129.136 26.0808 128.546 25.5261C127.955 24.9719 127.5 24.3239 127.178 23.5819C126.857 22.8406 126.674 22.0503 126.629 21.211C126.599 20.5969 126.584 19.9379 126.584 19.2328C126.584 18.5289 126.599 17.8544 126.629 17.2104ZM136.468 21.0986C136.483 20.8285 136.498 20.5295 136.513 20.1994C136.527 19.8705 136.536 19.5335 136.536 19.1885C136.536 18.8434 136.527 18.5105 136.513 18.1885C136.498 17.8659 136.483 17.5779 136.468 17.3227C136.438 16.9488 136.36 16.6038 136.233 16.2893C136.106 15.9742 135.927 15.7011 135.695 15.4684C135.463 15.2368 135.176 15.0525 134.832 14.9183C134.488 14.7835 134.084 14.7155 133.622 14.7155C133.158 14.7155 132.755 14.7829 132.412 14.9183C132.068 15.0525 131.78 15.2368 131.549 15.4684C131.317 15.7011 131.138 15.9742 131.011 16.2893C130.884 16.6038 130.805 16.9488 130.776 17.3227C130.745 17.5779 130.727 17.8659 130.719 18.1885C130.711 18.5111 130.708 18.844 130.708 19.1885C130.708 19.5335 130.711 19.8705 130.719 20.1994C130.727 20.5295 130.745 20.8291 130.776 21.0986C130.835 21.8481 131.093 22.4696 131.549 22.9639C132.005 23.4581 132.695 23.7052 133.622 23.7052C134.548 23.7052 135.236 23.4581 135.684 22.9639C136.132 22.4696 136.393 21.8475 136.468 21.0986Z" fill="#FAFAFA"/>
<path d="M156.528 26.3347C156.572 26.3946 156.595 26.477 156.595 26.5819C156.595 26.7167 156.546 26.833 156.449 26.9298C156.351 27.0277 156.236 27.0761 156.102 27.0761H152.538C152.329 27.0761 152.157 27.0312 152.022 26.9413C151.888 26.8514 151.753 26.7241 151.619 26.5594L147.383 21.2103V26.4695C147.383 26.6349 147.323 26.7771 147.203 26.8964C147.084 27.0168 146.942 27.0767 146.778 27.0767H143.842C143.677 27.0767 143.535 27.0168 143.416 26.8964C143.296 26.7771 143.237 26.6349 143.237 26.4695V11.951C143.237 11.7862 143.296 11.644 143.416 11.5241C143.535 11.4043 143.677 11.3438 143.842 11.3438H146.778C146.942 11.3438 147.084 11.4037 147.203 11.5241C147.323 11.644 147.383 11.7862 147.383 11.951V16.693L151.328 11.8381C151.402 11.7482 151.5 11.6434 151.619 11.5236C151.738 11.4037 151.94 11.3433 152.224 11.3433H155.721C155.855 11.3433 155.971 11.3922 156.068 11.4896C156.165 11.5869 156.213 11.7027 156.213 11.8375C156.213 11.9429 156.191 12.0247 156.146 12.0852L150.61 18.8721L156.528 26.3347Z" fill="#FAFAFA"/>
<path d="M195.971 36.3664L192.752 37.3388L190.422 29.5472L193.636 28.5754L195.971 36.3664Z" fill="#E0E0E0"/>
<path d="M206.034 29.4464C206.159 29.8646 205.746 30.7649 205.121 30.9544C205.121 30.9544 205.421 31.2724 205.572 31.7793C205.757 32.3825 205.266 33.1935 204.298 33.4827C203.336 33.7719 196.928 35.7068 196.928 35.7068L194.759 28.47L194.754 28.4694C194.754 28.4694 196.004 25.2683 196.066 24.7868C196.139 24.3127 195.391 22.5293 195.29 22.194C195.209 21.921 196.381 21.4244 197.325 21.8058C197.543 21.895 197.749 22.0275 197.927 22.2228C198.296 22.6283 198.572 23.0258 198.772 23.4365C199.09 24.0708 199.22 24.7309 199.22 25.4798L203.673 24.1364C204.044 24.0247 204.369 24.0569 204.626 24.1664C205.023 24.3305 205.278 24.6721 205.36 24.9481C205.565 25.6007 205.186 26.1019 204.982 26.2966C204.982 26.2966 205.931 26.2182 206.2 27.1169C206.35 27.6203 206.101 28.2862 205.465 28.614C205.465 28.614 205.847 28.8214 206.034 29.4464Z" fill="#E0E0E0"/>
<path d="M242.151 117.18L238.021 116.184L240.427 106.195L244.553 107.188L242.151 117.18Z" fill="#E0E0E0"/>
<path d="M257.523 116.056C257.394 116.593 256.372 117.311 255.569 117.118C255.569 117.118 255.694 117.657 255.538 118.307C255.357 119.083 254.305 119.654 253.066 119.352C251.831 119.053 243.61 117.071 243.61 117.071L245.841 107.789L245.836 107.785C245.836 107.785 249.234 105.091 249.606 104.605C249.987 104.134 250.304 101.71 250.408 101.28C250.492 100.93 252.087 101.137 252.874 102.156C253.055 102.393 253.196 102.669 253.266 102.996C253.411 103.674 253.46 104.284 253.416 104.86C253.36 105.755 253.084 106.558 252.608 107.376L258.32 108.754C258.797 108.87 259.131 109.112 259.341 109.396C259.67 109.829 259.731 110.364 259.645 110.719C259.454 111.562 258.722 111.866 258.375 111.948C258.375 111.948 259.461 112.47 259.184 113.621C259.028 114.267 258.333 114.834 257.43 114.785C257.432 114.785 257.716 115.255 257.523 116.056Z" fill="#E0E0E0"/>
<path d="M33.519 111.202L38.0273 112.563L41.2895 101.653L36.7882 100.292L33.519 111.202Z" fill="#E0E0E0"/>
<path d="M19.4306 101.511C19.2554 102.097 19.8333 103.358 20.7088 103.623C20.7088 103.623 20.2883 104.069 20.0763 104.778C19.8172 105.623 20.5054 106.759 21.8605 107.164C23.2088 107.569 32.1816 110.278 32.1816 110.278L35.2186 100.144L35.2255 100.143C35.2255 100.143 33.4741 95.6606 33.3885 94.9861C33.2868 94.3225 34.334 91.8248 34.4742 91.3553C34.5885 90.9728 32.9467 90.2775 31.6249 90.8115C31.3205 90.9365 31.0315 91.122 30.7828 91.3956C30.2658 91.9636 29.8786 92.5206 29.6 93.0955C29.1542 93.9838 28.9716 94.9077 28.9716 95.9567L22.736 94.0754C22.215 93.9193 21.7606 93.9636 21.401 94.1174C20.8449 94.3472 20.4882 94.8254 20.3727 95.2125C20.0861 96.1266 20.6174 96.8283 20.9029 97.1013C20.9029 97.1013 19.5731 96.9919 19.1968 98.2499C18.986 98.955 19.3353 99.887 20.2262 100.346C20.2262 100.346 19.6926 100.636 19.4306 101.511Z" fill="#E0E0E0"/>
</svg>
