<svg width="259" height="263" viewBox="0 0 259 263" fill="none" xmlns="http://www.w3.org/2000/svg">
<path d="M129.5 263.001C201.021 263.001 259 228.662 259 186.302C259 143.943 201.021 109.603 129.5 109.603C57.9791 109.603 0 143.943 0 186.302C0 228.662 57.9791 263.001 129.5 263.001Z" fill="#FAFAFA"/>
<path d="M80.532 223.464C80.4313 223.401 80.365 223.302 80.3515 223.193C78.4246 208.12 63.9313 197.248 57.7425 192.604C56.7419 191.854 55.9518 191.261 55.4433 190.825C53.1689 188.869 52.1375 186.296 52.6858 183.941C53.1791 181.819 54.9366 180.161 57.5068 179.393C63.7952 177.513 73.9208 184.581 80.5562 195.477C89.8545 210.748 85.9694 222.041 85.9289 222.153C85.8867 222.272 85.7804 222.362 85.6471 222.393L80.8756 223.52C80.8205 223.532 80.7643 223.535 80.7097 223.528C80.6479 223.519 80.586 223.497 80.532 223.464ZM79.8324 195.827C73.3871 185.243 63.7018 178.338 57.7824 180.104C55.458 180.798 53.9366 182.221 53.4968 184.109C53.0098 186.207 53.9479 188.516 56.0091 190.287C56.4962 190.706 57.2768 191.292 58.2644 192.032C64.4723 196.69 78.9302 207.537 81.1152 222.685L85.1989 221.721C85.6516 220.206 88.2922 209.723 79.8324 195.827Z" fill="#F85605"/>
<path d="M83.4254 222.888C83.444 222.89 83.4625 222.892 83.4817 222.892C83.7106 222.895 83.895 222.731 83.8933 222.524C83.7921 204.913 69.8505 187.982 60.6747 184.513C60.461 184.431 60.2208 184.521 60.1353 184.712C60.051 184.902 60.1545 185.121 60.3665 185.202C69.4393 188.633 82.9676 205.811 83.0643 222.512C83.0655 222.702 83.2229 222.861 83.4254 222.888Z" fill="#F85605"/>
<path d="M85.4927 222.401C85.5518 222.409 85.6142 222.406 85.6744 222.389L88.906 221.492C89.0365 221.455 89.1372 221.364 89.1754 221.245C89.2294 221.078 94.5324 204.238 89.7153 181.586C87.2615 170.047 79.5154 158.805 71.2958 154.854C67.3431 152.957 63.5018 152.727 59.876 154.176C57.826 154.995 56.5611 156.197 56.1151 157.749C54.8829 162.041 59.98 168.411 65.3752 175.156C69.1507 179.874 73.0544 184.754 74.8896 189.067C74.9722 189.261 75.213 189.36 75.4261 189.29C75.6398 189.219 75.7456 189.005 75.6629 188.811C73.7889 184.405 69.8515 179.484 66.0445 174.725C60.768 168.13 55.7833 161.901 56.9177 157.95C57.3035 156.607 58.3845 155.596 60.2247 154.861C63.6053 153.509 67.2031 153.727 70.9167 155.514C78.9283 159.363 86.491 170.382 88.9004 181.713C93.407 202.906 88.9971 218.935 88.4342 220.835L85.4146 221.673C85.1975 221.733 85.0782 221.942 85.1497 222.14C85.2031 222.283 85.3392 222.38 85.4927 222.401Z" fill="#F85605"/>
<path d="M86.0234 211.685C86.033 211.686 86.0437 211.688 86.0532 211.689C86.2816 211.704 86.4773 211.55 86.4914 211.345C88.2382 184.097 70.8389 162.329 65.7614 158.598C65.5825 158.468 65.321 158.488 65.1787 158.647C65.0364 158.807 65.0657 159.043 65.2451 159.174C70.2494 162.851 87.3912 184.333 85.6629 211.286C85.6506 211.483 85.8097 211.656 86.0234 211.685Z" fill="#F85605"/>
<path d="M114.59 244.108C136.794 244.108 154.794 233.693 154.794 220.846C154.794 207.999 136.794 197.584 114.59 197.584C92.3867 197.584 74.387 207.999 74.387 220.846C74.387 233.693 92.3867 244.108 114.59 244.108Z" fill="#E0E0E0"/>
<path d="M208.03 214.967L150.99 247.971C149.272 248.965 146.271 248.84 144.288 247.693L135.64 242.689C133.657 241.541 133.441 239.805 135.159 238.811L192.2 205.808C193.917 204.814 196.918 204.938 198.901 206.086L207.549 211.09C209.532 212.236 209.748 213.972 208.03 214.967Z" fill="#E0E0E0"/>
<path d="M119.461 150.951C161.054 150.951 194.772 117.16 194.772 75.4755C194.772 33.7915 161.054 0 119.461 0C77.8673 0 44.1492 33.7915 44.1492 75.4755C44.1492 117.16 77.8673 150.951 119.461 150.951Z" fill="#F85605"/>
<path opacity="0.8" d="M119.461 150.951C161.054 150.951 194.772 117.16 194.772 75.4755C194.772 33.7915 161.054 0 119.461 0C77.8673 0 44.1492 33.7915 44.1492 75.4755C44.1492 117.16 77.8673 150.951 119.461 150.951Z" fill="white"/>
<path d="M120.772 201.09L119.552 190.424L132.384 188.925C132.384 188.925 131.946 197.36 132.054 201.227C132.104 203.049 133.384 206.467 133.384 206.467C133.384 206.467 128.347 209.215 125.711 208.13C123.074 207.045 121.299 202.793 121.356 202.01L120.772 201.09Z" fill="#FFBDA7"/>
<path d="M148.201 219.285C148.38 219.292 148.478 220.995 147.473 221.807C146.313 222.743 142.654 224.503 138.327 223.759C134 223.015 131.698 221.556 130.015 220.009C128.333 218.462 125.975 216.281 124.025 215.762C122.213 215.28 119.795 213.679 119.232 213.083C118.67 212.487 118.852 209.941 118.852 209.941L148.201 219.285Z" fill="#263238"/>
<path d="M120.661 200.071C120.661 200.071 120.425 200.187 120.289 200.773C120.128 201.47 119.903 203.506 119.57 204.647C119.108 206.234 118.711 209.507 118.899 210.822C119.087 212.137 122.498 213.844 124.372 214.656C126.288 215.485 128.476 217.123 130.386 218.854C132.363 220.645 136.593 222.595 139.429 222.687C142.785 222.795 146.605 221.843 147.532 220.3C148.679 218.39 149.549 216.152 144.668 213.616C143.744 213.136 140.515 211.019 139.416 210.254C136.443 208.185 134.368 206.313 133.1 202.811C132.951 202.402 132.797 201.949 132.426 201.729C132.142 201.56 131.791 201.568 131.463 201.602C130.63 201.687 127.306 202.018 126.537 202.353C125.856 202.65 124.895 202.988 124.875 203.856C124.868 204.158 124.942 204.455 125.028 204.744C125.08 204.924 125.118 205.162 124.961 205.26C124.813 205.353 124.626 205.233 124.501 205.11C123.999 204.616 123.641 203.994 123.224 203.424C123.001 203.119 122.29 202.143 122.003 201.897C121.742 201.674 121.403 201.555 121.173 201.304C120.882 200.986 120.659 200.478 120.661 200.071Z" fill="#455A64"/>
<path d="M130.386 218.855C129.547 218.095 128.654 217.357 127.753 216.693L127.754 216.688C127.754 216.688 133.461 220.528 135.889 218.985C137.453 217.99 136.78 216.679 136.759 216.268C136.739 215.857 142.228 213.18 143.714 213.06C144.117 213.307 144.45 213.519 144.668 213.618C148.49 215.347 148.927 217.399 148.18 219.927C147.253 221.471 143.82 222.967 139.485 222.795C136.649 222.681 132.362 220.646 130.386 218.855Z" fill="#37474F"/>
<path d="M136.395 215.057C139.438 216.434 138.096 216.968 137.225 217.059C136.354 217.15 131.27 213.859 128.195 211.184C124.988 208.394 122.547 204.724 121.355 203.698C120.911 203.316 120.435 202.849 120.012 202.414C120.121 201.727 120.212 201.101 120.287 200.772C120.424 200.187 120.66 200.071 120.66 200.071C120.66 200.071 120.881 200.986 121.171 201.303C121.4 201.554 121.74 201.674 122.001 201.897C122.288 202.143 122.999 203.118 123.222 203.424C123.639 203.994 123.997 204.616 124.499 205.11C127.063 208.694 133.351 213.679 136.395 215.057Z" fill="#37474F"/>
<path d="M137.025 216.591C136.957 216.588 136.889 216.563 136.834 216.513C136.708 216.4 136.695 216.203 136.808 216.075C137.724 215.025 141.962 212.616 144.228 212.96C144.396 212.985 144.511 213.143 144.486 213.312C144.461 213.481 144.323 213.595 144.138 213.574C142.022 213.258 137.992 215.655 137.267 216.487C137.204 216.559 137.114 216.594 137.025 216.591Z" fill="#263238"/>
<path d="M134.396 214.798C134.328 214.795 134.26 214.77 134.204 214.72C134.078 214.607 134.067 214.41 134.179 214.282C135.094 213.233 139.33 210.826 141.598 211.168C141.766 211.193 141.881 211.352 141.856 211.52C141.832 211.69 141.68 211.807 141.509 211.782C139.392 211.469 135.363 213.861 134.637 214.693C134.574 214.766 134.485 214.802 134.396 214.798Z" fill="#263238"/>
<path d="M131.759 213.096C131.691 213.093 131.623 213.068 131.568 213.018C131.441 212.905 131.43 212.708 131.542 212.58C132.458 211.53 136.696 209.119 138.961 209.465C139.129 209.49 139.244 209.649 139.219 209.818C139.194 209.987 139.045 210.105 138.871 210.08C136.754 209.764 132.725 212.16 131.999 212.992C131.937 213.064 131.848 213.099 131.759 213.096Z" fill="#263238"/>
<path d="M129.328 211.174C129.26 211.172 129.192 211.146 129.137 211.097C129.01 210.983 128.999 210.787 129.111 210.658C130.026 209.608 134.274 207.201 136.531 207.544C136.698 207.569 136.814 207.728 136.789 207.896C136.764 208.066 136.614 208.183 136.441 208.158C134.327 207.844 130.296 210.238 129.57 211.069C129.507 211.142 129.417 211.178 129.328 211.174Z" fill="#263238"/>
<path d="M126.955 209.256C126.889 209.254 126.823 209.229 126.768 209.181C126.639 209.069 126.625 208.873 126.736 208.743C127.996 207.253 132.413 205.276 134.677 205.618C134.845 205.643 134.961 205.802 134.936 205.971C134.911 206.14 134.761 206.253 134.588 206.233C132.549 205.925 128.319 207.827 127.2 209.147C127.137 209.223 127.045 209.259 126.955 209.256Z" fill="#263238"/>
<path d="M99.5979 205.519L102.359 192.359L89.7642 190.441L89.6764 203.41C89.6764 203.41 88.7462 206.905 89.4655 208.098C90.1843 209.292 97.7521 210.491 98.4371 209.687C99.1221 208.883 99.5979 205.519 99.5979 205.519Z" fill="#FFBDA7"/>
<path d="M98.5249 226.229C98.2201 229.178 97.6368 231.088 96.4136 232.694C95.1898 234.301 92.9879 234.591 90.799 233.82C88.6101 233.05 85.8346 231.353 85.3009 228.716C84.7677 226.078 84.9634 224.336 85.572 221.64L98.5249 226.229Z" fill="#263238"/>
<path d="M89.6774 203.41C88.7651 203.368 89.0323 205.685 88.6369 209.662C88.2095 213.963 86.358 217.347 85.7191 220.798C84.9891 224.742 85.1505 226.561 86.5976 229.167C88.0441 231.774 93.4073 234.795 96.2306 231.639C98.532 229.065 98.7446 225.936 98.7007 221.908C98.6546 217.744 98.5865 214.81 98.8942 211.69C99.1883 208.708 100.377 205.946 99.6 205.518C99.5218 205.952 98.7738 208.976 98.2632 208.932C98.2311 208.543 98.2536 208.186 98.2969 207.799C98.3346 207.463 98.3177 207.088 98.0854 206.801C97.8509 206.511 96.9786 206.155 96.6119 206.045C95.7227 205.778 94.135 205.45 93.2279 205.267C92.7763 205.177 92.3224 205.103 91.8668 205.054C91.4973 205.015 91.062 204.992 90.7077 205.069C90.4901 205.116 90.2865 205.231 90.1993 205.418C90.1346 205.555 90.1397 205.716 90.134 205.87C90.1234 206.147 90.0739 206.42 89.9884 206.68C89.9507 206.794 89.8551 206.929 89.7263 206.885C89.6217 206.848 89.584 206.724 89.5874 206.625C89.602 206.14 89.6487 203.664 89.6774 203.41Z" fill="#455A64"/>
<path d="M85.9705 219.682C85.8597 220.25 85.1736 224.017 86.2911 224.842C87.5003 225.736 88.2966 222.804 88.2966 222.804C88.2966 222.804 91.2319 222.335 95.3932 224.52C95.1519 225.116 95.7244 227.242 96.901 226.946C98.0697 226.652 98.6951 222.312 98.703 222.255C98.73 226.116 98.4651 229.14 96.2306 231.639C93.4073 234.795 88.0441 231.774 86.5976 229.167C85.1505 226.56 84.9891 224.741 85.7191 220.798C85.7928 220.404 85.8777 220.035 85.9705 219.682Z" fill="#37474F"/>
<path d="M88.62 223.099C88.5452 224.547 86.9947 223.873 87.0059 221.817C87.0172 219.761 88.02 214.763 88.3866 211.399C88.6082 206.563 88.7674 203.367 89.6802 203.409C89.6746 203.458 89.674 203.507 89.6695 203.556C89.6695 203.556 89.5992 206.311 89.5896 206.624C89.4518 209.578 89.4653 215.317 89.0807 217.988C88.6965 220.659 88.6948 221.652 88.62 223.099Z" fill="#37474F"/>
<path d="M94.9089 224.423C95.2626 223.034 95.5517 222.101 95.973 219.438C96.3914 216.795 97.8784 211.497 98.6135 208.649C98.8553 208.18 99.6039 205.519 99.6039 205.519C100.237 205.697 99.6281 208.235 99.3429 209.422C99.0578 210.609 98.7085 211.882 98.3542 213.585C97.4397 216.943 97.3942 221.973 96.8025 223.907C96.212 225.841 94.5551 225.812 94.9089 224.423Z" fill="#37474F"/>
<path d="M95.4757 224.647C95.4335 224.638 95.393 224.622 95.3542 224.6C95.3221 224.579 92.0787 222.65 88.3696 223.111C88.1868 223.132 88.0068 223.013 87.9658 222.844C87.9236 222.674 88.0383 222.519 88.22 222.496C92.1884 222.003 95.5465 224.005 95.6888 224.091C95.8502 224.189 95.9076 224.383 95.8142 224.523C95.7445 224.629 95.6078 224.674 95.4757 224.647Z" fill="#263238"/>
<path d="M96.3641 221.59C96.3264 221.582 96.2892 221.568 96.2533 221.548C96.2173 221.528 92.565 219.502 88.4329 219.885C88.2501 219.899 88.0735 219.776 88.037 219.606C88.0015 219.435 88.1213 219.283 88.3047 219.266C92.6752 218.865 96.409 220.939 96.5665 221.027C96.7319 221.121 96.796 221.312 96.7094 221.456C96.6419 221.569 96.5013 221.618 96.3641 221.59Z" fill="#263238"/>
<path d="M88.7661 216.923C88.639 216.896 88.5271 216.805 88.4877 216.682C88.4354 216.513 88.5355 216.349 88.7144 216.315C92.8431 215.536 96.8008 217.902 96.9684 218.004C97.1309 218.102 97.1871 218.295 97.0943 218.436C97.0015 218.576 96.7929 218.606 96.6343 218.512C96.5966 218.489 92.7514 216.195 88.9095 216.925C88.8612 216.934 88.8128 216.932 88.7661 216.923Z" fill="#263238"/>
<path d="M89.112 214.132C88.9872 214.105 88.877 214.017 88.8365 213.897C88.7797 213.728 88.8775 213.563 89.0547 213.526C93.599 212.589 97.3199 215.104 97.4757 215.211C97.6315 215.318 97.6753 215.513 97.5724 215.647C97.4701 215.781 97.2563 215.803 97.105 215.696C97.0707 215.671 93.4904 213.261 89.2611 214.132C89.211 214.143 89.1604 214.142 89.112 214.132Z" fill="#263238"/>
<path d="M89.5051 210.996C89.3825 210.97 89.2728 210.883 89.2307 210.765C89.1716 210.598 89.2666 210.431 89.4432 210.392C93.7041 209.451 97.7512 212.056 97.9211 212.17C98.0797 212.273 98.1275 212.468 98.029 212.604C97.9312 212.741 97.7231 212.77 97.5639 212.663C97.5246 212.637 93.6147 210.122 89.6581 210.996C89.6069 211.007 89.5552 211.007 89.5051 210.996Z" fill="#263238"/>
<path d="M92.6789 105.147C91.6035 116.841 91.0698 121.276 90.8392 137.654C90.7571 143.454 90.3252 147.381 90.3527 153.182C90.3606 154.827 89.8859 159.733 89.6986 163.198C89.5586 165.798 88.7223 173.24 88.8202 178.436C88.8837 181.821 88.8202 184.143 88.7549 187.092C88.7268 188.363 88.1239 189.564 88.0294 190.832C87.9782 191.514 88.0182 192.219 88.2105 192.878C88.4045 193.545 88.9461 193.985 89.1615 194.587C89.4759 195.464 89.2183 196.791 89.2285 197.739C89.2285 197.739 96.8154 201.002 101.497 199.245C101.705 198.402 101.752 197.008 102.21 196.308C102.536 195.809 103.321 195.516 103.73 195.02C104.162 194.496 104.479 193.877 104.637 193.215C104.858 192.292 104.78 191.327 104.85 190.38C105.014 188.147 105.99 186.069 106.669 183.935C108.501 178.186 108.077 172.108 109.176 166.235C110.659 158.305 112.438 153.293 113.26 147.647C114.082 142.002 116.628 158.83 116.628 158.833C116.773 159.789 116.552 160.939 116.529 161.903C116.479 163.905 116.556 165.871 116.329 167.85C115.827 172.241 116.011 176.711 116.878 181.044C117.333 183.324 117.725 184.892 117.637 187.221C117.585 188.588 117.368 189.799 117.91 191.055C118.3 191.957 118.849 192.174 119.334 193.01C119.534 193.354 119.581 196.094 119.794 196.223C119.794 196.223 127.605 200.22 132.454 196.049C132.51 195.251 132.416 193.672 132.732 192.962C133.567 192.045 134.054 191.316 134.132 189.944C134.205 188.656 133.804 187.721 133.779 186.43C133.748 184.847 133.99 183.274 134.137 181.698C134.347 179.449 134.61 178.473 134.904 175.619C135.039 174.316 135.236 172.766 135.365 169.459C135.492 166.222 135.801 162.077 135.852 158.832C136.051 146.068 135.617 121.888 135.413 105.146H92.6789V105.147Z" fill="#37474F"/>
<path d="M101.366 110.632C101.445 123.954 94.9408 127.809 91.7429 127.809C91.7429 127.809 100.029 124.635 101.366 110.632Z" fill="#263238"/>
<path d="M116.342 124.831L112.919 149.989C113.032 149.214 113.144 148.437 113.26 147.647C114.082 142.001 116.627 158.832 116.627 158.832L115.883 147.825C115.679 144.384 115.861 140.931 116.426 137.53L118.496 126.718C123.85 125.191 125.997 120.689 125.997 120.689C123.099 123.612 116.342 124.831 116.342 124.831Z" fill="#263238"/>
<path d="M89.1003 198.189C91.2257 199.878 97.3852 201.28 101.578 199.679L102.393 196.012C99.2271 197.14 92.679 196.495 89.138 194.285L89.1003 198.189Z" fill="#263238"/>
<path d="M119.796 196.647C121.232 198.123 128.594 199.022 132.473 196.636L132.729 192.961C129.788 194.682 122.244 194.727 119.332 193.008L119.796 196.647Z" fill="#263238"/>
<path d="M90.7601 140.666C90.7601 140.666 89.998 156.853 90.0537 158.047C90.1094 159.242 99.6755 161.782 99.8931 161.021C100.256 159.754 100.138 156.935 100.766 143.341C93.5817 142.444 90.7601 140.666 90.7601 140.666Z" fill="#263238"/>
<path d="M99.4594 148.028C99.1979 147.94 98.9139 147.969 98.6422 147.965C98.3245 147.959 98.0073 147.947 97.6906 147.923C97.0203 147.871 96.3527 147.771 95.6946 147.624C94.9511 147.458 94.2172 147.234 93.5035 146.958C92.9214 146.734 92.3697 146.43 91.7876 146.211C91.7324 146.19 91.7246 146.298 91.76 146.325C92.3134 146.734 92.9686 147.014 93.5968 147.268C94.1879 147.507 94.7925 147.7 95.4089 147.853C96.0647 148.015 96.73 148.131 97.3999 148.2C97.7345 148.235 98.0708 148.257 98.4072 148.267C98.7249 148.277 99.1799 148.348 99.4656 148.18C99.5095 148.154 99.5134 148.046 99.4594 148.028Z" fill="black"/>
<path d="M95.6716 145.769C95.5873 145.602 95.522 145.497 95.3359 145.476C95.184 145.459 95.0254 145.5 94.9011 145.594C94.7836 145.683 94.706 145.817 94.6891 145.968C94.661 146.225 94.7915 146.461 95.0046 146.582C95.1891 146.687 95.4489 146.701 95.6238 146.566C95.7391 146.477 95.7706 146.335 95.7712 146.191C95.7706 146.046 95.7357 145.897 95.6716 145.769ZM95.5119 146.272C95.4174 146.406 95.211 146.437 95.0772 146.359C94.855 146.229 94.8966 145.788 95.1672 145.757C95.2521 145.746 95.3415 145.766 95.4096 145.82C95.5248 145.911 95.6075 146.136 95.5119 146.272Z" fill="black"/>
<path d="M182.279 54.484C181.685 54.3566 181.012 54.8126 180.331 55.4811C180.618 54.9524 180.788 54.502 180.719 54.2456C180.512 53.4768 179.91 53.2175 178.632 54.3611C177.353 55.5047 174.227 58.5478 171.268 59.4654C170.735 59.6306 169.713 60.0995 169.162 59.8791C168.404 59.5753 169.044 58.4841 169.307 58.0214C169.559 57.5784 169.783 57.119 169.976 56.6472C170.192 56.1197 170.372 55.5645 170.369 54.9946C170.365 54.4248 170.155 53.833 169.708 53.4801C169.468 53.2902 169.14 53.1814 168.941 53.4593C168.145 54.5629 167.311 55.6378 166.509 56.7368C165.749 57.779 164.912 58.8308 164.346 59.9935C163.695 61.3316 162.896 62.9228 161.942 64.1103C161.223 65.0274 159.522 66.6101 157.157 68.6876C154.234 71.2533 147.912 76.2939 147.912 76.2939C147.912 76.2939 145.831 74.2062 140.572 68.3489C133.748 60.7494 130.847 57.4312 124.727 57.8523C122.177 63.8488 127.006 74.404 127.006 74.404C127.006 74.404 135.362 82.8789 144.273 90.4237C147.194 92.8964 150.798 92.8271 154.904 88.522C161.084 82.0436 163.803 76.6941 167.732 71.7014C168.386 70.87 169.736 69.7552 172.311 68.9497C173.319 68.6341 174.427 68.2023 175.081 67.9622C175.872 67.6708 177.231 66.9257 177.94 66.4703C179.441 65.507 179.493 65.6265 181.369 63.2756C181.6 62.9853 182.508 61.7138 182.331 61.3874C182.182 61.1124 181.898 61.0346 181.593 61.1056C181.159 61.2065 180.889 61.5345 180.106 62.0204C180.868 61.2257 181.947 60.0544 182.322 58.7287C182.378 58.5298 182.411 58.2282 182.349 58.031C182.291 57.845 182.043 57.3433 181.718 57.3163C181.718 57.3163 182.042 56.6827 182.333 56.1405C182.57 55.6981 183.029 54.6446 182.279 54.484Z" fill="#FFBDA7"/>
<path d="M147.911 76.2951C145.749 78.1946 144.036 81.245 144.229 83.1259C143.285 80.2609 144.792 76.7145 146.748 75.2051L147.911 76.2951Z" fill="#F0997A"/>
<path d="M166.014 67.0201C165.989 66.8595 165.98 66.6949 165.995 66.5326C166.025 66.2198 166.123 65.903 166.246 65.615C166.492 65.0406 166.882 64.5193 167.358 64.1163C168.387 63.2438 169.968 62.896 171.243 63.3818C171.279 63.3954 171.342 63.5104 171.271 63.5126C169.984 63.5532 168.706 63.6575 167.673 64.5243C166.819 65.2413 166.441 66.3911 166.353 67.4784C166.344 67.5804 166.237 67.5736 166.2 67.4913C166.123 67.3228 166.042 67.2089 166.014 67.0201Z" fill="#F0997A"/>
<path d="M173.786 60.6981C174.968 60.015 176.073 59.1227 177.141 58.2733C178.165 57.4589 179.136 56.5661 180.111 55.6947C180.123 55.684 180.147 55.7133 180.138 55.7246C179.268 56.8631 178.245 57.8162 177.117 58.6972C176.077 59.5083 174.956 60.0922 173.805 60.7206C173.794 60.7268 173.776 60.7037 173.786 60.6981Z" fill="#F0997A"/>
<path d="M174.363 62.9483C175.545 62.2652 176.65 61.3729 177.718 60.5235C178.129 60.1972 178.53 59.859 178.925 59.5146C179.313 59.177 179.72 58.8467 180.07 58.4713C180.178 58.3552 180.287 58.2391 180.395 58.123C180.534 57.9742 180.652 57.8158 180.817 57.6918C180.986 57.565 181.177 57.4692 181.38 57.4122C181.399 57.4066 181.43 57.4122 181.425 57.4314C181.183 57.5419 180.973 57.7127 180.791 57.9049C180.669 58.0334 180.557 58.172 180.45 58.3141C180.354 58.4426 180.25 58.5502 180.145 58.6708C179.819 59.0434 179.474 59.3979 179.113 59.7372C178.66 60.1633 178.184 60.5647 177.694 60.9474C176.654 61.7584 175.533 62.3424 174.382 62.9714C174.37 62.9776 174.353 62.9545 174.363 62.9483Z" fill="#F0997A"/>
<path d="M180.116 62.0186C179.454 62.5478 178.792 63.0382 178.071 63.4519C177.369 63.896 176.615 64.2539 175.896 64.7077C176.717 64.4912 177.492 64.1429 178.231 63.7185C178.948 63.267 179.637 62.7276 180.116 62.0186Z" fill="#F0997A"/>
<path d="M161.943 64.1106C162.678 63.3288 163.228 62.6412 163.746 61.4998C163.938 61.01 164.243 60.4999 164.485 60.0485C164.72 59.5902 165.082 59.1066 165.377 58.6771C165.96 57.817 166.603 56.9704 167.194 56.0979C167.793 55.2305 168.388 54.3585 168.942 53.459C168.241 54.2526 167.579 55.0744 166.923 55.9001C166.267 56.7275 165.624 57.5538 165.015 58.4325C164.721 58.8772 164.438 59.3343 164.204 59.8213C163.971 60.3128 163.707 60.7727 163.505 61.2857C163.303 61.7986 163.232 61.9321 162.946 62.5459C162.66 63.1597 162.23 63.6659 161.943 64.1106Z" fill="#F0997A"/>
<path d="M125.889 56.6182C132.451 57.5955 134.119 60.5941 136.54 63.2426C138.96 65.8911 148.207 76.0512 148.207 76.0512C148.207 76.0512 144.803 78.8198 144.261 82.9147C143.615 87.8059 144.867 90.0965 145.341 91.4284C145.341 91.4284 142.591 89.5876 141.272 88.2078C139.953 86.828 128.458 76.6166 128.458 76.6166L125.889 56.6182Z" fill="#455A64"/>
<path d="M148.769 75.6005L148.393 75.9021C148.393 75.9021 144.69 79.4186 144.749 84.1802C144.807 88.9418 146.093 91.5836 146.093 91.5836C146.093 91.5836 146.75 91.8451 147.048 91.9083C146.442 92.5773 145.037 92.5925 143.802 91.1659C142.566 89.7399 141.477 89.032 140.193 88.4227C138.908 87.8134 137.337 86.8552 138.574 82.2391C139.811 77.6223 143.762 73.727 146.068 73.4007C147.22 73.2372 147.123 74.1796 147.575 74.6249C148.071 75.1119 148.454 74.9659 148.769 75.6005Z" fill="#37474F"/>
<path d="M112.442 115.62C100.785 115.619 93.3367 111.966 92.2001 111.37C92.3182 109.149 92.519 106.629 92.713 104.191C93.0651 99.7635 93.398 95.5807 93.2107 93.6345C92.8502 89.888 92.0212 86.2537 91.2895 83.0466C90.9695 81.6442 90.6675 80.3202 90.4133 79.043C87.1299 62.5166 92.578 59.9273 92.6331 59.903C97.6009 58.034 103.928 55.9762 104.505 55.7891H117.959C120.625 56.0393 123.191 56.3984 125.774 56.8836C129.119 59.3907 133.621 64.3885 134.404 78.6648C134.936 88.382 135.38 106.908 135.411 108.202C135.117 108.755 132.191 113.606 119.727 115.161C117.286 115.465 114.835 115.62 112.444 115.62H112.442Z" fill="#FAFAFA"/>
<path d="M117.932 56.0714C120.583 56.32 123.112 56.6723 125.657 57.1491C128.952 59.6353 133.351 64.597 134.122 78.6812C134.645 88.2371 135.085 106.32 135.127 108.133C134.711 108.859 131.652 113.39 119.691 114.882C117.261 115.185 114.822 115.338 112.44 115.338C101.295 115.338 94.024 111.982 92.4886 111.204C92.6079 109.031 92.8025 106.585 92.9914 104.214C93.3446 99.7731 93.6787 95.579 93.4886 93.6074C93.1264 89.8423 92.2952 86.1984 91.5612 82.9829C91.2418 81.5828 90.9403 80.2611 90.6872 78.9884C87.5203 63.0487 92.5145 60.2784 92.7378 60.1646C97.606 58.3333 103.759 56.3273 104.547 56.0714H117.932ZM117.958 55.5078H104.46C104.46 55.5078 97.7826 57.6643 92.5218 59.6443C92.5218 59.6443 86.7537 62.0685 90.1372 79.0983C90.9904 83.3915 92.4189 88.3476 92.9301 93.6615C93.2209 96.6821 92.2316 105.3 91.9094 111.534C91.9094 111.534 99.5812 115.902 112.442 115.902C114.724 115.902 117.167 115.764 119.762 115.44C133.282 113.754 135.694 108.266 135.694 108.266C135.694 108.266 135.24 88.7917 134.684 78.6496C133.926 64.7994 129.642 59.4127 125.89 56.6187C123.487 56.1656 120.884 55.7812 117.958 55.5078Z" fill="#E0E0E0"/>
<path d="M105.045 51.3747C103.625 48.4686 101.979 46.7777 99.1541 42.9083C96.891 39.8071 95.8359 36.2957 96.1328 33.8518C96.4551 31.1976 98.2323 29.9993 99.5546 29.5828C99.4741 27.0047 100.373 24.8234 101.957 23.1821C103.832 21.2376 106.654 20.4755 109.351 20.2478C111.24 20.0877 113.151 20.413 115.034 20.1937C116.918 19.9744 118.912 19.018 119.543 17.2256C119.872 18.434 119.844 19.7377 119.463 20.9304C119.524 20.7399 120.83 20.7207 121.021 20.7173C121.494 20.7083 121.998 20.7303 122.461 20.8272C123.307 21.0048 124.126 21.5786 124.531 22.3479C124.986 23.2131 124.876 24.3883 124.157 25.0494C124.688 25.7292 125.562 26.0927 126.424 26.1057C127.285 26.1181 128.13 25.807 128.853 25.3358C129.007 25.9214 128.612 26.5109 128.162 26.9156C127.456 27.5492 126.56 27.9663 125.622 28.097C126.523 29.0586 126.893 30.528 126.438 31.7657C125.984 33.004 124.668 33.9025 123.359 33.7593C123.693 33.796 123.087 35.0343 122.978 35.1391C122.581 35.5235 122.12 35.8887 121.709 36.2743C120.494 37.4128 119.278 38.5485 118.059 39.6815C115.141 42.3937 112.212 45.0952 109.24 47.7477C108.943 48.0148 105.013 51.3234 105.045 51.3747Z" fill="#263238"/>
<path d="M101.69 46.6897C103.312 46.9146 104.485 45.9739 104.507 45.1499L104.464 56.231C108.33 62.5528 123.715 63.2759 118 56.7016L117.887 52.7483C117.887 52.7483 118.794 52.6711 120.208 52.3126C122.567 51.7219 124.553 49.9808 125.037 47.2928C125.533 44.5265 125.115 41.5404 124.742 38.7853C124.525 37.1874 124.26 35.5957 123.96 34.0119C123.824 33.2943 123.681 32.578 123.531 31.8638C123.365 31.0793 123.14 30.3967 122.803 29.6645C122.165 28.2791 121.684 27.7622 120.516 26.6846C119.673 27.5261 119.107 28.9059 118.079 29.5073C117.097 30.0816 115.867 29.6121 114.796 29.2305C113.363 28.721 111.848 28.3946 110.322 28.393C109.56 28.3918 108.796 28.4736 108.056 28.659C107.429 28.8157 106.532 28.9848 106.461 29.7688C106.434 30.0585 106.51 30.346 106.578 30.6283C107.015 32.4365 107.368 34.385 106.473 36.1114C106.332 36.3842 106.164 36.6463 106.062 36.936C105.904 37.379 105.903 37.8604 105.837 38.3265C105.77 38.7921 105.613 39.2807 105.238 39.5642C104.916 39.8072 104.458 39.8534 104.094 39.6792C103.661 39.4712 103.415 39.0164 103.137 38.6241C102.599 37.8649 101.759 37.3266 100.806 37.3356C99.4347 37.348 98.5635 37.8801 97.9431 38.8693C97.3228 39.8585 97.2306 41.1069 97.4398 42.2562C97.717 43.7803 98.9836 46.3138 101.69 46.6897Z" fill="#FFBDA7"/>
<path d="M117.885 52.7478C114.744 53.0025 111.923 52.8526 110.001 52.2225C108.08 51.5923 106.216 49.1957 105.458 46.7236C105.634 48.751 106.826 52.2698 109.765 53.5183C112.704 54.7667 115.827 54.6405 117.885 54.5063V52.7478Z" fill="#F0997A"/>
<path d="M114.001 44.1201L117.996 45.4841C117.64 46.6306 116.457 47.2545 115.353 46.878C114.25 46.5015 113.645 45.266 114.001 44.1201Z" fill="#B16668"/>
<path d="M114.419 44.8479C114.247 44.809 114.077 44.796 113.91 44.7949C113.912 45.7153 114.467 46.5749 115.355 46.8776C115.577 46.9537 115.802 46.979 116.023 46.9773C116.197 46.0394 115.496 45.0948 114.419 44.8479Z" fill="#F28F8F"/>
<path d="M122.703 34.612L120.26 34.112C120.373 33.4255 121.012 32.9808 121.687 33.1189C122.361 33.257 122.816 33.9255 122.703 34.612Z" fill="#263238"/>
<path d="M112.889 34.9773L110.663 36.1012C110.327 35.4919 110.554 34.7462 111.169 34.4357C111.784 34.1257 112.554 34.368 112.889 34.9773Z" fill="#263238"/>
<path d="M111.809 37.8127C111.856 38.4536 112.412 38.9344 113.052 38.8876C113.691 38.8403 114.171 38.2828 114.124 37.6425C114.077 37.0017 113.521 36.5203 112.881 36.5677C112.242 36.6144 111.762 37.1719 111.809 37.8127Z" fill="#263238"/>
<path d="M119.869 36.9015C119.917 37.5424 120.473 38.0237 121.112 37.9764C121.752 37.929 122.231 37.3716 122.185 36.7313C122.138 36.0905 121.581 35.6097 120.942 35.6565C120.302 35.7038 119.823 36.2612 119.869 36.9015Z" fill="#263238"/>
<path d="M115.626 35.5243C118.491 35.371 121.376 41.4961 121.376 41.4961L117.096 43.1238L115.626 35.5243Z" fill="#F0997A"/>
<path d="M110.126 91.9132C111.307 91.5897 114.847 87.284 115.362 86.19C115.877 85.096 116.721 83.8323 117.531 82.8482C118.341 81.8635 118.681 80.6602 118.326 80.1681C117.972 79.6761 117.558 79.4365 116.913 80.0283C116.269 80.6202 115.607 81.3129 113.87 82.1296C112.133 82.9463 110.925 83.3701 109.584 86.0164C108.513 88.1289 110.126 91.9132 110.126 91.9132Z" fill="#F0997A"/>
<path d="M194.852 34.9501L180.546 25.6591C179.549 25.0594 178.163 25.3209 177.452 26.2441L137.817 77.6806L121.886 65.5088C120.961 64.8014 119.607 64.9536 118.861 65.8492L108.317 78.0937C107.572 78.9893 107.717 80.2891 108.642 80.9976L140.532 105.419C141.456 106.128 142.783 105.953 143.494 105.03C152.206 93.7211 186.658 49.0185 195.37 37.7097C196.082 36.7859 195.85 35.5504 194.852 34.9501Z" fill="#F85605"/>
<path d="M120.358 86.689C121.285 86.5396 121.749 85.8396 121.263 85.2472C120.777 84.6548 118.33 83.7654 117.508 83.62C116.684 83.4752 115.685 83.3991 114.23 83.6364C112.775 83.8736 111.093 84.0439 110.62 84.4221C110.037 84.8876 109.764 85.7246 109.101 86.9691C108.43 88.2277 107.925 89.4007 107.124 90.7004C106.398 91.8784 105.646 92.2916 103.191 92.1783C101.686 92.109 98.5571 91.8057 94.1725 91.2111C94.8322 88.4352 97.1814 78.3945 97.497 74.8233C97.8642 70.6626 96.7203 60.99 91.7429 60.3564C86.9079 63.0523 85.7234 65.414 84.6177 71.1078C83.5216 76.7527 80.8962 91.7978 81.3231 98.7818C81.3237 98.7903 81.3225 98.7993 81.3231 98.8072C81.3866 100.531 81.7938 102.887 88.6828 102.926C95.5713 102.966 102.797 101.762 109.849 100.602C113.063 100.074 114.012 98.3529 114.669 97.0273C115.518 95.3115 115.931 94.5286 117.555 93.8032C118.441 93.407 119.189 93.2244 119.929 92.7149C120.668 92.2053 121.027 91.5932 120.88 91.153C120.732 90.7128 120.153 90.8481 120.153 90.8481C120.153 90.8481 120.241 90.6858 120.211 90.3228C120.18 89.9592 120.036 89.6194 120.036 89.6194C120.036 89.6194 120.355 89.6036 120.696 89.4621C121.038 89.3212 121.167 88.6183 121.136 88.2554C121.105 87.8918 120.165 87.3293 119.654 87.2239C119.144 87.1185 117.594 86.7234 117.134 86.6952C116.674 86.667 113.415 86.8852 113.415 86.8852C113.415 86.8852 115.901 86.3582 116.889 86.2544C117.877 86.1524 119.545 86.8203 120.358 86.689Z" fill="#FFBDA7"/>
<path d="M94.6016 89.3887C90.3622 89.511 87.8797 90.5464 86.6699 92.1477C88.5889 91.052 91.3391 90.9731 94.1742 91.2109L94.6016 89.3887Z" fill="#F0997A"/>
<path d="M120.694 89.4631C120.843 89.4017 120.949 89.2331 121.021 89.0342C121.017 89.0376 120.753 89.2281 120.031 89.2715C119.305 89.3149 117.305 89.0269 116.12 89.2095C114.935 89.3915 113.651 89.7376 113.102 89.5877C113.48 89.7579 114.803 89.7027 116.2 89.5375C117.598 89.3729 120.034 89.6198 120.034 89.6198C120.034 89.6198 120.352 89.604 120.694 89.4631Z" fill="#F0997A"/>
<path d="M118.805 91.3788C118.381 91.5253 116.36 91.7948 115.623 91.9137C114.885 92.0326 113.659 92.1217 113.659 92.1217C113.659 92.1217 114.611 92.2507 115.306 92.1679C116.002 92.085 118.023 91.8111 118.78 91.6014C119.536 91.3918 119.91 91.1116 120.151 90.8495C120.151 90.8495 120.238 90.6872 120.208 90.3242C119.994 90.9149 119.23 91.2322 118.805 91.3788Z" fill="#F0997A"/>
<path d="M92.5193 59.6436C88.687 61.6016 85.6056 63.5022 84.4397 69.6881C83.2738 75.8741 81.3504 88.9876 81.131 92.5656C80.9117 96.1436 81.3065 98.4979 81.3065 98.4979C81.3065 98.4979 84.3508 90.9964 94.1711 91.2106L94.9709 91.3177C94.9709 91.3177 97.0805 80.5224 97.7126 77.3666C98.3437 74.2108 99.4499 63.2914 92.5193 59.6436Z" fill="#455A64"/>
<path d="M95.891 91.4378L94.9726 91.3183C94.9726 91.3183 89.8844 90.8939 86.3693 93.6061C81.622 97.2692 81.8582 100.851 81.8582 100.851C81.8582 100.851 82.271 101.374 82.4926 101.538C82.4926 101.538 81.2542 101.749 80.779 100.37C80.3369 99.0869 80.7407 97.4468 80.5619 96.0602C80.4201 94.9617 79.2559 92.591 81.3127 90.6031C83.7125 88.2843 88.6443 86.86 92.1678 87.2522C95.6913 87.6451 96.4472 88.4866 96.0861 89.3456C95.7245 90.2046 96.2549 90.6679 95.891 91.4378Z" fill="#37474F"/>
<path d="M183.195 148.377C179.964 146.792 174.834 150.503 174.834 152.046L164.961 146.487C164.961 144.903 170.507 140.928 173.71 143.027L183.195 148.377Z" fill="#F85605"/>
<path opacity="0.3" d="M183.195 148.377C179.964 146.792 174.834 150.503 174.834 152.046L164.961 146.487C164.961 144.903 170.507 140.928 173.71 143.027L183.195 148.377Z" fill="white"/>
<path d="M208.793 157.117V157.131C207.92 156.673 206.699 156.7 205.132 157.617L186.274 168.54C187.148 164.163 187.411 160.397 186.912 156.909L195.287 152.045C197.021 151.031 198.324 151.114 199.225 151.726L208.793 157.117Z" fill="#F85605"/>
<path opacity="0.3" d="M208.793 157.117V157.131C207.92 156.673 206.699 156.7 205.132 157.617L186.274 168.54C187.148 164.163 187.411 160.397 186.912 156.909L195.287 152.045C197.021 151.031 198.324 151.114 199.225 151.726L208.793 157.117Z" fill="white"/>
<path d="M165.492 229.919L155.623 224.208V183.393L165.492 189.105V229.919Z" fill="#F85605"/>
<g opacity="0.2">
<path d="M165.492 229.919L155.623 224.208V183.393L165.492 189.105V229.919Z" fill="black"/>
</g>
<path d="M174.835 166.678C174.045 169.527 165.493 189.105 165.493 189.105L155.623 183.392C155.623 183.392 164.159 163.955 164.99 161.119C165.781 158.284 164.963 148.376 164.963 146.486L174.836 152.045C174.835 153.949 175.667 163.857 174.835 166.678Z" fill="#F85605"/>
<path d="M165.765 189.163C166.117 188.354 170.288 178.781 172.935 172.358L172.957 172.306V172.298C173.566 170.822 174.096 169.506 174.493 168.496C174.8 167.677 175.002 167.093 175.095 166.756C175.379 165.795 175.504 163.952 175.467 161.283C175.453 160.064 175.408 158.654 175.33 156.974C175.3 156.267 175.267 155.592 175.236 154.976L175.186 153.936C175.148 153.268 175.105 152.452 175.105 152.045C175.105 151.818 175.311 151.368 175.889 150.789C177.128 149.54 179.425 148.277 181.415 148.277C182.028 148.277 182.584 148.397 183.066 148.632C183.806 148.999 184.364 149.615 184.77 150.513C185.711 152.582 186.318 154.685 186.624 156.945C187.096 160.26 186.895 163.925 185.993 168.483L185.872 169.092L205.264 157.858C206.099 157.369 206.867 157.121 207.548 157.121C207.95 157.121 208.321 157.209 208.65 157.381C209.899 158.011 210.456 159.751 210.456 161.198C210.481 165.075 208.183 168.283 207.478 169.173L206.929 169.866L207.777 169.619C207.78 169.618 208.103 169.525 208.543 169.525C209.749 169.525 211.186 170.178 211.186 173.286C211.186 175.884 209.611 179.942 206.693 182.344L206.419 182.57L206.702 182.786C206.711 182.793 207.834 183.734 207.834 187.039C207.834 189.262 205.236 194.748 202.681 196.231L202.456 196.362L202.569 196.597C202.577 196.613 203.343 198.239 203.343 200.976C203.365 204.197 200.646 209.226 196.562 211.582C192.787 213.771 169.216 227.43 165.763 229.43V189.163H165.765Z" fill="white"/>
<path d="M181.42 148.559C181.99 148.559 182.504 148.669 182.945 148.884C183.626 149.222 184.141 149.793 184.519 150.63C185.448 152.673 186.047 154.75 186.35 156.986C186.818 160.267 186.618 163.902 185.722 168.427L185.48 169.647L186.555 169.024L205.413 158.1C206.203 157.637 206.923 157.403 207.553 157.403C207.909 157.403 208.237 157.479 208.533 157.635C209.671 158.209 210.18 159.838 210.18 161.202C210.206 165.084 207.754 168.377 207.263 168.999L206.178 170.371L207.86 169.89C207.863 169.89 208.154 169.807 208.548 169.807C210.115 169.807 210.91 170.978 210.91 173.287C210.91 175.821 209.371 179.78 206.52 182.127L205.959 182.571L206.525 183.003C206.535 183.012 207.557 183.915 207.557 187.04C207.557 189.205 205.031 194.546 202.545 195.988L202.095 196.251L202.32 196.721C202.327 196.737 203.066 198.316 203.066 200.982C203.088 204.121 200.425 209.033 196.426 211.341C192.781 213.455 170.665 226.269 166.049 228.944V189.223C166.532 188.114 170.599 178.773 173.198 172.467L173.24 172.357C173.799 171.004 174.336 169.673 174.761 168.591C175.074 167.755 175.273 167.18 175.367 166.841C175.66 165.847 175.789 163.976 175.751 161.282C175.737 160.065 175.692 158.652 175.614 156.964C175.583 156.239 175.549 155.55 175.518 154.922C175.5 154.568 175.484 154.234 175.469 153.919C175.432 153.259 175.39 152.45 175.39 152.045C175.39 151.923 175.536 151.545 176.092 150.988C177.291 149.78 179.506 148.559 181.42 148.559ZM181.42 147.995C179.296 147.995 176.935 149.34 175.694 150.589C175.157 151.128 174.828 151.658 174.828 152.044C174.828 152.413 174.86 153.089 174.908 153.949C174.948 154.809 175.004 155.854 175.053 156.987C175.117 158.369 175.173 159.864 175.189 161.287C175.221 163.553 175.14 165.619 174.828 166.68C174.732 167.026 174.523 167.62 174.234 168.392C173.833 169.413 173.296 170.747 172.678 172.242C172.678 172.25 172.678 172.25 172.678 172.25C169.895 179.002 165.486 189.104 165.486 189.104V229.92C165.486 229.92 192.632 214.19 196.707 211.827C200.789 209.472 203.652 204.384 203.628 200.976C203.628 198.131 202.826 196.475 202.826 196.475C205.472 194.94 208.119 189.394 208.119 187.039C208.119 183.511 206.876 182.562 206.876 182.562C209.747 180.199 211.472 176.14 211.472 173.287C211.472 169.781 209.659 169.244 208.548 169.244C208.057 169.244 207.702 169.349 207.702 169.349C208.721 168.062 210.766 164.872 210.742 161.198C210.742 159.639 210.141 157.814 208.786 157.131C208.431 156.946 208.021 156.839 207.553 156.839C206.867 156.839 206.059 157.069 205.129 157.614L186.273 168.537C187.14 164.164 187.404 160.395 186.907 156.907C186.602 154.656 185.992 152.51 185.03 150.396C184.573 149.383 183.939 148.749 183.193 148.379C182.646 148.111 182.043 147.995 181.42 147.995Z" fill="#F85605"/>
<path d="M160.993 192.605C160.993 192.021 160.785 191.396 160.466 190.826C160.133 190.27 159.689 189.77 159.19 189.478L152.923 185.851C151.924 185.281 150.329 185.281 149.331 185.851H149.317L139.32 191.646C138.82 191.937 138.363 192.438 138.044 192.994C137.725 193.563 137.517 194.203 137.517 194.772V238.116C137.517 239.269 138.321 240.673 139.32 241.243L145.587 244.87C146.087 245.162 146.738 245.3 147.39 245.3C148.042 245.3 148.679 245.162 149.178 244.884C149.178 244.87 149.192 244.87 149.192 244.87L159.218 239.061C160.216 238.491 161.02 237.101 161.02 235.948V235.934L160.993 192.605Z" fill="#F85605"/>
<path opacity="0.2" d="M147.39 198.398V245.3C146.738 245.3 146.086 245.161 145.587 244.869L139.32 241.242C138.321 240.672 137.517 239.269 137.517 238.116V194.772C137.517 194.202 137.725 193.563 138.044 192.993L147.39 198.398Z" fill="black"/>
<path opacity="0.3" d="M160.465 190.825L147.389 198.399L138.043 192.993C138.362 192.437 138.82 191.937 139.319 191.645L149.316 185.85H149.33C150.329 185.28 151.924 185.28 152.922 185.85L159.189 189.477C159.689 189.769 160.133 190.27 160.465 190.825Z" fill="white"/>
<path d="M229.999 122.374C229.999 122.473 230.074 122.557 230.172 122.568L233.046 122.886C233.324 122.916 233.542 123.141 233.568 123.419L233.898 127.094C233.907 127.195 233.991 127.272 234.092 127.272C234.193 127.272 234.277 127.195 234.285 127.094L234.616 123.42C234.641 123.142 234.86 122.917 235.137 122.887L238.011 122.568C238.11 122.557 238.184 122.474 238.184 122.375C238.184 122.275 238.11 122.192 238.011 122.181L235.137 121.862C234.86 121.832 234.641 121.607 234.616 121.33L234.285 117.654C234.277 117.553 234.193 117.477 234.092 117.477C233.991 117.477 233.907 117.553 233.898 117.654L233.568 121.328C233.543 121.607 233.324 121.832 233.046 121.862L230.172 122.18C230.073 122.191 229.999 122.275 229.999 122.374Z" fill="#F0F0F0"/>
<path d="M195.781 12.3301C195.781 12.4293 195.855 12.5127 195.953 12.524L198.828 12.8424C199.105 12.8723 199.324 13.0972 199.349 13.375L199.68 17.0505C199.688 17.1514 199.773 17.2281 199.873 17.2281C199.974 17.2281 200.058 17.1514 200.067 17.0505L200.398 13.3762C200.422 13.0977 200.642 12.8734 200.919 12.843L203.793 12.5245C203.891 12.5132 203.966 12.4298 203.966 12.3306C203.966 12.2309 203.891 12.148 203.793 12.1367L200.919 11.8183C200.642 11.7884 200.423 11.5635 200.398 11.2856L200.067 7.61016C200.058 7.50927 199.974 7.43262 199.873 7.43262C199.773 7.43262 199.688 7.50927 199.68 7.61016L199.349 11.2845C199.325 11.563 199.105 11.7878 198.828 11.8177L195.953 12.1362C195.855 12.1474 195.781 12.2303 195.781 12.3301Z" fill="#F0F0F0"/>
<path d="M221.705 74.0342C221.705 74.1334 221.779 74.2168 221.877 74.2281L224.752 74.5465C225.029 74.5764 225.249 74.8013 225.273 75.0791L225.604 78.7546C225.612 78.8555 225.697 78.9322 225.798 78.9322C225.898 78.9322 225.983 78.8555 225.991 78.7546L226.322 75.0803C226.346 74.8018 226.566 74.5769 226.843 74.5471L229.717 74.2286C229.815 74.2174 229.89 74.1339 229.89 74.0347C229.89 73.9355 229.815 73.8521 229.717 73.8408L226.843 73.5224C226.566 73.4925 226.347 73.2676 226.322 72.9897L225.991 69.3143C225.983 69.2134 225.898 69.1367 225.798 69.1367C225.697 69.1367 225.612 69.2134 225.604 69.3143L225.273 72.9886C225.249 73.2671 225.029 73.4919 224.752 73.5218L221.877 73.8403C221.779 73.8515 221.705 73.9344 221.705 74.0342Z" fill="#F0F0F0"/>
<path d="M226.807 47.6298C226.807 47.7555 226.901 47.8603 227.025 47.8744L230.652 48.2763C231.001 48.314 231.278 48.5975 231.309 48.9481L231.726 53.5852C231.737 53.7125 231.843 53.8089 231.97 53.8089C232.098 53.8089 232.204 53.7125 232.214 53.5852L232.632 48.9492C232.663 48.5981 232.94 48.3146 233.289 48.2768L236.915 47.8749C237.039 47.8603 237.133 47.7555 237.133 47.6303C237.133 47.5046 237.039 47.3998 236.915 47.3857L233.289 46.9838C232.939 46.9461 232.664 46.6626 232.632 46.312L232.214 41.6749C232.204 41.5476 232.098 41.4512 231.97 41.4512C231.843 41.4512 231.737 41.5481 231.726 41.6749L231.309 46.3109C231.278 46.662 231.001 46.9455 230.652 46.9838L227.025 47.3857C226.9 47.3992 226.807 47.5041 226.807 47.6298Z" fill="#F0F0F0"/>
<path d="M202.578 105.714C202.578 105.818 202.657 105.905 202.76 105.917L207.19 106.407C207.661 106.46 208.035 106.842 208.077 107.315L208.586 112.979C208.596 113.085 208.684 113.166 208.79 113.166C208.895 113.166 208.984 113.085 208.993 112.979L209.502 107.315C209.544 106.842 209.918 106.46 210.39 106.407L214.819 105.917C214.923 105.906 215.001 105.818 215.001 105.714C215.001 105.609 214.923 105.522 214.819 105.51L210.39 105.02C209.918 104.968 209.544 104.586 209.502 104.112L208.993 98.4483C208.984 98.3429 208.896 98.2617 208.79 98.2617C208.684 98.2617 208.596 98.3429 208.586 98.4483L208.077 104.112C208.035 104.585 207.661 104.967 207.19 105.02L202.76 105.51C202.657 105.521 202.578 105.609 202.578 105.714Z" fill="#F0F0F0"/>
<path d="M237.136 64.4767C237.136 64.581 237.215 64.6683 237.318 64.6801L241.747 65.1705C242.219 65.2229 242.593 65.6051 242.635 66.0785L243.144 71.7425C243.153 71.8479 243.242 71.9291 243.347 71.9291C243.452 71.9291 243.541 71.8485 243.55 71.7425L244.059 66.0785C244.101 65.6051 244.475 65.2235 244.947 65.1705L249.376 64.6801C249.48 64.6689 249.558 64.581 249.558 64.4767C249.558 64.3724 249.48 64.285 249.376 64.2732L244.947 63.7828C244.475 63.731 244.101 63.3488 244.059 62.8754L243.55 57.212C243.541 57.1066 243.452 57.0254 243.347 57.0254C243.241 57.0254 243.153 57.1066 243.144 57.212L242.635 62.8754C242.593 63.3488 242.219 63.731 241.747 63.7828L237.318 64.2732C237.215 64.285 237.136 64.3724 237.136 64.4767Z" fill="#F0F0F0"/>
<path d="M18.2243 129.31L15.3498 128.992C15.0725 128.962 14.8538 128.737 14.8284 128.458L14.4977 124.784C14.4893 124.683 14.4049 124.606 14.3043 124.606C14.2036 124.606 14.1192 124.683 14.1108 124.784L13.7801 128.459C13.7548 128.737 13.536 128.962 13.2587 128.992L10.3848 129.311C10.2864 129.322 10.2122 129.405 10.2122 129.504C10.2122 129.604 10.2864 129.687 10.3848 129.698L13.2587 130.017C13.536 130.047 13.7554 130.272 13.7801 130.55L14.1108 134.224C14.1192 134.325 14.2036 134.402 14.3043 134.402C14.4049 134.402 14.4893 134.325 14.4977 134.224L14.8284 130.549C14.8532 130.271 15.0725 130.047 15.3498 130.016L18.2243 129.698C18.3227 129.687 18.397 129.603 18.397 129.504C18.397 129.405 18.3227 129.321 18.2243 129.31Z" fill="#F0F0F0"/>
<path d="M49.8547 15.019L46.9802 14.7005C46.7029 14.6707 46.4841 14.4458 46.4588 14.1673L46.1281 10.493C46.1197 10.3921 46.0353 10.3154 45.9346 10.3154C45.834 10.3154 45.7496 10.3921 45.7412 10.493L45.4105 14.1685C45.3852 14.4463 45.1664 14.6707 44.8891 14.7011L42.0152 15.0195C41.9168 15.0308 41.8425 15.1137 41.8425 15.2134C41.8425 15.3126 41.9168 15.3961 42.0152 15.4073L44.8891 15.7258C45.1664 15.7557 45.3857 15.9805 45.4105 16.259L45.7412 19.9333C45.7496 20.0342 45.834 20.1109 45.9346 20.1109C46.0353 20.1109 46.1197 20.0342 46.1281 19.9333L46.4588 16.2579C46.4836 15.98 46.7029 15.7557 46.9802 15.7252L49.8547 15.4068C49.9531 15.3955 50.0273 15.3121 50.0273 15.2129C50.0273 15.1131 49.9536 15.0303 49.8547 15.019Z" fill="#F0F0F0"/>
<path d="M16.404 92.1547L13.5295 91.8363C13.2522 91.8064 13.0334 91.5815 13.0081 91.3031L12.6774 87.6287C12.669 87.5278 12.5846 87.4512 12.484 87.4512C12.3833 87.4512 12.2989 87.5278 12.2905 87.6287L11.9598 91.3042C11.9345 91.5821 11.7157 91.8064 11.4384 91.8368L8.56451 92.1553C8.46608 92.1666 8.39185 92.25 8.39185 92.3492C8.39185 92.4484 8.46608 92.5318 8.56451 92.5431L11.4384 92.8615C11.7157 92.8914 11.935 93.1163 11.9598 93.3947L12.2905 97.0691C12.2989 97.17 12.3833 97.2466 12.484 97.2466C12.5846 97.2466 12.669 97.17 12.6774 97.0691L13.0081 93.3936C13.0329 93.1157 13.2522 92.8914 13.5295 92.861L16.404 92.5425C16.5024 92.5312 16.5766 92.4478 16.5766 92.3486C16.5766 92.2488 16.5024 92.166 16.404 92.1547Z" fill="#F0F0F0"/>
<path d="M15.4721 34.367L11.8451 33.9652C11.4953 33.9274 11.2191 33.6439 11.1876 33.2922L10.7703 28.6563C10.7596 28.5289 10.6533 28.4325 10.5262 28.4325C10.3991 28.4325 10.2928 28.5294 10.2821 28.6563L9.86483 33.2933C9.83277 33.6433 9.55663 33.9274 9.20681 33.9652L5.58093 34.367C5.45664 34.3817 5.36328 34.486 5.36328 34.6117C5.36328 34.7368 5.45664 34.8422 5.58093 34.8563L9.20681 35.2581C9.55663 35.2959 9.83334 35.5794 9.86483 35.9306L10.2821 40.5665C10.2928 40.6939 10.3991 40.7902 10.5262 40.7902C10.6533 40.7902 10.7596 40.6939 10.7703 40.5665L11.1876 35.9294C11.2191 35.5794 11.4958 35.2959 11.8451 35.2576L15.4721 34.8557C15.5964 34.8416 15.6903 34.7362 15.6903 34.6111C15.6903 34.486 15.5964 34.3817 15.4721 34.367Z" fill="#F0F0F0"/>
<path d="M39.5798 113.951L35.1502 113.46C34.6784 113.408 34.3049 113.026 34.2627 112.552L33.7537 106.889C33.7442 106.783 33.6559 106.702 33.5502 106.702C33.4444 106.702 33.3561 106.783 33.3466 106.889L32.8376 112.552C32.7954 113.026 32.4214 113.408 31.9495 113.46L27.5205 113.951C27.417 113.962 27.3389 114.05 27.3389 114.154C27.3389 114.258 27.417 114.346 27.5205 114.357L31.9495 114.848C32.4214 114.9 32.7954 115.282 32.8376 115.756L33.3466 121.42C33.3561 121.525 33.4444 121.606 33.5502 121.606C33.6559 121.606 33.7436 121.525 33.7537 121.42L34.2627 115.756C34.3049 115.282 34.6784 114.901 35.1502 114.848L39.5798 114.357C39.6833 114.346 39.7614 114.258 39.7614 114.154C39.7614 114.05 39.6827 113.962 39.5798 113.951Z" fill="#F0F0F0"/>
<path d="M33.3708 58.5804L28.9412 58.09C28.4694 58.0382 28.0959 57.656 28.0537 57.182L27.5448 51.5186C27.5352 51.4132 27.4469 51.332 27.3412 51.332C27.2354 51.332 27.1471 51.4132 27.1376 51.5186L26.6286 57.182C26.5864 57.6555 26.2124 58.0376 25.7405 58.09L21.3115 58.5804C21.2081 58.5917 21.1299 58.6796 21.1299 58.7839C21.1299 58.8882 21.2081 58.9755 21.3115 58.9874L25.7405 59.4777C26.2124 59.5301 26.5864 59.9123 26.6286 60.3857L27.1376 66.0497C27.1471 66.1551 27.2354 66.2363 27.3412 66.2363C27.4469 66.2363 27.5346 66.1557 27.5448 66.0497L28.0537 60.3857C28.0959 59.9123 28.4694 59.5307 28.9412 59.4777L33.3708 58.9874C33.4743 58.9761 33.553 58.8882 33.553 58.7839C33.553 58.6796 33.4743 58.5917 33.3708 58.5804Z" fill="#F0F0F0"/>
</svg>
