<svg width="103" height="48" viewBox="0 0 103 48" fill="none" xmlns="http://www.w3.org/2000/svg">
<path d="M10.4637 12.4221L14.8069 13.5917C15.1623 13.6873 15.2814 14.1339 15.0211 14.3955L14.5536 14.8654L16.7678 17.091C16.9409 17.265 16.9409 17.5473 16.7678 17.7213L15.1507 19.3466C14.9776 19.5206 14.6967 19.5206 14.5236 19.3466L12.3094 17.1211L11.8418 17.5911C11.5816 17.8527 11.1373 17.7329 11.0421 17.3757L9.87848 13.0103C9.78309 12.6533 10.1083 12.3265 10.4637 12.4221Z" fill="url(#paint0_linear_120_688)"/>
<path d="M22.9828 21.9996H4.14577C3.05623 21.9996 2.17006 21.1077 2.17006 20.0114V12.9564C2.17006 12.6878 2.387 12.4697 2.6543 12.4697C2.92185 12.4697 3.13855 12.6878 3.13855 12.9564V20.0114C3.13855 20.5709 3.59035 21.0262 4.14577 21.0262H22.9828C23.5382 21.0262 23.99 20.5709 23.99 20.0114V12.9564C23.99 12.6878 24.207 12.4697 24.4743 12.4697C24.7416 12.4697 24.9585 12.6878 24.9585 12.9564V20.0114C24.9585 21.1077 24.0721 21.9996 22.9828 21.9996Z" fill="url(#paint1_linear_120_688)"/>
<path d="M5.66737 8.77548C5.55599 9.34007 5.67705 9.87546 6.01118 10.2867C6.37436 10.7321 6.93366 10.9754 7.58981 10.9754C8.94569 10.9754 10.1636 9.90953 10.2483 8.6465L10.827 0H7.43486L5.66737 8.77548ZM15.2021 0H11.7979L11.2144 8.71221C11.1756 9.2768 11.3742 9.81948 11.7688 10.2454C12.2071 10.7175 12.8221 10.9754 13.5 10.9754C14.1779 10.9754 14.7929 10.7175 15.2312 10.2454C15.6258 9.81948 15.8244 9.2768 15.7856 8.71221L15.2021 0ZM3.07667 0L0.115522 8.83632C-0.0781748 9.41065 -0.0273279 9.94603 0.260797 10.3476C0.548921 10.7515 1.05254 10.9754 1.67721 10.9754C3.06457 10.9754 4.45676 9.88033 4.71825 8.58323L6.44457 0H3.07667ZM19.5651 0H16.173L16.7517 8.6465C16.8364 9.90953 18.0543 10.9754 19.4102 10.9754C20.0663 10.9754 20.6256 10.7321 20.9888 10.2867C21.3229 9.87546 21.444 9.34007 21.3326 8.77548L19.5651 0ZM26.8845 8.83632L23.9233 0H20.5554L22.2817 8.58323C22.5432 9.88033 23.9354 10.9754 25.3228 10.9754C25.9475 10.9754 26.4511 10.7515 26.7392 10.3476C27.0273 9.94603 27.0782 9.41065 26.8845 8.83632Z" fill="url(#paint2_linear_120_688)"/>
<path d="M2.08594 29.6248H4.07031L6.99219 37.9763L9.91406 29.6248H11.8984L7.78906 40.9998H6.19531L2.08594 29.6248ZM1.01562 29.6248H2.99219L3.35156 37.7654V40.9998H1.01562V29.6248ZM10.9922 29.6248H12.9766V40.9998H10.6328V37.7654L10.9922 29.6248ZM19.4531 39.0935V35.3279C19.4531 35.057 19.4089 34.8253 19.3203 34.6326C19.2318 34.4347 19.0938 34.281 18.9062 34.1716C18.724 34.0623 18.487 34.0076 18.1953 34.0076C17.9453 34.0076 17.7292 34.0518 17.5469 34.1404C17.3646 34.2237 17.224 34.3461 17.125 34.5076C17.026 34.6638 16.9766 34.8487 16.9766 35.0623H14.7266C14.7266 34.7029 14.8099 34.3617 14.9766 34.0388C15.1432 33.7159 15.3854 33.432 15.7031 33.1873C16.0208 32.9373 16.3984 32.7419 16.8359 32.6013C17.2786 32.4607 17.7734 32.3904 18.3203 32.3904C18.9766 32.3904 19.5599 32.4998 20.0703 32.7185C20.5807 32.9373 20.9818 33.2654 21.2734 33.7029C21.5703 34.1404 21.7188 34.6873 21.7188 35.3435V38.9607C21.7188 39.4242 21.7474 39.8044 21.8047 40.1013C21.862 40.393 21.9453 40.6482 22.0547 40.8669V40.9998H19.7812C19.6719 40.7706 19.5885 40.4841 19.5312 40.1404C19.4792 39.7914 19.4531 39.4425 19.4531 39.0935ZM19.75 35.8513L19.7656 37.1248H18.5078C18.2109 37.1248 17.9531 37.1586 17.7344 37.2263C17.5156 37.294 17.3359 37.3904 17.1953 37.5154C17.0547 37.6352 16.9505 37.7758 16.8828 37.9373C16.8203 38.0987 16.7891 38.2758 16.7891 38.4685C16.7891 38.6612 16.8333 38.8357 16.9219 38.9919C17.0104 39.143 17.138 39.2628 17.3047 39.3513C17.4714 39.4347 17.6667 39.4763 17.8906 39.4763C18.2292 39.4763 18.5234 39.4086 18.7734 39.2732C19.0234 39.1378 19.2161 38.9711 19.3516 38.7732C19.4922 38.5753 19.5651 38.3878 19.5703 38.2107L20.1641 39.1638C20.0807 39.3774 19.9661 39.5987 19.8203 39.8279C19.6797 40.057 19.5 40.2732 19.2812 40.4763C19.0625 40.6742 18.7995 40.8383 18.4922 40.9685C18.1849 41.0935 17.8203 41.156 17.3984 41.156C16.862 41.156 16.375 41.0492 15.9375 40.8357C15.5052 40.6169 15.1615 40.3175 14.9062 39.9373C14.6562 39.5518 14.5312 39.1143 14.5312 38.6248C14.5312 38.182 14.6146 37.7888 14.7812 37.4451C14.9479 37.1013 15.1927 36.8123 15.5156 36.5779C15.8438 36.3383 16.2526 36.1586 16.7422 36.0388C17.2318 35.9138 17.7995 35.8513 18.4453 35.8513H19.75ZM28.4453 39.156V28.9998H30.7109V40.9998H28.6719L28.4453 39.156ZM23.1016 36.8748V36.7107C23.1016 36.0649 23.1745 35.4789 23.3203 34.9529C23.4661 34.4216 23.6797 33.9659 23.9609 33.5857C24.2422 33.2055 24.5885 32.9112 25 32.7029C25.4115 32.4945 25.8802 32.3904 26.4062 32.3904C26.901 32.3904 27.3333 32.4945 27.7031 32.7029C28.0781 32.9112 28.3958 33.2081 28.6562 33.5935C28.9219 33.9737 29.1354 34.4242 29.2969 34.9451C29.4583 35.4607 29.5755 36.0258 29.6484 36.6404V36.9998C29.5755 37.5883 29.4583 38.1352 29.2969 38.6404C29.1354 39.1456 28.9219 39.5883 28.6562 39.9685C28.3958 40.3435 28.0781 40.6352 27.7031 40.8435C27.3281 41.0518 26.8906 41.156 26.3906 41.156C25.8646 41.156 25.3958 41.0492 24.9844 40.8357C24.5781 40.6222 24.2344 40.3227 23.9531 39.9373C23.6771 39.5518 23.4661 39.0987 23.3203 38.5779C23.1745 38.057 23.1016 37.4893 23.1016 36.8748ZM25.3516 36.7107V36.8748C25.3516 37.2237 25.3776 37.5492 25.4297 37.8513C25.487 38.1534 25.5781 38.4216 25.7031 38.656C25.8333 38.8852 26 39.0649 26.2031 39.1951C26.4115 39.3201 26.6641 39.3826 26.9609 39.3826C27.3464 39.3826 27.6641 39.2966 27.9141 39.1248C28.1641 38.9477 28.3542 38.7055 28.4844 38.3982C28.6198 38.0909 28.6979 37.7367 28.7188 37.3357V36.3123C28.7031 35.9841 28.6562 35.6899 28.5781 35.4294C28.5052 35.1638 28.3958 34.9373 28.25 34.7498C28.1094 34.5623 27.9323 34.4164 27.7188 34.3123C27.5104 34.2081 27.263 34.156 26.9766 34.156C26.6849 34.156 26.4349 34.2237 26.2266 34.3591C26.0182 34.4893 25.849 34.669 25.7188 34.8982C25.5938 35.1274 25.5 35.3982 25.4375 35.7107C25.3802 36.018 25.3516 36.3513 25.3516 36.7107ZM36.3594 41.156C35.7031 41.156 35.1146 41.0518 34.5938 40.8435C34.0729 40.63 33.6302 40.3357 33.2656 39.9607C32.9062 39.5857 32.6302 39.1508 32.4375 38.656C32.2448 38.156 32.1484 37.6248 32.1484 37.0623V36.7498C32.1484 36.1091 32.2396 35.5232 32.4219 34.9919C32.6042 34.4607 32.8646 33.9998 33.2031 33.6091C33.5469 33.2185 33.9635 32.919 34.4531 32.7107C34.9427 32.4972 35.4948 32.3904 36.1094 32.3904C36.7083 32.3904 37.2396 32.4893 37.7031 32.6873C38.1667 32.8852 38.5547 33.1664 38.8672 33.531C39.1849 33.8956 39.4245 34.3331 39.5859 34.8435C39.7474 35.3487 39.8281 35.9112 39.8281 36.531V37.4685H33.1094V35.9685H37.6172V35.7966C37.6172 35.4841 37.5599 35.2055 37.4453 34.9607C37.3359 34.7107 37.1693 34.5128 36.9453 34.3669C36.7214 34.2211 36.4349 34.1482 36.0859 34.1482C35.7891 34.1482 35.5339 34.2133 35.3203 34.3435C35.1068 34.4737 34.9323 34.656 34.7969 34.8904C34.6667 35.1248 34.5677 35.4008 34.5 35.7185C34.4375 36.031 34.4062 36.3748 34.4062 36.7498V37.0623C34.4062 37.4008 34.4531 37.7133 34.5469 37.9998C34.6458 38.2862 34.7839 38.5336 34.9609 38.7419C35.1432 38.9503 35.362 39.1117 35.6172 39.2263C35.8776 39.3409 36.1719 39.3982 36.5 39.3982C36.9062 39.3982 37.2839 39.3201 37.6328 39.1638C37.987 39.0024 38.2917 38.7602 38.5469 38.4373L39.6406 39.6248C39.4635 39.88 39.2214 40.1248 38.9141 40.3591C38.612 40.5935 38.2474 40.7862 37.8203 40.9373C37.3932 41.0831 36.9062 41.156 36.3594 41.156ZM47.4688 32.5466V40.9998H45.2109V32.5466H47.4688ZM45.0703 30.3435C45.0703 30.0154 45.1849 29.7445 45.4141 29.531C45.6432 29.3175 45.9505 29.2107 46.3359 29.2107C46.7161 29.2107 47.0208 29.3175 47.25 29.531C47.4844 29.7445 47.6016 30.0154 47.6016 30.3435C47.6016 30.6716 47.4844 30.9425 47.25 31.156C47.0208 31.3695 46.7161 31.4763 46.3359 31.4763C45.9505 31.4763 45.6432 31.3695 45.4141 31.156C45.1849 30.9425 45.0703 30.6716 45.0703 30.3435ZM51.5312 34.3513V40.9998H49.2812V32.5466H51.3906L51.5312 34.3513ZM51.2031 36.4763H50.5938C50.5938 35.8513 50.6745 35.2888 50.8359 34.7888C50.9974 34.2836 51.224 33.8539 51.5156 33.4998C51.8073 33.1404 52.1536 32.8669 52.5547 32.6794C52.9609 32.4867 53.4141 32.3904 53.9141 32.3904C54.3099 32.3904 54.6719 32.4477 55 32.5623C55.3281 32.6768 55.6094 32.8591 55.8438 33.1091C56.0833 33.3591 56.2656 33.6899 56.3906 34.1013C56.5208 34.5128 56.5859 35.0154 56.5859 35.6091V40.9998H54.3203V35.6013C54.3203 35.2263 54.2682 34.9347 54.1641 34.7263C54.0599 34.518 53.9062 34.3722 53.7031 34.2888C53.5052 34.2003 53.2604 34.156 52.9688 34.156C52.6667 34.156 52.4036 34.2159 52.1797 34.3357C51.9609 34.4555 51.7786 34.6222 51.6328 34.8357C51.4922 35.044 51.3854 35.2888 51.3125 35.5701C51.2396 35.8513 51.2031 36.1534 51.2031 36.4763ZM69.0156 37.2263H71.3516C71.3047 37.9919 71.0938 38.6716 70.7188 39.2654C70.349 39.8591 69.8307 40.3227 69.1641 40.656C68.5026 40.9893 67.7057 41.156 66.7734 41.156C66.0443 41.156 65.3906 41.031 64.8125 40.781C64.2344 40.5258 63.7396 40.1612 63.3281 39.6873C62.9219 39.2133 62.612 38.6404 62.3984 37.9685C62.1849 37.2966 62.0781 36.544 62.0781 35.7107V34.9216C62.0781 34.0883 62.1875 33.3357 62.4062 32.6638C62.6302 31.9867 62.9479 31.4112 63.3594 30.9373C63.776 30.4633 64.2734 30.0987 64.8516 29.8435C65.4297 29.5883 66.0755 29.4607 66.7891 29.4607C67.737 29.4607 68.5365 29.6326 69.1875 29.9763C69.8438 30.3201 70.3516 30.794 70.7109 31.3982C71.0755 32.0024 71.2943 32.6899 71.3672 33.4607H69.0234C68.9974 33.0024 68.9062 32.6143 68.75 32.2966C68.5938 31.9737 68.3568 31.7315 68.0391 31.5701C67.7266 31.4034 67.3099 31.3201 66.7891 31.3201C66.3984 31.3201 66.0573 31.393 65.7656 31.5388C65.474 31.6847 65.2292 31.906 65.0312 32.2029C64.8333 32.4998 64.6849 32.8748 64.5859 33.3279C64.4922 33.7758 64.4453 34.3018 64.4453 34.906V35.7107C64.4453 36.2992 64.4896 36.8175 64.5781 37.2654C64.6667 37.7081 64.8021 38.0831 64.9844 38.3904C65.1719 38.6925 65.4115 38.9216 65.7031 39.0779C66 39.2289 66.3568 39.3044 66.7734 39.3044C67.263 39.3044 67.6667 39.2263 67.9844 39.0701C68.3021 38.9138 68.5443 38.682 68.7109 38.3748C68.8828 38.0675 68.9844 37.6847 69.0156 37.2263ZM74.9453 28.9998V40.9998H72.6953V28.9998H74.9453ZM74.625 36.4763H74.0078C74.013 35.8878 74.0911 35.3461 74.2422 34.8513C74.3932 34.3513 74.6094 33.919 74.8906 33.5544C75.1719 33.1847 75.5078 32.8982 75.8984 32.6951C76.2943 32.4919 76.7318 32.3904 77.2109 32.3904C77.6276 32.3904 78.0052 32.4503 78.3438 32.5701C78.6875 32.6847 78.9818 32.8722 79.2266 33.1326C79.4766 33.3878 79.6693 33.7237 79.8047 34.1404C79.9401 34.557 80.0078 35.0623 80.0078 35.656V40.9998H77.7422V35.6404C77.7422 35.2654 77.6875 34.9711 77.5781 34.7576C77.474 34.5388 77.3203 34.3852 77.1172 34.2966C76.9193 34.2029 76.6745 34.156 76.3828 34.156C76.0599 34.156 75.7839 34.2159 75.5547 34.3357C75.3307 34.4555 75.151 34.6222 75.0156 34.8357C74.8802 35.044 74.7812 35.2888 74.7188 35.5701C74.6562 35.8513 74.625 36.1534 74.625 36.4763ZM84.0938 32.5466V40.9998H81.8359V32.5466H84.0938ZM81.6953 30.3435C81.6953 30.0154 81.8099 29.7445 82.0391 29.531C82.2682 29.3175 82.5755 29.2107 82.9609 29.2107C83.3411 29.2107 83.6458 29.3175 83.875 29.531C84.1094 29.7445 84.2266 30.0154 84.2266 30.3435C84.2266 30.6716 84.1094 30.9425 83.875 31.156C83.6458 31.3695 83.3411 31.4763 82.9609 31.4763C82.5755 31.4763 82.2682 31.3695 82.0391 31.156C81.8099 30.9425 81.6953 30.6716 81.6953 30.3435ZM88.1562 34.3513V40.9998H85.9062V32.5466H88.0156L88.1562 34.3513ZM87.8281 36.4763H87.2188C87.2188 35.8513 87.2995 35.2888 87.4609 34.7888C87.6224 34.2836 87.849 33.8539 88.1406 33.4998C88.4323 33.1404 88.7786 32.8669 89.1797 32.6794C89.5859 32.4867 90.0391 32.3904 90.5391 32.3904C90.9349 32.3904 91.2969 32.4477 91.625 32.5623C91.9531 32.6768 92.2344 32.8591 92.4688 33.1091C92.7083 33.3591 92.8906 33.6899 93.0156 34.1013C93.1458 34.5128 93.2109 35.0154 93.2109 35.6091V40.9998H90.9453V35.6013C90.9453 35.2263 90.8932 34.9347 90.7891 34.7263C90.6849 34.518 90.5312 34.3722 90.3281 34.2888C90.1302 34.2003 89.8854 34.156 89.5938 34.156C89.2917 34.156 89.0286 34.2159 88.8047 34.3357C88.5859 34.4555 88.4036 34.6222 88.2578 34.8357C88.1172 35.044 88.0104 35.2888 87.9375 35.5701C87.8646 35.8513 87.8281 36.1534 87.8281 36.4763ZM99.4844 39.0935V35.3279C99.4844 35.057 99.4401 34.8253 99.3516 34.6326C99.263 34.4347 99.125 34.281 98.9375 34.1716C98.7552 34.0623 98.5182 34.0076 98.2266 34.0076C97.9766 34.0076 97.7604 34.0518 97.5781 34.1404C97.3958 34.2237 97.2552 34.3461 97.1562 34.5076C97.0573 34.6638 97.0078 34.8487 97.0078 35.0623H94.7578C94.7578 34.7029 94.8411 34.3617 95.0078 34.0388C95.1745 33.7159 95.4167 33.432 95.7344 33.1873C96.0521 32.9373 96.4297 32.7419 96.8672 32.6013C97.3099 32.4607 97.8047 32.3904 98.3516 32.3904C99.0078 32.3904 99.5911 32.4998 100.102 32.7185C100.612 32.9373 101.013 33.2654 101.305 33.7029C101.602 34.1404 101.75 34.6873 101.75 35.3435V38.9607C101.75 39.4242 101.779 39.8044 101.836 40.1013C101.893 40.393 101.977 40.6482 102.086 40.8669V40.9998H99.8125C99.7031 40.7706 99.6198 40.4841 99.5625 40.1404C99.5104 39.7914 99.4844 39.4425 99.4844 39.0935ZM99.7812 35.8513L99.7969 37.1248H98.5391C98.2422 37.1248 97.9844 37.1586 97.7656 37.2263C97.5469 37.294 97.3672 37.3904 97.2266 37.5154C97.0859 37.6352 96.9818 37.7758 96.9141 37.9373C96.8516 38.0987 96.8203 38.2758 96.8203 38.4685C96.8203 38.6612 96.8646 38.8357 96.9531 38.9919C97.0417 39.143 97.1693 39.2628 97.3359 39.3513C97.5026 39.4347 97.6979 39.4763 97.9219 39.4763C98.2604 39.4763 98.5547 39.4086 98.8047 39.2732C99.0547 39.1378 99.2474 38.9711 99.3828 38.7732C99.5234 38.5753 99.5964 38.3878 99.6016 38.2107L100.195 39.1638C100.112 39.3774 99.9974 39.5987 99.8516 39.8279C99.7109 40.057 99.5312 40.2732 99.3125 40.4763C99.0938 40.6742 98.8307 40.8383 98.5234 40.9685C98.2161 41.0935 97.8516 41.156 97.4297 41.156C96.8932 41.156 96.4062 41.0492 95.9688 40.8357C95.5365 40.6169 95.1927 40.3175 94.9375 39.9373C94.6875 39.5518 94.5625 39.1143 94.5625 38.6248C94.5625 38.182 94.6458 37.7888 94.8125 37.4451C94.9792 37.1013 95.224 36.8123 95.5469 36.5779C95.875 36.3383 96.2839 36.1586 96.7734 36.0388C97.263 35.9138 97.8307 35.8513 98.4766 35.8513H99.7812Z" fill="url(#paint3_linear_120_688)"/>
<defs>
<linearGradient id="paint0_linear_120_688" x1="13.3796" y1="12.2396" x2="13.3796" y2="18.7629" gradientUnits="userSpaceOnUse">
<stop stop-color="#DD4D05"/>
<stop offset="1" stop-color="#963403"/>
</linearGradient>
<linearGradient id="paint1_linear_120_688" x1="13.5643" y1="12.4697" x2="13.5643" y2="21.9996" gradientUnits="userSpaceOnUse">
<stop stop-color="#E11B2B"/>
<stop offset="1" stop-color="#7B0F18"/>
</linearGradient>
<linearGradient id="paint2_linear_120_688" x1="13.5" y1="0" x2="13.5" y2="10.9754" gradientUnits="userSpaceOnUse">
<stop stop-color="#E11B2B"/>
<stop offset="1" stop-color="#7B0F18"/>
</linearGradient>
<linearGradient id="paint3_linear_120_688" x1="137.895" y1="35.9998" x2="-0.000540699" y2="36.426" gradientUnits="userSpaceOnUse">
<stop stop-color="#F85605"/>
<stop offset="1" stop-color="#923303"/>
</linearGradient>
</defs>
</svg>
